<svg id="svg" version="1.1" xmlns="http://www.w3.org/2000/svg" xmlns:xlink="http://www.w3.org/1999/xlink" width="400" height="531.5068493150685" viewBox="0, 0, 400,531.5068493150685"><g id="svgg"><path id="path0" d="M185.600 0.400 C 185.600 0.651,183.067 0.800,178.800 0.800 C 173.022 0.800,172.000 0.890,172.000 1.400 C 172.000 1.894,171.285 2.000,167.963 2.000 C 164.262 2.000,163.908 2.067,163.716 2.800 C 163.528 3.520,163.170 3.600,160.153 3.600 C 157.439 3.600,156.800 3.714,156.800 4.200 C 156.800 4.671,156.249 4.800,154.243 4.800 C 152.339 4.800,151.627 4.953,151.455 5.400 C 151.294 5.822,150.636 6.000,149.245 6.000 C 146.892 6.000,146.000 6.287,146.000 7.043 C 146.000 7.445,145.441 7.600,143.987 7.600 C 142.568 7.600,141.907 7.777,141.745 8.200 C 141.575 8.641,140.879 8.800,139.120 8.800 C 137.062 8.800,136.696 8.912,136.516 9.600 C 136.343 10.262,135.970 10.400,134.353 10.400 C 132.884 10.400,132.400 10.549,132.400 11.000 C 132.400 11.419,131.978 11.600,131.000 11.600 C 129.867 11.600,129.600 11.752,129.600 12.400 C 129.600 13.094,129.333 13.200,127.587 13.200 C 126.168 13.200,125.507 13.377,125.345 13.800 C 125.213 14.142,124.617 14.400,123.957 14.400 C 123.195 14.400,122.800 14.605,122.800 15.000 C 122.800 15.431,122.359 15.600,121.233 15.600 C 119.278 15.600,118.400 15.923,118.400 16.643 C 118.400 16.997,117.957 17.200,117.187 17.200 C 116.479 17.200,115.879 17.449,115.745 17.800 C 115.613 18.142,115.017 18.400,114.357 18.400 C 113.467 18.400,113.200 18.584,113.200 19.200 C 113.200 19.848,112.933 20.000,111.800 20.000 C 110.822 20.000,110.400 20.181,110.400 20.600 C 110.400 21.019,109.978 21.200,109.000 21.200 C 108.072 21.200,107.600 21.387,107.600 21.755 C 107.600 22.074,107.002 22.423,106.200 22.574 C 105.362 22.731,104.800 23.070,104.800 23.418 C 104.800 23.816,104.358 24.000,103.400 24.000 C 102.422 24.000,102.000 24.181,102.000 24.600 C 102.000 25.004,101.596 25.200,100.763 25.200 C 99.862 25.200,99.468 25.417,99.316 26.000 C 99.168 26.567,98.770 26.800,97.953 26.800 C 97.195 26.800,96.800 27.005,96.800 27.400 C 96.800 27.733,96.444 28.000,96.000 28.000 C 95.467 28.000,95.200 28.267,95.200 28.800 C 95.200 29.448,94.933 29.600,93.800 29.600 C 92.822 29.600,92.400 29.781,92.400 30.200 C 92.400 30.530,92.130 30.800,91.800 30.800 C 91.470 30.800,91.200 31.070,91.200 31.400 C 91.200 31.730,90.855 32.000,90.433 32.000 C 89.241 32.000,88.400 32.431,88.400 33.043 C 88.400 33.349,88.124 33.600,87.787 33.600 C 87.451 33.600,87.071 33.870,86.945 34.200 C 86.813 34.542,86.217 34.800,85.557 34.800 C 84.667 34.800,84.400 34.984,84.400 35.600 C 84.400 36.133,84.133 36.400,83.600 36.400 C 83.156 36.400,82.800 36.667,82.800 37.000 C 82.800 37.397,82.403 37.600,81.627 37.600 C 80.805 37.600,80.378 37.840,80.200 38.400 C 80.060 38.840,79.688 39.200,79.373 39.200 C 79.058 39.200,78.800 39.470,78.800 39.800 C 78.800 40.130,78.530 40.400,78.200 40.400 C 77.870 40.400,77.600 40.650,77.600 40.955 C 77.600 41.274,77.002 41.623,76.200 41.774 C 75.362 41.931,74.800 42.270,74.800 42.618 C 74.800 42.938,74.440 43.200,74.000 43.200 C 73.556 43.200,73.200 43.467,73.200 43.800 C 73.200 44.130,72.930 44.400,72.600 44.400 C 72.267 44.400,72.000 44.756,72.000 45.200 C 72.000 45.733,71.733 46.000,71.200 46.000 C 70.756 46.000,70.400 46.267,70.400 46.600 C 70.400 46.930,70.130 47.200,69.800 47.200 C 69.467 47.200,69.200 47.556,69.200 48.000 C 69.200 48.648,68.933 48.800,67.800 48.800 C 66.822 48.800,66.400 48.981,66.400 49.400 C 66.400 49.730,66.130 50.000,65.800 50.000 C 65.470 50.000,65.200 50.249,65.200 50.553 C 65.200 50.858,64.840 51.201,64.400 51.316 C 63.960 51.431,63.600 51.812,63.600 52.163 C 63.600 52.513,63.330 52.800,63.000 52.800 C 62.670 52.800,62.400 53.049,62.400 53.353 C 62.400 53.658,62.040 54.001,61.600 54.116 C 61.160 54.231,60.800 54.612,60.800 54.963 C 60.800 55.313,60.530 55.600,60.200 55.600 C 59.870 55.600,59.600 55.870,59.600 56.200 C 59.600 56.530,59.330 56.800,59.000 56.800 C 58.670 56.800,58.400 57.087,58.400 57.437 C 58.400 57.788,58.040 58.169,57.600 58.284 C 57.160 58.399,56.800 58.742,56.800 59.047 C 56.800 59.351,56.530 59.600,56.200 59.600 C 55.870 59.600,55.600 59.849,55.600 60.153 C 55.600 60.458,55.240 60.801,54.800 60.916 C 54.360 61.031,54.000 61.412,54.000 61.763 C 54.000 62.113,53.730 62.400,53.400 62.400 C 53.070 62.400,52.800 62.670,52.800 63.000 C 52.800 63.330,52.530 63.600,52.200 63.600 C 51.867 63.600,51.600 63.956,51.600 64.400 C 51.600 64.933,51.333 65.200,50.800 65.200 C 50.178 65.200,50.000 65.467,50.000 66.400 C 50.000 67.200,49.800 67.600,49.400 67.600 C 49.067 67.600,48.800 67.956,48.800 68.400 C 48.800 68.933,48.533 69.200,48.000 69.200 C 47.556 69.200,47.200 69.467,47.200 69.800 C 47.200 70.130,46.930 70.400,46.600 70.400 C 46.267 70.400,46.000 70.756,46.000 71.200 C 46.000 71.733,45.733 72.000,45.200 72.000 C 44.760 72.000,44.400 72.251,44.400 72.557 C 44.400 72.864,44.130 73.218,43.800 73.345 C 43.449 73.479,43.200 74.079,43.200 74.787 C 43.200 75.454,43.000 76.000,42.756 76.000 C 42.142 76.000,40.415 77.690,40.407 78.300 C 40.403 78.575,40.130 78.800,39.800 78.800 C 39.381 78.800,39.200 79.222,39.200 80.200 C 39.200 81.333,39.048 81.600,38.400 81.600 C 37.956 81.600,37.600 81.867,37.600 82.200 C 37.600 82.530,37.330 82.800,37.000 82.800 C 36.581 82.800,36.400 83.222,36.400 84.200 C 36.400 85.333,36.248 85.600,35.600 85.600 C 35.156 85.600,34.800 85.867,34.800 86.200 C 34.800 86.530,34.530 86.800,34.200 86.800 C 33.867 86.800,33.600 87.156,33.600 87.600 C 33.600 88.040,33.350 88.400,33.045 88.400 C 32.726 88.400,32.377 88.998,32.226 89.800 C 32.069 90.638,31.730 91.200,31.382 91.200 C 31.007 91.200,30.800 91.611,30.800 92.357 C 30.800 93.017,30.542 93.613,30.200 93.745 C 29.870 93.871,29.600 94.251,29.600 94.587 C 29.600 94.933,29.252 95.200,28.800 95.200 C 28.152 95.200,28.000 95.467,28.000 96.600 C 28.000 97.578,27.819 98.000,27.400 98.000 C 26.981 98.000,26.800 98.422,26.800 99.400 C 26.800 100.533,26.648 100.800,26.000 100.800 C 25.560 100.800,25.200 101.051,25.200 101.357 C 25.200 101.664,24.930 102.018,24.600 102.145 C 24.249 102.279,24.000 102.879,24.000 103.587 C 24.000 104.399,23.801 104.800,23.400 104.800 C 22.981 104.800,22.800 105.222,22.800 106.200 C 22.800 107.333,22.648 107.600,22.000 107.600 C 21.352 107.600,21.200 107.867,21.200 109.000 C 21.200 109.978,21.019 110.400,20.600 110.400 C 20.205 110.400,20.000 110.795,20.000 111.553 C 20.000 112.370,19.767 112.768,19.200 112.916 C 18.617 113.068,18.400 113.462,18.400 114.363 C 18.400 115.196,18.204 115.600,17.800 115.600 C 17.381 115.600,17.200 116.022,17.200 117.000 C 17.200 117.930,17.013 118.400,16.643 118.400 C 16.039 118.400,15.600 119.238,15.600 120.390 C 15.600 120.788,15.330 121.218,15.000 121.345 C 14.589 121.502,14.400 122.145,14.400 123.387 C 14.400 124.732,14.245 125.200,13.800 125.200 C 13.385 125.200,13.200 125.617,13.200 126.553 C 13.200 127.570,13.001 127.959,12.400 128.116 C 11.750 128.286,11.600 128.662,11.600 130.120 C 11.600 131.346,11.410 131.987,11.000 132.145 C 10.577 132.307,10.400 132.968,10.400 134.387 C 10.400 136.133,10.294 136.400,9.600 136.400 C 8.907 136.400,8.800 136.667,8.800 138.400 C 8.800 139.911,8.653 140.400,8.200 140.400 C 7.747 140.400,7.600 140.889,7.600 142.400 C 7.600 143.830,7.443 144.400,7.050 144.400 C 6.438 144.400,6.000 146.091,6.000 148.450 C 6.000 149.561,5.830 150.000,5.400 150.000 C 4.924 150.000,4.800 150.578,4.800 152.800 C 4.800 155.022,4.676 155.600,4.200 155.600 C 3.714 155.600,3.600 156.239,3.600 158.953 C 3.600 161.970,3.520 162.328,2.800 162.516 C 2.058 162.710,2.000 163.062,2.000 167.363 C 2.000 171.218,1.899 172.000,1.400 172.000 C 0.890 172.000,0.800 173.022,0.800 178.800 C 0.800 183.067,0.651 185.600,0.400 185.600 C 0.142 185.600,0.000 190.200,0.000 198.600 C 0.000 207.000,0.142 211.600,0.400 211.600 C 0.652 211.600,0.800 214.333,0.800 219.000 C 0.800 225.311,0.888 226.400,1.400 226.400 C 1.900 226.400,2.000 227.200,2.000 231.200 C 2.000 235.733,2.044 236.000,2.800 236.000 C 3.537 236.000,3.600 236.267,3.600 239.413 C 3.600 242.077,3.732 242.876,4.200 243.055 C 4.663 243.233,4.800 244.005,4.800 246.443 C 4.800 248.983,4.917 249.600,5.400 249.600 C 5.855 249.600,6.000 250.093,6.000 251.637 C 6.000 253.338,6.132 253.709,6.800 253.884 C 7.493 254.065,7.600 254.430,7.600 256.604 C 7.600 258.466,7.755 259.174,8.200 259.345 C 8.614 259.503,8.800 260.149,8.800 261.425 C 8.800 262.938,8.945 263.313,9.600 263.484 C 10.262 263.657,10.400 264.030,10.400 265.647 C 10.400 267.116,10.549 267.600,11.000 267.600 C 11.446 267.600,11.600 268.071,11.600 269.437 C 11.600 270.938,11.746 271.313,12.400 271.484 C 13.001 271.641,13.200 272.030,13.200 273.047 C 13.200 273.983,13.385 274.400,13.800 274.400 C 14.253 274.400,14.400 274.889,14.400 276.400 C 14.400 277.911,14.547 278.400,15.000 278.400 C 15.404 278.400,15.600 278.804,15.600 279.637 C 15.600 280.538,15.817 280.932,16.400 281.084 C 17.001 281.241,17.200 281.630,17.200 282.647 C 17.200 283.583,17.385 284.000,17.800 284.000 C 18.219 284.000,18.400 284.422,18.400 285.400 C 18.400 286.533,18.552 286.800,19.200 286.800 C 19.848 286.800,20.000 287.067,20.000 288.200 C 20.000 289.178,20.181 289.600,20.600 289.600 C 21.019 289.600,21.200 290.022,21.200 291.000 C 21.200 292.133,21.352 292.400,22.000 292.400 C 22.648 292.400,22.800 292.667,22.800 293.800 C 22.800 294.778,22.981 295.200,23.400 295.200 C 23.800 295.200,24.000 295.600,24.000 296.400 C 24.000 297.200,24.200 297.600,24.600 297.600 C 24.930 297.600,25.200 297.945,25.200 298.367 C 25.200 299.559,25.631 300.400,26.243 300.400 C 26.549 300.400,26.800 300.760,26.800 301.200 C 26.800 301.644,27.067 302.000,27.400 302.000 C 27.804 302.000,28.000 302.404,28.000 303.237 C 28.000 304.138,28.217 304.532,28.800 304.684 C 29.367 304.832,29.600 305.230,29.600 306.047 C 29.600 306.805,29.805 307.200,30.200 307.200 C 30.533 307.200,30.800 307.556,30.800 308.000 C 30.800 308.440,31.056 308.800,31.368 308.800 C 31.681 308.800,32.058 309.352,32.206 310.027 C 32.354 310.702,32.728 311.351,33.038 311.470 C 33.347 311.588,33.600 311.936,33.600 312.243 C 33.600 312.549,33.870 312.800,34.200 312.800 C 34.604 312.800,34.800 313.204,34.800 314.037 C 34.800 314.938,35.017 315.332,35.600 315.484 C 36.040 315.599,36.400 315.942,36.400 316.247 C 36.400 316.551,36.670 316.800,37.000 316.800 C 37.404 316.800,37.600 317.204,37.600 318.037 C 37.600 318.938,37.817 319.332,38.400 319.484 C 38.843 319.600,39.200 320.030,39.200 320.447 C 39.200 320.861,39.470 321.200,39.800 321.200 C 40.130 321.200,40.400 321.470,40.400 321.800 C 40.400 322.130,40.662 322.400,40.982 322.400 C 41.330 322.400,41.669 322.962,41.826 323.800 C 41.977 324.602,42.326 325.200,42.645 325.200 C 42.950 325.200,43.200 325.470,43.200 325.800 C 43.200 326.130,43.470 326.400,43.800 326.400 C 44.130 326.400,44.400 326.687,44.400 327.037 C 44.400 327.388,44.760 327.769,45.200 327.884 C 45.767 328.032,46.000 328.430,46.000 329.247 C 46.000 330.005,46.205 330.400,46.600 330.400 C 46.933 330.400,47.200 330.756,47.200 331.200 C 47.200 331.733,47.467 332.000,48.000 332.000 C 48.444 332.000,48.800 332.267,48.800 332.600 C 48.800 332.930,49.070 333.200,49.400 333.200 C 49.819 333.200,50.000 333.622,50.000 334.600 C 50.000 335.549,50.185 336.000,50.573 336.000 C 50.888 336.000,51.260 336.360,51.400 336.800 C 51.540 337.240,51.912 337.600,52.227 337.600 C 52.542 337.600,52.800 337.870,52.800 338.200 C 52.800 338.530,53.070 338.800,53.400 338.800 C 53.730 338.800,54.000 339.145,54.000 339.567 C 54.000 340.759,54.431 341.600,55.043 341.600 C 55.349 341.600,55.600 341.870,55.600 342.200 C 55.600 342.530,55.870 342.800,56.200 342.800 C 56.533 342.800,56.800 343.156,56.800 343.600 C 56.800 344.133,57.067 344.400,57.600 344.400 C 58.216 344.400,58.400 344.667,58.400 345.557 C 58.400 346.217,58.658 346.813,59.000 346.945 C 59.330 347.071,59.600 347.451,59.600 347.787 C 59.600 348.124,59.870 348.400,60.200 348.400 C 60.530 348.400,60.800 348.670,60.800 349.000 C 60.800 349.333,61.156 349.600,61.600 349.600 C 62.248 349.600,62.400 349.867,62.400 351.000 C 62.400 351.978,62.581 352.400,63.000 352.400 C 63.330 352.400,63.600 352.687,63.600 353.037 C 63.600 353.388,63.960 353.769,64.400 353.884 C 64.840 353.999,65.200 354.342,65.200 354.647 C 65.200 354.951,65.470 355.200,65.800 355.200 C 66.204 355.200,66.400 355.604,66.400 356.437 C 66.400 357.338,66.617 357.732,67.200 357.884 C 67.640 357.999,68.000 358.342,68.000 358.647 C 68.000 358.951,68.270 359.200,68.600 359.200 C 68.933 359.200,69.200 359.556,69.200 360.000 C 69.200 360.444,69.467 360.800,69.800 360.800 C 70.133 360.800,70.400 361.156,70.400 361.600 C 70.400 362.040,70.760 362.760,71.200 363.200 C 71.640 363.640,72.000 364.180,72.000 364.400 C 72.000 364.620,72.270 364.800,72.600 364.800 C 72.930 364.800,73.200 365.087,73.200 365.437 C 73.200 365.788,73.560 366.169,74.000 366.284 C 74.567 366.432,74.800 366.830,74.800 367.647 C 74.800 368.405,75.005 368.800,75.400 368.800 C 75.733 368.800,76.000 369.156,76.000 369.600 C 76.000 370.133,76.267 370.400,76.800 370.400 C 77.244 370.400,77.600 370.667,77.600 371.000 C 77.600 371.330,77.870 371.600,78.200 371.600 C 78.601 371.600,78.800 372.001,78.800 372.813 C 78.800 373.521,79.049 374.121,79.400 374.255 C 79.730 374.382,80.000 374.724,80.000 375.016 C 80.000 375.307,80.360 375.660,80.800 375.800 C 81.240 375.940,81.600 376.312,81.600 376.627 C 81.600 376.942,81.870 377.200,82.200 377.200 C 82.604 377.200,82.800 377.604,82.800 378.437 C 82.800 379.338,83.017 379.732,83.600 379.884 C 84.040 379.999,84.400 380.342,84.400 380.647 C 84.400 380.951,84.670 381.200,85.000 381.200 C 85.333 381.200,85.600 381.556,85.600 382.000 C 85.600 382.450,85.867 382.800,86.210 382.800 C 86.568 382.800,86.919 383.296,87.060 384.000 C 87.192 384.660,87.548 385.200,87.850 385.200 C 88.153 385.200,88.400 385.560,88.400 386.000 C 88.400 386.444,88.667 386.800,89.000 386.800 C 89.330 386.800,89.600 387.070,89.600 387.400 C 89.600 387.733,89.956 388.000,90.400 388.000 C 91.048 388.000,91.200 388.267,91.200 389.400 C 91.200 390.378,91.381 390.800,91.800 390.800 C 92.130 390.800,92.400 391.087,92.400 391.437 C 92.400 391.788,92.760 392.169,93.200 392.284 C 93.640 392.399,94.000 392.742,94.000 393.047 C 94.000 393.351,94.270 393.600,94.600 393.600 C 94.982 393.600,95.200 393.984,95.200 394.654 C 95.200 395.665,96.790 397.600,97.621 397.600 C 97.829 397.600,98.000 397.960,98.000 398.400 C 98.000 398.844,98.267 399.200,98.600 399.200 C 98.979 399.200,99.200 399.582,99.200 400.237 C 99.200 400.938,99.459 401.343,100.000 401.484 C 100.443 401.600,100.800 402.030,100.800 402.447 C 100.800 402.861,101.070 403.200,101.400 403.200 C 101.730 403.200,102.000 403.470,102.000 403.800 C 102.000 404.133,102.356 404.400,102.800 404.400 C 103.448 404.400,103.600 404.667,103.600 405.800 C 103.600 406.778,103.781 407.200,104.200 407.200 C 104.530 407.200,104.800 407.476,104.800 407.813 C 104.800 408.149,105.070 408.529,105.400 408.655 C 105.730 408.782,106.000 409.136,106.000 409.443 C 106.000 409.749,106.360 410.000,106.800 410.000 C 107.424 410.000,107.600 410.267,107.600 411.213 C 107.600 411.921,107.849 412.521,108.200 412.655 C 108.530 412.782,108.800 413.136,108.800 413.443 C 108.800 413.749,109.160 414.000,109.600 414.000 C 110.133 414.000,110.400 414.267,110.400 414.800 C 110.400 415.244,110.667 415.600,111.000 415.600 C 111.400 415.600,111.600 416.000,111.600 416.800 C 111.600 417.631,111.796 418.000,112.237 418.000 C 112.588 418.000,112.969 418.360,113.084 418.800 C 113.199 419.240,113.542 419.600,113.847 419.600 C 114.151 419.600,114.400 419.870,114.400 420.200 C 114.400 420.530,114.650 420.800,114.955 420.800 C 115.274 420.800,115.623 421.398,115.774 422.200 C 115.931 423.038,116.270 423.600,116.618 423.600 C 116.938 423.600,117.200 423.960,117.200 424.400 C 117.200 424.844,117.467 425.200,117.800 425.200 C 118.130 425.200,118.400 425.470,118.400 425.800 C 118.400 426.133,118.756 426.400,119.200 426.400 C 119.848 426.400,120.000 426.667,120.000 427.800 C 120.000 428.778,120.181 429.200,120.600 429.200 C 120.930 429.200,121.200 429.470,121.200 429.800 C 121.200 430.133,121.556 430.400,122.000 430.400 C 122.533 430.400,122.800 430.667,122.800 431.200 C 122.800 431.644,123.067 432.000,123.400 432.000 C 123.770 432.000,124.000 432.375,124.000 432.979 C 124.000 433.998,125.555 436.000,126.346 436.000 C 126.596 436.000,126.800 436.360,126.800 436.800 C 126.800 437.244,127.067 437.600,127.400 437.600 C 127.779 437.600,128.000 437.982,128.000 438.637 C 128.000 439.338,128.259 439.743,128.800 439.884 C 129.243 440.000,129.600 440.430,129.600 440.847 C 129.600 441.261,129.870 441.600,130.200 441.600 C 130.530 441.600,130.800 441.870,130.800 442.200 C 130.800 442.530,131.062 442.800,131.382 442.800 C 131.730 442.800,132.069 443.362,132.226 444.200 C 132.377 445.002,132.726 445.600,133.045 445.600 C 133.350 445.600,133.600 445.876,133.600 446.213 C 133.600 446.549,133.870 446.929,134.200 447.055 C 134.530 447.182,134.800 447.536,134.800 447.843 C 134.800 448.149,135.160 448.400,135.600 448.400 C 136.224 448.400,136.400 448.667,136.400 449.613 C 136.400 450.321,136.649 450.921,137.000 451.055 C 137.330 451.182,137.600 451.536,137.600 451.843 C 137.600 452.149,137.960 452.400,138.400 452.400 C 138.933 452.400,139.200 452.667,139.200 453.200 C 139.200 453.644,139.467 454.000,139.800 454.000 C 140.200 454.000,140.400 454.400,140.400 455.200 C 140.400 455.975,140.603 456.400,140.973 456.400 C 141.288 456.400,141.660 456.760,141.800 457.200 C 141.940 457.640,142.312 458.000,142.627 458.000 C 142.942 458.000,143.200 458.270,143.200 458.600 C 143.200 458.930,143.470 459.200,143.800 459.200 C 144.130 459.200,144.400 459.545,144.400 459.967 C 144.400 461.159,144.831 462.000,145.443 462.000 C 145.749 462.000,146.000 462.276,146.000 462.613 C 146.000 462.949,146.270 463.329,146.600 463.455 C 146.930 463.582,147.200 463.936,147.200 464.243 C 147.200 464.549,147.560 464.800,148.000 464.800 C 148.624 464.800,148.800 465.067,148.800 466.013 C 148.800 466.721,149.049 467.321,149.400 467.455 C 149.730 467.582,150.000 467.936,150.000 468.243 C 150.000 468.549,150.249 468.800,150.553 468.800 C 150.858 468.800,151.201 469.160,151.316 469.600 C 151.431 470.040,151.812 470.400,152.163 470.400 C 152.604 470.400,152.800 470.769,152.800 471.600 C 152.800 472.355,153.005 472.800,153.353 472.800 C 153.658 472.800,154.001 473.160,154.116 473.600 C 154.231 474.040,154.612 474.400,154.963 474.400 C 155.313 474.400,155.600 474.670,155.600 475.000 C 155.600 475.330,155.870 475.600,156.200 475.600 C 156.604 475.600,156.800 476.004,156.800 476.837 C 156.800 477.738,157.017 478.132,157.600 478.284 C 158.043 478.400,158.400 478.830,158.400 479.247 C 158.400 479.661,158.670 480.000,159.000 480.000 C 159.330 480.000,159.600 480.270,159.600 480.600 C 159.600 480.930,159.862 481.200,160.182 481.200 C 160.530 481.200,160.869 481.762,161.026 482.600 C 161.177 483.402,161.526 484.000,161.845 484.000 C 162.150 484.000,162.400 484.270,162.400 484.600 C 162.400 484.930,162.670 485.200,163.000 485.200 C 163.333 485.200,163.600 485.556,163.600 486.000 C 163.600 486.533,163.867 486.800,164.400 486.800 C 165.022 486.800,165.200 487.067,165.200 488.000 C 165.200 488.800,165.400 489.200,165.800 489.200 C 166.133 489.200,166.400 489.556,166.400 490.000 C 166.400 490.533,166.667 490.800,167.200 490.800 C 167.644 490.800,168.000 491.067,168.000 491.400 C 168.000 491.730,168.270 492.000,168.600 492.000 C 169.019 492.000,169.200 492.422,169.200 493.400 C 169.200 494.325,169.388 494.800,169.753 494.800 C 170.058 494.800,170.401 495.160,170.516 495.600 C 170.631 496.040,171.012 496.400,171.363 496.400 C 171.713 496.400,172.000 496.670,172.000 497.000 C 172.000 497.330,172.270 497.600,172.600 497.600 C 173.004 497.600,173.200 498.004,173.200 498.837 C 173.200 499.738,173.417 500.132,174.000 500.284 C 174.440 500.399,174.800 500.742,174.800 501.047 C 174.800 501.351,175.070 501.600,175.400 501.600 C 175.730 501.600,176.000 501.939,176.000 502.353 C 176.000 502.770,176.357 503.200,176.800 503.316 C 177.344 503.458,177.600 503.862,177.600 504.575 C 177.600 505.153,177.870 505.729,178.200 505.855 C 178.530 505.982,178.800 506.336,178.800 506.643 C 178.800 506.949,179.049 507.200,179.353 507.200 C 179.658 507.200,180.001 507.560,180.116 508.000 C 180.231 508.440,180.612 508.800,180.963 508.800 C 181.404 508.800,181.600 509.169,181.600 510.000 C 181.600 510.755,181.805 511.200,182.153 511.200 C 182.458 511.200,182.801 511.560,182.916 512.000 C 183.031 512.440,183.412 512.800,183.763 512.800 C 184.113 512.800,184.400 513.070,184.400 513.400 C 184.400 513.730,184.670 514.000,185.000 514.000 C 185.404 514.000,185.600 514.404,185.600 515.237 C 185.600 516.138,185.817 516.532,186.400 516.684 C 186.840 516.799,187.200 517.142,187.200 517.447 C 187.200 517.751,187.470 518.000,187.800 518.000 C 188.133 518.000,188.400 518.356,188.400 518.800 C 188.400 519.244,188.667 519.600,189.000 519.600 C 189.373 519.600,189.600 519.977,189.600 520.597 C 189.600 521.160,189.948 521.810,190.400 522.093 C 190.840 522.368,191.200 522.819,191.200 523.096 C 191.200 523.373,191.449 523.600,191.753 523.600 C 192.058 523.600,192.401 523.960,192.516 524.400 C 192.631 524.840,193.012 525.200,193.363 525.200 C 193.804 525.200,194.000 525.569,194.000 526.400 C 194.000 527.200,194.200 527.600,194.600 527.600 C 194.933 527.600,195.200 527.956,195.200 528.400 C 195.200 528.844,195.467 529.200,195.800 529.200 C 196.130 529.200,196.400 529.470,196.400 529.800 C 196.400 530.133,196.756 530.400,197.200 530.400 C 197.640 530.400,198.000 530.580,198.000 530.800 C 198.000 531.020,198.900 531.200,200.000 531.200 C 201.100 531.200,202.000 531.020,202.000 530.800 C 202.000 530.580,202.360 530.400,202.800 530.400 C 203.244 530.400,203.600 530.133,203.600 529.800 C 203.600 529.470,203.870 529.200,204.200 529.200 C 204.533 529.200,204.800 528.844,204.800 528.400 C 204.800 527.956,205.067 527.600,205.400 527.600 C 205.800 527.600,206.000 527.200,206.000 526.400 C 206.000 525.569,206.196 525.200,206.637 525.200 C 206.988 525.200,207.369 524.840,207.484 524.400 C 207.599 523.960,207.942 523.600,208.247 523.600 C 208.551 523.600,208.800 523.373,208.800 523.096 C 208.800 522.819,209.160 522.368,209.600 522.093 C 210.052 521.810,210.400 521.160,210.400 520.597 C 210.400 519.977,210.627 519.600,211.000 519.600 C 211.333 519.600,211.600 519.244,211.600 518.800 C 211.600 518.360,211.825 517.997,212.100 517.993 C 212.960 517.981,214.400 516.135,214.400 515.044 C 214.400 514.383,214.620 514.000,215.000 514.000 C 215.330 514.000,215.600 513.730,215.600 513.400 C 215.600 513.070,215.887 512.800,216.237 512.800 C 216.588 512.800,216.969 512.440,217.084 512.000 C 217.199 511.560,217.542 511.200,217.847 511.200 C 218.195 511.200,218.400 510.755,218.400 510.000 C 218.400 509.169,218.596 508.800,219.037 508.800 C 219.388 508.800,219.769 508.440,219.884 508.000 C 219.999 507.560,220.342 507.200,220.647 507.200 C 220.951 507.200,221.200 506.949,221.200 506.643 C 221.200 506.336,221.453 505.988,221.762 505.870 C 222.072 505.751,222.446 505.102,222.594 504.427 C 222.742 503.752,223.119 503.200,223.432 503.200 C 223.744 503.200,224.000 502.840,224.000 502.400 C 224.000 501.956,224.267 501.600,224.600 501.600 C 224.930 501.600,225.200 501.351,225.200 501.047 C 225.200 500.742,225.560 500.399,226.000 500.284 C 226.583 500.132,226.800 499.738,226.800 498.837 C 226.800 498.004,226.996 497.600,227.400 497.600 C 227.730 497.600,228.000 497.330,228.000 497.000 C 228.000 496.670,228.287 496.400,228.637 496.400 C 228.988 496.400,229.369 496.040,229.484 495.600 C 229.599 495.160,229.942 494.800,230.247 494.800 C 230.612 494.800,230.800 494.325,230.800 493.400 C 230.800 492.422,230.981 492.000,231.400 492.000 C 231.730 492.000,232.000 491.730,232.000 491.400 C 232.000 491.067,232.356 490.800,232.800 490.800 C 233.333 490.800,233.600 490.533,233.600 490.000 C 233.600 489.556,233.867 489.200,234.200 489.200 C 234.600 489.200,234.800 488.800,234.800 488.000 C 234.800 487.067,234.978 486.800,235.600 486.800 C 236.133 486.800,236.400 486.533,236.400 486.000 C 236.400 485.556,236.667 485.200,237.000 485.200 C 237.330 485.200,237.600 484.930,237.600 484.600 C 237.600 484.270,237.862 484.000,238.182 484.000 C 238.530 484.000,238.869 483.438,239.026 482.600 C 239.177 481.798,239.526 481.200,239.845 481.200 C 240.150 481.200,240.400 480.930,240.400 480.600 C 240.400 480.270,240.670 480.000,241.000 480.000 C 241.330 480.000,241.600 479.661,241.600 479.247 C 241.600 478.830,241.957 478.400,242.400 478.284 C 242.983 478.132,243.200 477.738,243.200 476.837 C 243.200 476.004,243.396 475.600,243.800 475.600 C 244.130 475.600,244.400 475.330,244.400 475.000 C 244.400 474.667,244.756 474.400,245.200 474.400 C 245.733 474.400,246.000 474.133,246.000 473.600 C 246.000 473.156,246.267 472.800,246.600 472.800 C 247.000 472.800,247.200 472.400,247.200 471.600 C 247.200 470.769,247.396 470.400,247.837 470.400 C 248.188 470.400,248.569 470.040,248.684 469.600 C 248.799 469.160,249.142 468.800,249.447 468.800 C 249.751 468.800,250.000 468.549,250.000 468.243 C 250.000 467.936,250.270 467.582,250.600 467.455 C 250.951 467.321,251.200 466.721,251.200 466.013 C 251.200 465.067,251.376 464.800,252.000 464.800 C 252.440 464.800,252.800 464.549,252.800 464.243 C 252.800 463.936,253.070 463.582,253.400 463.455 C 253.730 463.329,254.000 462.949,254.000 462.613 C 254.000 462.276,254.251 462.000,254.557 462.000 C 255.169 462.000,255.600 461.159,255.600 459.967 C 255.600 459.545,255.870 459.200,256.200 459.200 C 256.530 459.200,256.800 458.930,256.800 458.600 C 256.800 458.270,257.087 458.000,257.437 458.000 C 257.788 458.000,258.169 457.640,258.284 457.200 C 258.399 456.760,258.742 456.400,259.047 456.400 C 259.395 456.400,259.600 455.955,259.600 455.200 C 259.600 454.400,259.800 454.000,260.200 454.000 C 260.533 454.000,260.800 453.644,260.800 453.200 C 260.800 452.667,261.067 452.400,261.600 452.400 C 262.040 452.400,262.400 452.149,262.400 451.843 C 262.400 451.536,262.670 451.182,263.000 451.055 C 263.351 450.921,263.600 450.321,263.600 449.613 C 263.600 448.667,263.776 448.400,264.400 448.400 C 264.840 448.400,265.200 448.149,265.200 447.843 C 265.200 447.536,265.470 447.182,265.800 447.055 C 266.130 446.929,266.400 446.549,266.400 446.213 C 266.400 445.876,266.662 445.600,266.982 445.600 C 267.330 445.600,267.669 445.038,267.826 444.200 C 267.977 443.398,268.326 442.800,268.645 442.800 C 268.950 442.800,269.200 442.530,269.200 442.200 C 269.200 441.870,269.470 441.600,269.800 441.600 C 270.130 441.600,270.400 441.261,270.400 440.847 C 270.400 440.430,270.757 440.000,271.200 439.884 C 271.741 439.743,272.000 439.338,272.000 438.637 C 272.000 437.982,272.221 437.600,272.600 437.600 C 272.933 437.600,273.200 437.244,273.200 436.800 C 273.200 436.360,273.404 436.000,273.654 436.000 C 274.445 436.000,276.000 433.998,276.000 432.979 C 276.000 432.375,276.230 432.000,276.600 432.000 C 276.933 432.000,277.200 431.644,277.200 431.200 C 277.200 430.667,277.467 430.400,278.000 430.400 C 278.444 430.400,278.800 430.133,278.800 429.800 C 278.800 429.470,279.070 429.200,279.400 429.200 C 279.819 429.200,280.000 428.778,280.000 427.800 C 280.000 426.667,280.152 426.400,280.800 426.400 C 281.244 426.400,281.600 426.133,281.600 425.800 C 281.600 425.470,281.870 425.200,282.200 425.200 C 282.533 425.200,282.800 424.844,282.800 424.400 C 282.800 423.960,283.062 423.600,283.382 423.600 C 283.730 423.600,284.069 423.038,284.226 422.200 C 284.377 421.398,284.726 420.800,285.045 420.800 C 285.350 420.800,285.600 420.530,285.600 420.200 C 285.600 419.870,285.849 419.600,286.153 419.600 C 286.458 419.600,286.801 419.240,286.916 418.800 C 287.031 418.360,287.412 418.000,287.763 418.000 C 288.204 418.000,288.400 417.631,288.400 416.800 C 288.400 416.000,288.600 415.600,289.000 415.600 C 289.333 415.600,289.600 415.244,289.600 414.800 C 289.600 414.267,289.867 414.000,290.400 414.000 C 290.840 414.000,291.200 413.749,291.200 413.443 C 291.200 413.136,291.470 412.782,291.800 412.655 C 292.151 412.521,292.400 411.921,292.400 411.213 C 292.400 410.267,292.576 410.000,293.200 410.000 C 293.640 410.000,294.000 409.749,294.000 409.443 C 294.000 409.136,294.270 408.782,294.600 408.655 C 294.930 408.529,295.200 408.149,295.200 407.813 C 295.200 407.476,295.470 407.200,295.800 407.200 C 296.219 407.200,296.400 406.778,296.400 405.800 C 296.400 404.667,296.552 404.400,297.200 404.400 C 297.644 404.400,298.000 404.133,298.000 403.800 C 298.000 403.470,298.270 403.200,298.600 403.200 C 298.930 403.200,299.200 402.936,299.200 402.614 C 299.200 402.292,299.560 401.835,300.000 401.600 C 300.468 401.350,300.800 400.762,300.800 400.186 C 300.800 399.576,301.029 399.200,301.400 399.200 C 301.733 399.200,302.000 398.844,302.000 398.400 C 302.000 397.960,302.200 397.600,302.444 397.600 C 303.321 397.600,304.786 395.791,304.793 394.700 C 304.798 393.992,305.014 393.600,305.400 393.600 C 305.730 393.600,306.000 393.351,306.000 393.047 C 306.000 392.742,306.360 392.399,306.800 392.284 C 307.240 392.169,307.600 391.788,307.600 391.437 C 307.600 391.087,307.870 390.800,308.200 390.800 C 308.619 390.800,308.800 390.378,308.800 389.400 C 308.800 388.267,308.952 388.000,309.600 388.000 C 310.044 388.000,310.400 387.733,310.400 387.400 C 310.400 387.070,310.670 386.800,311.000 386.800 C 311.333 386.800,311.600 386.444,311.600 386.000 C 311.600 385.560,311.856 385.200,312.168 385.200 C 312.481 385.200,312.855 384.660,313.000 384.000 C 313.145 383.340,313.519 382.800,313.832 382.800 C 314.144 382.800,314.400 382.440,314.400 382.000 C 314.400 381.556,314.667 381.200,315.000 381.200 C 315.330 381.200,315.600 380.951,315.600 380.647 C 315.600 380.342,315.960 379.999,316.400 379.884 C 316.983 379.732,317.200 379.338,317.200 378.437 C 317.200 377.604,317.396 377.200,317.800 377.200 C 318.130 377.200,318.400 376.951,318.400 376.647 C 318.400 376.342,318.760 375.999,319.200 375.884 C 319.640 375.769,320.000 375.407,320.000 375.080 C 320.000 374.753,320.270 374.382,320.600 374.255 C 320.951 374.121,321.200 373.521,321.200 372.813 C 321.200 371.867,321.376 371.600,322.000 371.600 C 322.444 371.600,322.800 371.333,322.800 371.000 C 322.800 370.670,323.070 370.400,323.400 370.400 C 323.733 370.400,324.000 370.044,324.000 369.600 C 324.000 369.156,324.267 368.800,324.600 368.800 C 324.995 368.800,325.200 368.405,325.200 367.647 C 325.200 366.830,325.433 366.432,326.000 366.284 C 326.440 366.169,326.800 365.788,326.800 365.437 C 326.800 365.087,327.070 364.800,327.400 364.800 C 327.730 364.800,328.000 364.620,328.000 364.400 C 328.000 364.180,328.360 363.640,328.800 363.200 C 329.240 362.760,329.600 362.040,329.600 361.600 C 329.600 361.156,329.867 360.800,330.200 360.800 C 330.533 360.800,330.800 360.444,330.800 360.000 C 330.800 359.556,331.067 359.200,331.400 359.200 C 331.730 359.200,332.000 358.951,332.000 358.647 C 332.000 358.342,332.360 357.999,332.800 357.884 C 333.383 357.732,333.600 357.338,333.600 356.437 C 333.600 355.604,333.796 355.200,334.200 355.200 C 334.530 355.200,334.800 354.951,334.800 354.647 C 334.800 354.342,335.160 353.999,335.600 353.884 C 336.040 353.769,336.400 353.388,336.400 353.037 C 336.400 352.687,336.670 352.400,337.000 352.400 C 337.419 352.400,337.600 351.978,337.600 351.000 C 337.600 349.867,337.752 349.600,338.400 349.600 C 338.844 349.600,339.200 349.333,339.200 349.000 C 339.200 348.670,339.470 348.400,339.800 348.400 C 340.130 348.400,340.400 348.124,340.400 347.787 C 340.400 347.451,340.670 347.071,341.000 346.945 C 341.342 346.813,341.600 346.217,341.600 345.557 C 341.600 344.667,341.784 344.400,342.400 344.400 C 342.933 344.400,343.200 344.133,343.200 343.600 C 343.200 343.156,343.467 342.800,343.800 342.800 C 344.130 342.800,344.400 342.530,344.400 342.200 C 344.400 341.870,344.651 341.600,344.957 341.600 C 345.569 341.600,346.000 340.759,346.000 339.567 C 346.000 339.145,346.270 338.800,346.600 338.800 C 346.930 338.800,347.200 338.551,347.200 338.247 C 347.200 337.942,347.560 337.599,348.000 337.484 C 348.440 337.369,348.800 336.988,348.800 336.637 C 348.800 336.287,349.070 336.000,349.400 336.000 C 349.819 336.000,350.000 335.578,350.000 334.600 C 350.000 333.622,350.181 333.200,350.600 333.200 C 350.930 333.200,351.200 332.930,351.200 332.600 C 351.200 332.267,351.556 332.000,352.000 332.000 C 352.533 332.000,352.800 331.733,352.800 331.200 C 352.800 330.756,353.067 330.400,353.400 330.400 C 353.795 330.400,354.000 330.005,354.000 329.247 C 354.000 328.430,354.233 328.032,354.800 327.884 C 355.240 327.769,355.600 327.388,355.600 327.037 C 355.600 326.687,355.870 326.400,356.200 326.400 C 356.530 326.400,356.800 326.130,356.800 325.800 C 356.800 325.470,357.062 325.200,357.382 325.200 C 357.730 325.200,358.069 324.638,358.226 323.800 C 358.377 322.998,358.726 322.400,359.045 322.400 C 359.350 322.400,359.600 322.149,359.600 321.843 C 359.600 321.536,359.870 321.182,360.200 321.055 C 360.530 320.929,360.800 320.570,360.800 320.259 C 360.800 319.948,361.160 319.599,361.600 319.484 C 362.183 319.332,362.400 318.938,362.400 318.037 C 362.400 317.204,362.596 316.800,363.000 316.800 C 363.330 316.800,363.600 316.530,363.600 316.200 C 363.600 315.870,363.851 315.600,364.157 315.600 C 364.769 315.600,365.200 314.759,365.200 313.567 C 365.200 313.145,365.470 312.800,365.800 312.800 C 366.130 312.800,366.400 312.524,366.400 312.187 C 366.400 311.851,366.659 311.476,366.976 311.354 C 367.292 311.233,367.666 310.608,367.807 309.967 C 367.948 309.325,368.319 308.800,368.632 308.800 C 368.944 308.800,369.200 308.440,369.200 308.000 C 369.200 307.556,369.467 307.200,369.800 307.200 C 370.195 307.200,370.400 306.805,370.400 306.047 C 370.400 305.230,370.633 304.832,371.200 304.684 C 371.783 304.532,372.000 304.138,372.000 303.237 C 372.000 302.404,372.196 302.000,372.600 302.000 C 372.933 302.000,373.200 301.644,373.200 301.200 C 373.200 300.760,373.451 300.400,373.757 300.400 C 374.369 300.400,374.800 299.559,374.800 298.367 C 374.800 297.945,375.070 297.600,375.400 297.600 C 375.800 297.600,376.000 297.200,376.000 296.400 C 376.000 295.600,376.200 295.200,376.600 295.200 C 377.019 295.200,377.200 294.778,377.200 293.800 C 377.200 292.667,377.352 292.400,378.000 292.400 C 378.648 292.400,378.800 292.133,378.800 291.000 C 378.800 290.022,378.981 289.600,379.400 289.600 C 379.819 289.600,380.000 289.178,380.000 288.200 C 380.000 287.067,380.152 286.800,380.800 286.800 C 381.448 286.800,381.600 286.533,381.600 285.400 C 381.600 284.422,381.781 284.000,382.200 284.000 C 382.615 284.000,382.800 283.583,382.800 282.647 C 382.800 281.630,382.999 281.241,383.600 281.084 C 384.183 280.932,384.400 280.538,384.400 279.637 C 384.400 278.804,384.596 278.400,385.000 278.400 C 385.453 278.400,385.600 277.911,385.600 276.400 C 385.600 274.889,385.747 274.400,386.200 274.400 C 386.615 274.400,386.800 273.983,386.800 273.047 C 386.800 272.030,386.999 271.641,387.600 271.484 C 388.254 271.313,388.400 270.938,388.400 269.437 C 388.400 268.071,388.554 267.600,389.000 267.600 C 389.451 267.600,389.600 267.116,389.600 265.647 C 389.600 264.030,389.738 263.657,390.400 263.484 C 391.050 263.314,391.200 262.938,391.200 261.480 C 391.200 260.254,391.390 259.613,391.800 259.455 C 392.223 259.293,392.400 258.632,392.400 257.213 C 392.400 255.766,392.556 255.200,392.953 255.200 C 393.620 255.200,393.987 253.981,393.995 251.743 C 393.998 250.643,394.202 250.008,394.600 249.855 C 395.049 249.683,395.200 248.966,395.200 247.013 C 395.200 244.957,395.328 244.400,395.800 244.400 C 396.286 244.400,396.400 243.761,396.400 241.047 C 396.400 238.030,396.480 237.672,397.200 237.484 C 397.942 237.290,398.000 236.938,398.000 232.637 C 398.000 228.782,398.101 228.000,398.600 228.000 C 399.110 228.000,399.200 226.978,399.200 221.200 C 399.200 216.933,399.349 214.400,399.600 214.400 C 399.858 214.400,400.000 210.000,400.000 202.000 C 400.000 194.000,399.858 189.600,399.600 189.600 C 399.348 189.600,399.200 186.862,399.200 182.187 C 399.200 175.968,399.103 174.738,398.600 174.545 C 398.116 174.359,398.000 173.442,398.000 169.784 C 398.000 165.605,397.938 165.234,397.200 165.000 C 396.471 164.769,396.400 164.395,396.400 160.773 C 396.400 157.508,396.293 156.800,395.800 156.800 C 395.324 156.800,395.200 156.222,395.200 154.000 C 395.200 151.778,395.076 151.200,394.600 151.200 C 394.132 151.200,394.000 150.663,394.000 148.763 C 394.000 146.662,393.890 146.296,393.200 146.116 C 392.498 145.932,392.400 145.570,392.400 143.153 C 392.400 140.973,392.275 140.400,391.800 140.400 C 391.347 140.400,391.200 139.911,391.200 138.400 C 391.200 136.667,391.093 136.400,390.400 136.400 C 389.706 136.400,389.600 136.133,389.600 134.387 C 389.600 132.968,389.423 132.307,389.000 132.145 C 388.590 131.987,388.400 131.346,388.400 130.120 C 388.400 128.662,388.250 128.286,387.600 128.116 C 386.999 127.959,386.800 127.570,386.800 126.553 C 386.800 125.617,386.615 125.200,386.200 125.200 C 385.755 125.200,385.600 124.732,385.600 123.387 C 385.600 122.145,385.411 121.502,385.000 121.345 C 384.652 121.211,384.400 120.613,384.400 119.920 C 384.400 119.062,384.175 118.666,383.600 118.516 C 382.999 118.359,382.800 117.970,382.800 116.953 C 382.800 116.017,382.615 115.600,382.200 115.600 C 381.796 115.600,381.600 115.196,381.600 114.363 C 381.600 113.462,381.383 113.068,380.800 112.916 C 380.233 112.768,380.000 112.370,380.000 111.553 C 380.000 110.795,379.795 110.400,379.400 110.400 C 378.981 110.400,378.800 109.978,378.800 109.000 C 378.800 107.867,378.648 107.600,378.000 107.600 C 377.352 107.600,377.200 107.333,377.200 106.200 C 377.200 105.222,377.019 104.800,376.600 104.800 C 376.181 104.800,376.000 104.378,376.000 103.400 C 376.000 102.422,375.819 102.000,375.400 102.000 C 374.996 102.000,374.800 101.596,374.800 100.763 C 374.800 99.862,374.583 99.468,374.000 99.316 C 373.442 99.170,373.200 98.770,373.200 97.996 C 373.200 97.378,372.934 96.784,372.600 96.655 C 372.270 96.529,372.000 96.149,372.000 95.813 C 372.000 95.467,371.652 95.200,371.200 95.200 C 370.552 95.200,370.400 94.933,370.400 93.800 C 370.400 92.822,370.219 92.400,369.800 92.400 C 369.470 92.400,369.200 92.130,369.200 91.800 C 369.200 91.470,368.930 91.200,368.600 91.200 C 368.196 91.200,368.000 90.796,368.000 89.963 C 368.000 89.062,367.783 88.668,367.200 88.516 C 366.757 88.400,366.400 87.970,366.400 87.553 C 366.400 87.139,366.153 86.800,365.850 86.800 C 365.548 86.800,365.192 86.260,365.060 85.600 C 364.919 84.896,364.568 84.400,364.210 84.400 C 363.867 84.400,363.600 84.050,363.600 83.600 C 363.600 83.156,363.333 82.800,363.000 82.800 C 362.670 82.800,362.400 82.530,362.400 82.200 C 362.400 81.867,362.044 81.600,361.600 81.600 C 360.952 81.600,360.800 81.333,360.800 80.200 C 360.800 79.222,360.619 78.800,360.200 78.800 C 359.870 78.800,359.600 78.524,359.600 78.187 C 359.600 77.851,359.330 77.471,359.000 77.345 C 358.670 77.218,358.400 76.864,358.400 76.557 C 358.400 76.251,358.040 76.000,357.600 76.000 C 356.976 76.000,356.800 75.733,356.800 74.787 C 356.800 74.079,356.551 73.479,356.200 73.345 C 355.870 73.218,355.600 72.864,355.600 72.557 C 355.600 72.251,355.240 72.000,354.800 72.000 C 354.267 72.000,354.000 71.733,354.000 71.200 C 354.000 70.756,353.733 70.400,353.400 70.400 C 353.070 70.400,352.800 70.130,352.800 69.800 C 352.800 69.467,352.444 69.200,352.000 69.200 C 351.467 69.200,351.200 68.933,351.200 68.400 C 351.200 67.956,350.933 67.600,350.600 67.600 C 350.270 67.600,350.000 67.330,350.000 67.000 C 350.000 66.670,349.738 66.400,349.418 66.400 C 349.070 66.400,348.731 65.838,348.574 65.000 C 348.423 64.198,348.074 63.600,347.755 63.600 C 347.450 63.600,347.200 63.330,347.200 63.000 C 347.200 62.670,347.028 62.400,346.818 62.400 C 346.322 62.400,344.400 60.478,344.400 59.982 C 344.400 59.772,344.130 59.600,343.800 59.600 C 343.470 59.600,343.200 59.330,343.200 59.000 C 343.200 58.667,342.844 58.400,342.400 58.400 C 341.867 58.400,341.600 58.133,341.600 57.600 C 341.600 57.156,341.333 56.800,341.000 56.800 C 340.670 56.800,340.400 56.530,340.400 56.200 C 340.400 55.867,340.044 55.600,339.600 55.600 C 339.148 55.600,338.800 55.333,338.800 54.987 C 338.800 54.651,338.530 54.271,338.200 54.145 C 337.870 54.018,337.600 53.664,337.600 53.357 C 337.600 53.051,337.420 52.800,337.200 52.800 C 336.980 52.800,336.440 52.440,336.000 52.000 C 335.560 51.560,334.840 51.200,334.400 51.200 C 333.956 51.200,333.600 50.933,333.600 50.600 C 333.600 50.267,333.244 50.000,332.800 50.000 C 332.356 50.000,332.000 49.733,332.000 49.400 C 332.000 49.070,331.730 48.800,331.400 48.800 C 331.067 48.800,330.800 48.444,330.800 48.000 C 330.800 47.556,330.533 47.200,330.200 47.200 C 329.870 47.200,329.600 46.930,329.600 46.600 C 329.600 46.267,329.244 46.000,328.800 46.000 C 328.267 46.000,328.000 45.733,328.000 45.200 C 328.000 44.760,327.749 44.400,327.443 44.400 C 327.136 44.400,326.782 44.130,326.655 43.800 C 326.521 43.449,325.921 43.200,325.213 43.200 C 324.513 43.200,323.997 42.989,323.993 42.700 C 323.985 42.090,322.258 40.400,321.644 40.400 C 321.400 40.400,321.200 40.130,321.200 39.800 C 321.200 39.381,320.778 39.200,319.800 39.200 C 318.667 39.200,318.400 39.048,318.400 38.400 C 318.400 37.956,318.133 37.600,317.800 37.600 C 317.470 37.600,317.200 37.330,317.200 37.000 C 317.200 36.670,316.861 36.400,316.447 36.400 C 316.030 36.400,315.600 36.043,315.484 35.600 C 315.343 35.059,314.938 34.800,314.237 34.800 C 313.582 34.800,313.200 34.579,313.200 34.200 C 313.200 33.867,312.844 33.600,312.400 33.600 C 311.960 33.600,311.600 33.338,311.600 33.018 C 311.600 32.670,311.038 32.331,310.200 32.174 C 309.398 32.023,308.800 31.674,308.800 31.355 C 308.800 31.050,308.549 30.800,308.243 30.800 C 307.936 30.800,307.582 30.530,307.455 30.200 C 307.321 29.849,306.721 29.600,306.013 29.600 C 305.067 29.600,304.800 29.424,304.800 28.800 C 304.800 28.152,304.533 28.000,303.400 28.000 C 302.422 28.000,302.000 27.819,302.000 27.400 C 302.000 27.070,301.773 26.800,301.496 26.800 C 301.219 26.800,300.768 26.440,300.493 26.000 C 300.210 25.548,299.560 25.200,298.997 25.200 C 298.377 25.200,298.000 24.973,298.000 24.600 C 298.000 24.181,297.578 24.000,296.600 24.000 C 295.642 24.000,295.200 23.816,295.200 23.418 C 295.200 23.070,294.638 22.731,293.800 22.574 C 292.998 22.423,292.400 22.074,292.400 21.755 C 292.400 21.387,291.928 21.200,291.000 21.200 C 290.022 21.200,289.600 21.019,289.600 20.600 C 289.600 20.181,289.178 20.000,288.200 20.000 C 287.067 20.000,286.800 19.848,286.800 19.200 C 286.800 18.584,286.533 18.400,285.643 18.400 C 284.983 18.400,284.387 18.142,284.255 17.800 C 284.129 17.470,283.569 17.200,283.013 17.200 C 282.456 17.200,281.640 16.840,281.200 16.400 C 280.667 15.867,279.867 15.600,278.800 15.600 C 277.644 15.600,277.200 15.433,277.200 15.000 C 277.200 14.605,276.805 14.400,276.043 14.400 C 275.383 14.400,274.787 14.142,274.655 13.800 C 274.493 13.377,273.832 13.200,272.413 13.200 C 270.667 13.200,270.400 13.094,270.400 12.400 C 270.400 11.707,270.133 11.600,268.400 11.600 C 266.889 11.600,266.400 11.453,266.400 11.000 C 266.400 10.585,265.983 10.400,265.047 10.400 C 264.030 10.400,263.641 10.201,263.484 9.600 C 263.304 8.912,262.938 8.800,260.880 8.800 C 259.121 8.800,258.425 8.641,258.255 8.200 C 258.093 7.777,257.432 7.600,256.013 7.600 C 254.559 7.600,254.000 7.445,254.000 7.043 C 254.000 6.291,253.109 6.000,250.810 6.000 C 249.468 6.000,248.816 5.818,248.655 5.400 C 248.483 4.951,247.766 4.800,245.813 4.800 C 243.757 4.800,243.200 4.672,243.200 4.200 C 243.200 3.714,242.561 3.600,239.847 3.600 C 236.830 3.600,236.472 3.520,236.284 2.800 C 236.092 2.067,235.738 2.000,232.037 2.000 C 228.715 2.000,228.000 1.894,228.000 1.400 C 228.000 0.890,226.978 0.800,221.200 0.800 C 216.933 0.800,214.400 0.651,214.400 0.400 C 214.400 0.141,209.333 0.000,200.000 0.000 C 190.667 0.000,185.600 0.141,185.600 0.400 M216.000 69.800 C 216.000 70.298,216.773 70.400,220.553 70.400 C 224.770 70.400,225.122 70.459,225.316 71.200 C 225.498 71.898,225.862 72.000,228.163 72.000 C 230.240 72.000,230.800 72.127,230.800 72.600 C 230.800 73.075,231.373 73.200,233.553 73.200 C 235.970 73.200,236.332 73.298,236.516 74.000 C 236.687 74.654,237.062 74.800,238.563 74.800 C 239.929 74.800,240.400 74.954,240.400 75.400 C 240.400 75.853,240.889 76.000,242.400 76.000 C 243.911 76.000,244.400 76.147,244.400 76.600 C 244.400 77.015,244.817 77.200,245.753 77.200 C 246.770 77.200,247.159 77.399,247.316 78.000 C 247.486 78.650,247.862 78.800,249.320 78.800 C 250.546 78.800,251.187 78.990,251.345 79.400 C 251.476 79.743,252.073 80.000,252.741 80.000 C 253.570 80.000,253.967 80.231,254.116 80.800 C 254.268 81.383,254.662 81.600,255.563 81.600 C 256.396 81.600,256.800 81.796,256.800 82.200 C 256.800 82.619,257.222 82.800,258.200 82.800 C 259.178 82.800,259.600 82.981,259.600 83.400 C 259.600 83.819,260.022 84.000,261.000 84.000 C 262.133 84.000,262.400 84.152,262.400 84.800 C 262.400 85.448,262.667 85.600,263.800 85.600 C 264.778 85.600,265.200 85.781,265.200 86.200 C 265.200 86.530,265.449 86.800,265.753 86.800 C 266.058 86.800,266.401 87.160,266.516 87.600 C 266.668 88.183,267.062 88.400,267.963 88.400 C 268.796 88.400,269.200 88.596,269.200 89.000 C 269.200 89.330,269.476 89.600,269.813 89.600 C 270.149 89.600,270.524 89.859,270.646 90.176 C 270.767 90.492,271.392 90.866,272.033 91.007 C 272.675 91.148,273.200 91.519,273.200 91.832 C 273.200 92.144,273.560 92.400,274.000 92.400 C 274.444 92.400,274.800 92.667,274.800 93.000 C 274.800 93.419,275.222 93.600,276.200 93.600 C 277.333 93.600,277.600 93.752,277.600 94.400 C 277.600 94.844,277.867 95.200,278.200 95.200 C 278.530 95.200,278.800 95.470,278.800 95.800 C 278.800 96.130,279.064 96.400,279.386 96.400 C 279.708 96.400,280.165 96.760,280.400 97.200 C 280.650 97.668,281.238 98.000,281.814 98.000 C 282.424 98.000,282.800 98.229,282.800 98.600 C 282.800 98.933,283.156 99.200,283.600 99.200 C 284.133 99.200,284.400 99.467,284.400 100.000 C 284.400 100.444,284.667 100.800,285.000 100.800 C 285.330 100.800,285.600 101.070,285.600 101.400 C 285.600 101.733,285.956 102.000,286.400 102.000 C 286.844 102.000,287.200 102.267,287.200 102.600 C 287.200 102.930,287.470 103.200,287.800 103.200 C 288.133 103.200,288.400 103.556,288.400 104.000 C 288.400 104.452,288.667 104.800,289.013 104.800 C 289.349 104.800,289.729 105.070,289.855 105.400 C 289.982 105.730,290.336 106.000,290.643 106.000 C 290.949 106.000,291.200 106.171,291.200 106.379 C 291.200 106.930,293.012 108.800,293.546 108.800 C 293.796 108.800,294.000 109.076,294.000 109.413 C 294.000 109.749,294.270 110.129,294.600 110.255 C 294.930 110.382,295.200 110.736,295.200 111.043 C 295.200 111.349,295.451 111.600,295.757 111.600 C 296.064 111.600,296.418 111.870,296.545 112.200 C 296.671 112.530,297.051 112.800,297.387 112.800 C 297.733 112.800,298.000 113.148,298.000 113.600 C 298.000 114.044,298.267 114.400,298.600 114.400 C 298.930 114.400,299.200 114.670,299.200 115.000 C 299.200 115.333,299.556 115.600,300.000 115.600 C 300.533 115.600,300.800 115.867,300.800 116.400 C 300.800 116.844,301.067 117.200,301.400 117.200 C 301.779 117.200,302.000 117.582,302.000 118.237 C 302.000 118.938,302.259 119.343,302.800 119.484 C 303.243 119.600,303.600 120.030,303.600 120.447 C 303.600 120.861,303.870 121.200,304.200 121.200 C 304.530 121.200,304.800 121.470,304.800 121.800 C 304.800 122.130,305.050 122.400,305.355 122.400 C 305.674 122.400,306.023 122.998,306.174 123.800 C 306.331 124.638,306.670 125.200,307.018 125.200 C 307.338 125.200,307.600 125.476,307.600 125.813 C 307.600 126.149,307.870 126.529,308.200 126.655 C 308.530 126.782,308.800 127.333,308.800 127.880 C 308.800 128.538,309.071 128.946,309.600 129.084 C 310.043 129.200,310.400 129.630,310.400 130.047 C 310.400 130.461,310.670 130.800,311.000 130.800 C 311.404 130.800,311.600 131.204,311.600 132.037 C 311.600 132.938,311.817 133.332,312.400 133.484 C 312.967 133.632,313.200 134.030,313.200 134.847 C 313.200 135.605,313.405 136.000,313.800 136.000 C 314.133 136.000,314.400 136.356,314.400 136.800 C 314.400 137.244,314.667 137.600,315.000 137.600 C 315.404 137.600,315.600 138.004,315.600 138.837 C 315.600 139.738,315.817 140.132,316.400 140.284 C 317.001 140.441,317.200 140.830,317.200 141.847 C 317.200 142.783,317.385 143.200,317.800 143.200 C 318.204 143.200,318.400 143.604,318.400 144.437 C 318.400 145.338,318.617 145.732,319.200 145.884 C 319.848 146.053,320.000 146.430,320.000 147.859 C 320.000 149.060,320.192 149.699,320.600 149.855 C 320.948 149.989,321.200 150.587,321.200 151.280 C 321.200 152.138,321.425 152.534,322.000 152.684 C 322.662 152.857,322.800 153.230,322.800 154.847 C 322.800 156.316,322.949 156.800,323.400 156.800 C 323.853 156.800,324.000 157.289,324.000 158.800 C 324.000 160.311,324.147 160.800,324.600 160.800 C 325.016 160.800,325.200 161.219,325.200 162.167 C 325.200 163.929,325.545 164.800,326.243 164.800 C 326.652 164.800,326.800 165.386,326.800 167.000 C 326.800 168.689,326.939 169.200,327.400 169.200 C 327.884 169.200,328.000 169.826,328.000 172.437 C 328.000 175.338,328.083 175.697,328.800 175.884 C 329.532 176.076,329.600 176.430,329.600 180.047 C 329.600 183.294,329.707 184.000,330.200 184.000 C 330.723 184.000,330.800 186.022,330.800 199.800 C 330.800 213.578,330.723 215.600,330.200 215.600 C 329.705 215.600,329.600 216.328,329.600 219.753 C 329.600 223.570,329.535 223.924,328.800 224.116 C 328.083 224.303,328.000 224.662,328.000 227.563 C 328.000 230.174,327.884 230.800,327.400 230.800 C 326.929 230.800,326.800 231.350,326.800 233.353 C 326.800 235.570,326.695 235.934,326.000 236.116 C 325.332 236.291,325.200 236.662,325.200 238.363 C 325.200 239.907,325.055 240.400,324.600 240.400 C 324.147 240.400,324.000 240.889,324.000 242.400 C 324.000 243.911,323.853 244.400,323.400 244.400 C 322.985 244.400,322.800 244.817,322.800 245.753 C 322.800 246.770,322.601 247.159,322.000 247.316 C 321.346 247.487,321.200 247.862,321.200 249.363 C 321.200 250.729,321.046 251.200,320.600 251.200 C 320.181 251.200,320.000 251.622,320.000 252.600 C 320.000 253.733,319.848 254.000,319.200 254.000 C 318.552 254.000,318.400 254.267,318.400 255.400 C 318.400 256.378,318.219 256.800,317.800 256.800 C 317.381 256.800,317.200 257.222,317.200 258.200 C 317.200 259.333,317.048 259.600,316.400 259.600 C 315.776 259.600,315.600 259.867,315.600 260.813 C 315.600 261.521,315.351 262.121,315.000 262.255 C 314.658 262.387,314.400 262.983,314.400 263.643 C 314.400 264.405,314.195 264.800,313.800 264.800 C 313.470 264.800,313.200 265.139,313.200 265.553 C 313.200 265.970,312.843 266.400,312.400 266.516 C 311.817 266.668,311.600 267.062,311.600 267.963 C 311.600 268.796,311.404 269.200,311.000 269.200 C 310.670 269.200,310.400 269.470,310.400 269.800 C 310.400 270.130,310.149 270.400,309.843 270.400 C 309.231 270.400,308.800 271.241,308.800 272.433 C 308.800 272.855,308.530 273.200,308.200 273.200 C 307.870 273.200,307.600 273.451,307.600 273.757 C 307.600 274.064,307.347 274.412,307.038 274.530 C 306.728 274.649,306.354 275.298,306.206 275.973 C 306.058 276.648,305.681 277.200,305.368 277.200 C 305.056 277.200,304.800 277.560,304.800 278.000 C 304.800 278.444,304.533 278.800,304.200 278.800 C 303.870 278.800,303.600 279.049,303.600 279.353 C 303.600 279.658,303.240 280.001,302.800 280.116 C 302.217 280.268,302.000 280.662,302.000 281.563 C 302.000 282.396,301.804 282.800,301.400 282.800 C 301.070 282.800,300.800 283.070,300.800 283.400 C 300.800 283.733,300.444 284.000,300.000 284.000 C 299.467 284.000,299.200 284.267,299.200 284.800 C 299.200 285.244,298.933 285.600,298.600 285.600 C 298.270 285.600,298.000 285.870,298.000 286.200 C 298.000 286.530,297.742 286.800,297.427 286.800 C 297.112 286.800,296.740 287.160,296.600 287.600 C 296.460 288.040,296.088 288.400,295.773 288.400 C 295.458 288.400,295.200 288.670,295.200 289.000 C 295.200 289.330,294.930 289.600,294.600 289.600 C 294.270 289.600,294.000 289.858,294.000 290.173 C 294.000 290.488,293.640 290.860,293.200 291.000 C 292.760 291.140,292.400 291.512,292.400 291.827 C 292.400 292.142,292.130 292.400,291.800 292.400 C 291.470 292.400,291.200 292.670,291.200 293.000 C 291.200 293.330,290.942 293.600,290.627 293.600 C 290.312 293.600,289.940 293.960,289.800 294.400 C 289.660 294.840,289.288 295.200,288.973 295.200 C 288.658 295.200,288.400 295.470,288.400 295.800 C 288.400 296.130,288.130 296.400,287.800 296.400 C 287.470 296.400,287.200 296.670,287.200 297.000 C 287.200 297.330,286.913 297.600,286.563 297.600 C 286.212 297.600,285.831 297.960,285.716 298.400 C 285.601 298.840,285.258 299.200,284.953 299.200 C 284.649 299.200,284.400 299.470,284.400 299.800 C 284.400 300.133,284.044 300.400,283.600 300.400 C 283.067 300.400,282.800 300.667,282.800 301.200 C 282.800 301.816,282.533 302.000,281.643 302.000 C 280.983 302.000,280.387 302.258,280.255 302.600 C 280.129 302.930,279.749 303.200,279.413 303.200 C 279.067 303.200,278.800 303.548,278.800 304.000 C 278.800 304.444,278.533 304.800,278.200 304.800 C 277.870 304.800,277.600 305.070,277.600 305.400 C 277.600 305.819,277.178 306.000,276.200 306.000 C 275.222 306.000,274.800 306.181,274.800 306.600 C 274.800 306.930,274.513 307.200,274.163 307.200 C 273.812 307.200,273.431 307.560,273.316 308.000 C 273.168 308.567,272.770 308.800,271.953 308.800 C 271.195 308.800,270.800 309.005,270.800 309.400 C 270.800 309.733,270.444 310.000,270.000 310.000 C 269.467 310.000,269.200 310.267,269.200 310.800 C 269.200 311.448,268.933 311.600,267.800 311.600 C 266.822 311.600,266.400 311.781,266.400 312.200 C 266.400 312.597,266.003 312.800,265.227 312.800 C 264.405 312.800,263.978 313.040,263.800 313.600 C 263.660 314.040,263.288 314.400,262.973 314.400 C 262.658 314.400,262.400 314.670,262.400 315.000 C 262.400 315.419,261.978 315.600,261.000 315.600 C 260.022 315.600,259.600 315.781,259.600 316.200 C 259.600 316.604,259.196 316.800,258.363 316.800 C 257.462 316.800,257.068 317.017,256.916 317.600 C 256.759 318.201,256.370 318.400,255.353 318.400 C 254.417 318.400,254.000 318.585,254.000 319.000 C 254.000 319.446,253.529 319.600,252.163 319.600 C 250.662 319.600,250.287 319.746,250.116 320.400 C 249.959 321.001,249.570 321.200,248.553 321.200 C 247.617 321.200,247.200 321.385,247.200 321.800 C 247.200 322.245,246.732 322.400,245.387 322.400 C 244.216 322.400,243.500 322.595,243.363 322.952 C 243.245 323.260,242.282 323.619,241.176 323.765 C 239.826 323.945,239.200 324.213,239.200 324.614 C 239.200 325.051,238.689 325.200,237.187 325.200 C 235.768 325.200,235.107 325.377,234.945 325.800 C 234.784 326.218,234.132 326.400,232.790 326.400 C 230.491 326.400,229.600 326.691,229.600 327.443 C 229.600 327.866,228.927 328.000,226.800 328.000 C 224.578 328.000,224.000 328.124,224.000 328.600 C 224.000 329.094,223.285 329.200,219.963 329.200 C 216.262 329.200,215.908 329.267,215.716 330.000 C 215.387 331.259,182.800 331.259,182.800 330.000 C 182.800 329.253,182.533 329.200,178.800 329.200 C 175.511 329.200,174.800 329.093,174.800 328.600 C 174.800 328.125,174.227 328.000,172.047 328.000 C 169.630 328.000,169.268 327.902,169.084 327.200 C 168.902 326.502,168.538 326.400,166.237 326.400 C 164.160 326.400,163.600 326.273,163.600 325.800 C 163.600 325.347,163.111 325.200,161.600 325.200 C 160.164 325.200,159.600 325.044,159.600 324.647 C 159.600 324.040,158.413 323.614,156.700 323.605 C 155.991 323.602,155.600 323.387,155.600 323.000 C 155.600 322.585,155.183 322.400,154.243 322.400 C 153.405 322.400,152.797 322.170,152.655 321.800 C 152.499 321.392,151.860 321.200,150.659 321.200 C 149.230 321.200,148.853 321.048,148.684 320.400 C 148.532 319.817,148.138 319.600,147.237 319.600 C 146.404 319.600,146.000 319.404,146.000 319.000 C 146.000 318.585,145.583 318.400,144.647 318.400 C 143.630 318.400,143.241 318.201,143.084 317.600 C 142.932 317.017,142.538 316.800,141.637 316.800 C 140.804 316.800,140.400 316.604,140.400 316.200 C 140.400 315.781,139.978 315.600,139.000 315.600 C 138.022 315.600,137.600 315.419,137.600 315.000 C 137.600 314.581,137.178 314.400,136.200 314.400 C 135.067 314.400,134.800 314.248,134.800 313.600 C 134.800 313.160,134.549 312.800,134.243 312.800 C 133.936 312.800,133.582 312.530,133.455 312.200 C 133.321 311.849,132.721 311.600,132.013 311.600 C 131.067 311.600,130.800 311.424,130.800 310.800 C 130.800 310.152,130.533 310.000,129.400 310.000 C 128.422 310.000,128.000 309.819,128.000 309.400 C 128.000 309.070,127.751 308.800,127.447 308.800 C 127.142 308.800,126.799 308.440,126.684 308.000 C 126.569 307.560,126.188 307.200,125.837 307.200 C 125.487 307.200,125.200 306.930,125.200 306.600 C 125.200 306.200,124.800 306.000,124.000 306.000 C 123.200 306.000,122.800 305.800,122.800 305.400 C 122.800 305.067,122.444 304.800,122.000 304.800 C 121.467 304.800,121.200 304.533,121.200 304.000 C 121.200 303.548,120.933 303.200,120.587 303.200 C 120.251 303.200,119.871 302.930,119.745 302.600 C 119.613 302.258,119.017 302.000,118.357 302.000 C 117.467 302.000,117.200 301.816,117.200 301.200 C 117.200 300.667,116.933 300.400,116.400 300.400 C 115.956 300.400,115.600 300.133,115.600 299.800 C 115.600 299.470,115.330 299.200,115.000 299.200 C 114.670 299.200,114.400 299.029,114.400 298.821 C 114.400 298.270,112.588 296.400,112.054 296.400 C 111.804 296.400,111.600 296.130,111.600 295.800 C 111.600 295.470,111.342 295.200,111.027 295.200 C 110.712 295.200,110.340 294.840,110.200 294.400 C 110.060 293.960,109.688 293.600,109.373 293.600 C 109.058 293.600,108.800 293.330,108.800 293.000 C 108.800 292.670,108.530 292.400,108.200 292.400 C 107.870 292.400,107.600 292.142,107.600 291.827 C 107.600 291.512,107.240 291.140,106.800 291.000 C 106.360 290.860,106.000 290.488,106.000 290.173 C 106.000 289.858,105.730 289.600,105.400 289.600 C 105.070 289.600,104.800 289.330,104.800 289.000 C 104.800 288.670,104.551 288.400,104.247 288.400 C 103.942 288.400,103.599 288.040,103.484 287.600 C 103.369 287.160,102.988 286.800,102.637 286.800 C 102.287 286.800,102.000 286.530,102.000 286.200 C 102.000 285.870,101.730 285.600,101.400 285.600 C 101.067 285.600,100.800 285.244,100.800 284.800 C 100.800 284.267,100.533 284.000,100.000 284.000 C 99.556 284.000,99.200 283.733,99.200 283.400 C 99.200 283.070,98.930 282.800,98.600 282.800 C 98.196 282.800,98.000 282.396,98.000 281.563 C 98.000 280.662,97.783 280.268,97.200 280.116 C 96.760 280.001,96.400 279.658,96.400 279.353 C 96.400 279.049,96.130 278.800,95.800 278.800 C 95.467 278.800,95.200 278.444,95.200 278.000 C 95.200 277.560,94.944 277.200,94.632 277.200 C 94.319 277.200,93.942 276.648,93.794 275.973 C 93.646 275.298,93.272 274.649,92.962 274.530 C 92.653 274.412,92.400 274.064,92.400 273.757 C 92.400 273.451,92.130 273.200,91.800 273.200 C 91.470 273.200,91.200 272.855,91.200 272.433 C 91.200 271.241,90.769 270.400,90.157 270.400 C 89.851 270.400,89.600 270.130,89.600 269.800 C 89.600 269.470,89.330 269.200,89.000 269.200 C 88.581 269.200,88.400 268.778,88.400 267.800 C 88.400 266.667,88.248 266.400,87.600 266.400 C 87.067 266.400,86.800 266.133,86.800 265.600 C 86.800 265.156,86.533 264.800,86.200 264.800 C 85.799 264.800,85.600 264.399,85.600 263.587 C 85.600 262.879,85.351 262.279,85.000 262.145 C 84.658 262.013,84.400 261.417,84.400 260.757 C 84.400 259.867,84.216 259.600,83.600 259.600 C 82.952 259.600,82.800 259.333,82.800 258.200 C 82.800 257.222,82.619 256.800,82.200 256.800 C 81.781 256.800,81.600 256.378,81.600 255.400 C 81.600 254.267,81.448 254.000,80.800 254.000 C 80.152 254.000,80.000 253.733,80.000 252.600 C 80.000 251.622,79.819 251.200,79.400 251.200 C 78.947 251.200,78.800 250.711,78.800 249.200 C 78.800 247.467,78.693 247.200,78.000 247.200 C 77.307 247.200,77.200 246.933,77.200 245.200 C 77.200 243.689,77.053 243.200,76.600 243.200 C 76.181 243.200,76.000 242.778,76.000 241.800 C 76.000 240.822,75.819 240.400,75.400 240.400 C 74.940 240.400,74.800 239.893,74.800 238.233 C 74.800 235.698,74.527 234.800,73.757 234.800 C 73.355 234.800,73.200 234.243,73.200 232.800 C 73.200 231.289,73.053 230.800,72.600 230.800 C 72.114 230.800,72.000 230.156,72.000 227.400 C 72.000 224.267,71.937 224.000,71.200 224.000 C 70.451 224.000,70.400 223.733,70.400 219.800 C 70.400 216.333,70.295 215.600,69.800 215.600 C 69.276 215.600,69.200 213.511,69.200 199.200 C 69.200 184.889,69.276 182.800,69.800 182.800 C 70.295 182.800,70.400 182.067,70.400 178.600 C 70.400 174.667,70.451 174.400,71.200 174.400 C 71.917 174.400,72.000 174.133,72.000 171.843 C 72.000 169.939,72.153 169.227,72.600 169.055 C 73.047 168.884,73.200 168.171,73.200 166.259 C 73.200 164.030,73.305 163.666,74.000 163.484 C 74.654 163.313,74.800 162.938,74.800 161.437 C 74.800 160.071,74.954 159.600,75.400 159.600 C 75.861 159.600,76.000 159.089,76.000 157.400 C 76.000 155.711,76.139 155.200,76.600 155.200 C 77.004 155.200,77.200 154.796,77.200 153.963 C 77.200 153.062,77.417 152.668,78.000 152.516 C 78.662 152.343,78.800 151.970,78.800 150.353 C 78.800 148.884,78.949 148.400,79.400 148.400 C 79.797 148.400,80.000 148.003,80.000 147.227 C 80.000 146.405,80.240 145.978,80.800 145.800 C 81.351 145.625,81.600 145.195,81.600 144.416 C 81.600 143.780,81.863 143.185,82.200 143.055 C 82.551 142.921,82.800 142.321,82.800 141.613 C 82.800 140.843,83.003 140.400,83.357 140.400 C 83.969 140.400,84.400 139.559,84.400 138.367 C 84.400 137.945,84.670 137.600,85.000 137.600 C 85.419 137.600,85.600 137.178,85.600 136.200 C 85.600 135.222,85.781 134.800,86.200 134.800 C 86.530 134.800,86.800 134.542,86.800 134.227 C 86.800 133.912,87.160 133.540,87.600 133.400 C 88.160 133.222,88.400 132.795,88.400 131.973 C 88.400 131.197,88.603 130.800,89.000 130.800 C 89.419 130.800,89.600 130.378,89.600 129.400 C 89.600 128.267,89.752 128.000,90.400 128.000 C 90.840 128.000,91.200 127.749,91.200 127.443 C 91.200 127.136,91.470 126.782,91.800 126.655 C 92.130 126.529,92.400 126.149,92.400 125.813 C 92.400 125.476,92.662 125.200,92.982 125.200 C 93.330 125.200,93.669 124.638,93.826 123.800 C 93.977 122.998,94.326 122.400,94.645 122.400 C 94.950 122.400,95.200 122.130,95.200 121.800 C 95.200 121.470,95.470 121.200,95.800 121.200 C 96.130 121.200,96.400 120.861,96.400 120.447 C 96.400 120.030,96.757 119.600,97.200 119.484 C 97.741 119.343,98.000 118.938,98.000 118.237 C 98.000 117.582,98.221 117.200,98.600 117.200 C 98.933 117.200,99.200 116.844,99.200 116.400 C 99.200 115.867,99.467 115.600,100.000 115.600 C 100.444 115.600,100.800 115.333,100.800 115.000 C 100.800 114.670,101.070 114.400,101.400 114.400 C 101.733 114.400,102.000 114.044,102.000 113.600 C 102.000 113.160,102.225 112.797,102.500 112.793 C 103.110 112.785,104.800 111.058,104.800 110.444 C 104.800 110.200,105.070 110.000,105.400 110.000 C 105.730 110.000,106.000 109.730,106.000 109.400 C 106.000 109.070,106.204 108.800,106.454 108.800 C 106.988 108.800,108.800 106.930,108.800 106.379 C 108.800 106.171,109.051 106.000,109.357 106.000 C 109.664 106.000,110.018 105.730,110.145 105.400 C 110.271 105.070,110.651 104.800,110.987 104.800 C 111.333 104.800,111.600 104.452,111.600 104.000 C 111.600 103.548,111.867 103.200,112.213 103.200 C 112.549 103.200,112.929 102.930,113.055 102.600 C 113.182 102.270,113.536 102.000,113.843 102.000 C 114.149 102.000,114.400 101.730,114.400 101.400 C 114.400 101.070,114.670 100.800,115.000 100.800 C 115.333 100.800,115.600 100.444,115.600 100.000 C 115.600 99.467,115.867 99.200,116.400 99.200 C 116.844 99.200,117.200 98.933,117.200 98.600 C 117.200 98.229,117.576 98.000,118.186 98.000 C 118.762 98.000,119.350 97.668,119.600 97.200 C 119.835 96.760,120.292 96.400,120.614 96.400 C 120.936 96.400,121.200 96.151,121.200 95.847 C 121.200 95.542,121.560 95.199,122.000 95.084 C 122.440 94.969,122.800 94.588,122.800 94.237 C 122.800 93.796,123.169 93.600,124.000 93.600 C 124.800 93.600,125.200 93.400,125.200 93.000 C 125.200 92.667,125.556 92.400,126.000 92.400 C 126.440 92.400,126.800 92.144,126.800 91.832 C 126.800 91.519,127.325 91.148,127.967 91.007 C 128.608 90.866,129.233 90.492,129.354 90.176 C 129.476 89.859,129.851 89.600,130.187 89.600 C 130.524 89.600,130.800 89.330,130.800 89.000 C 130.800 88.596,131.204 88.400,132.037 88.400 C 132.938 88.400,133.332 88.183,133.484 87.600 C 133.633 87.031,134.030 86.800,134.859 86.800 C 135.527 86.800,136.124 86.543,136.255 86.200 C 136.382 85.870,136.736 85.600,137.043 85.600 C 137.349 85.600,137.600 85.240,137.600 84.800 C 137.600 84.152,137.867 84.000,139.000 84.000 C 139.978 84.000,140.400 83.819,140.400 83.400 C 140.400 82.981,140.822 82.800,141.800 82.800 C 142.778 82.800,143.200 82.619,143.200 82.200 C 143.200 81.796,143.604 81.600,144.437 81.600 C 145.338 81.600,145.732 81.383,145.884 80.800 C 146.053 80.152,146.430 80.000,147.859 80.000 C 149.060 80.000,149.699 79.808,149.855 79.400 C 149.989 79.052,150.587 78.800,151.280 78.800 C 152.138 78.800,152.534 78.575,152.684 78.000 C 152.857 77.338,153.230 77.200,154.847 77.200 C 156.316 77.200,156.800 77.051,156.800 76.600 C 156.800 76.147,157.289 76.000,158.800 76.000 C 160.311 76.000,160.800 75.853,160.800 75.400 C 160.800 74.956,161.266 74.800,162.597 74.800 C 163.960 74.800,164.514 74.607,164.893 74.000 C 165.306 73.338,165.826 73.200,167.896 73.200 C 169.855 73.200,170.400 73.069,170.400 72.600 C 170.400 72.127,170.960 72.000,173.037 72.000 C 175.338 72.000,175.702 71.898,175.884 71.200 C 176.076 70.468,176.430 70.400,180.059 70.400 C 183.215 70.400,184.072 70.278,184.255 69.800 C 184.455 69.281,186.605 69.200,200.243 69.200 C 213.983 69.200,216.000 69.277,216.000 69.800 M189.600 134.200 C 189.600 134.686,188.956 134.800,186.200 134.800 C 183.067 134.800,182.800 134.863,182.800 135.600 C 182.800 136.318,182.533 136.400,180.200 136.400 C 178.156 136.400,177.600 136.528,177.600 137.000 C 177.600 137.461,177.089 137.600,175.400 137.600 C 173.711 137.600,173.200 137.739,173.200 138.200 C 173.200 138.587,172.809 138.802,172.100 138.805 C 170.387 138.814,169.200 139.240,169.200 139.847 C 169.200 140.196,168.753 140.400,167.987 140.400 C 167.279 140.400,166.679 140.649,166.545 141.000 C 166.418 141.330,166.064 141.600,165.757 141.600 C 165.451 141.600,165.200 141.960,165.200 142.400 C 165.200 143.048,164.933 143.200,163.800 143.200 C 162.822 143.200,162.400 143.381,162.400 143.800 C 162.400 144.204,161.996 144.400,161.163 144.400 C 160.262 144.400,159.868 144.617,159.716 145.200 C 159.601 145.640,159.258 146.000,158.953 146.000 C 158.649 146.000,158.400 146.270,158.400 146.600 C 158.400 146.933,158.044 147.200,157.600 147.200 C 157.156 147.200,156.800 147.467,156.800 147.800 C 156.800 148.133,156.444 148.400,156.000 148.400 C 155.560 148.400,154.840 148.760,154.400 149.200 C 153.960 149.640,153.420 150.000,153.200 150.000 C 152.980 150.000,152.800 150.270,152.800 150.600 C 152.800 150.930,152.542 151.200,152.227 151.200 C 151.912 151.200,151.540 151.560,151.400 152.000 C 151.260 152.440,150.888 152.800,150.573 152.800 C 150.258 152.800,150.000 153.070,150.000 153.400 C 150.000 153.730,149.730 154.000,149.400 154.000 C 149.070 154.000,148.800 154.339,148.800 154.753 C 148.800 155.170,148.443 155.600,148.000 155.716 C 147.459 155.857,147.200 156.262,147.200 156.963 C 147.200 157.618,146.979 158.000,146.600 158.000 C 146.267 158.000,146.000 158.356,146.000 158.800 C 146.000 159.333,145.733 159.600,145.200 159.600 C 144.756 159.600,144.400 159.867,144.400 160.200 C 144.400 160.530,144.130 160.800,143.800 160.800 C 143.381 160.800,143.200 161.222,143.200 162.200 C 143.200 163.214,143.024 163.600,142.563 163.600 C 142.212 163.600,141.831 163.960,141.716 164.400 C 141.601 164.840,141.258 165.200,140.953 165.200 C 140.605 165.200,140.400 165.645,140.400 166.400 C 140.400 167.200,140.200 167.600,139.800 167.600 C 139.381 167.600,139.200 168.022,139.200 169.000 C 139.200 170.133,139.048 170.400,138.400 170.400 C 137.752 170.400,137.600 170.667,137.600 171.800 C 137.600 172.778,137.419 173.200,137.000 173.200 C 136.585 173.200,136.400 173.617,136.400 174.553 C 136.400 175.570,136.201 175.959,135.600 176.116 C 134.946 176.287,134.800 176.662,134.800 178.163 C 134.800 179.529,134.646 180.000,134.200 180.000 C 133.753 180.000,133.600 180.473,133.600 181.856 C 133.600 183.039,133.383 183.873,133.001 184.156 C 132.643 184.422,132.300 185.596,132.147 187.078 C 131.989 188.606,131.681 189.637,131.345 189.766 C 130.935 189.923,130.800 190.969,130.800 193.987 C 130.800 197.287,130.693 198.000,130.200 198.000 C 129.728 198.000,129.600 198.556,129.600 200.600 C 129.600 202.644,129.728 203.200,130.200 203.200 C 130.676 203.200,130.800 203.778,130.800 206.000 C 130.800 208.122,130.934 208.800,131.355 208.800 C 131.674 208.800,132.023 209.398,132.174 210.200 C 132.331 211.038,132.670 211.600,133.018 211.600 C 133.369 211.600,133.600 211.989,133.600 212.582 C 133.600 213.537,135.252 215.600,136.018 215.600 C 136.228 215.600,136.400 215.870,136.400 216.200 C 136.400 216.619,136.822 216.800,137.800 216.800 C 138.933 216.800,139.200 216.952,139.200 217.600 C 139.200 218.224,139.467 218.400,140.413 218.400 C 141.121 218.400,141.721 218.649,141.855 219.000 C 142.059 219.530,148.983 219.600,200.843 219.600 C 252.805 219.600,259.600 219.531,259.600 219.000 C 259.600 218.596,260.004 218.400,260.837 218.400 C 261.738 218.400,262.132 218.183,262.284 217.600 C 262.399 217.160,262.742 216.800,263.047 216.800 C 263.351 216.800,263.600 216.530,263.600 216.200 C 263.600 215.867,263.956 215.600,264.400 215.600 C 264.844 215.600,265.200 215.333,265.200 215.000 C 265.200 214.670,265.470 214.400,265.800 214.400 C 266.133 214.400,266.400 214.044,266.400 213.600 C 266.400 213.067,266.667 212.800,267.200 212.800 C 267.644 212.800,268.000 212.533,268.000 212.200 C 268.000 211.870,268.270 211.600,268.600 211.600 C 269.019 211.600,269.200 211.178,269.200 210.200 C 269.200 209.222,269.381 208.800,269.800 208.800 C 270.315 208.800,270.400 207.556,270.400 200.000 C 270.400 192.444,270.315 191.200,269.800 191.200 C 269.324 191.200,269.200 190.622,269.200 188.400 C 269.200 186.178,269.076 185.600,268.600 185.600 C 268.170 185.600,268.000 185.161,268.000 184.050 C 268.000 181.691,267.562 180.000,266.950 180.000 C 266.557 180.000,266.400 179.430,266.400 178.000 C 266.400 176.489,266.253 176.000,265.800 176.000 C 265.396 176.000,265.200 175.596,265.200 174.763 C 265.200 173.862,264.983 173.468,264.400 173.316 C 263.799 173.159,263.600 172.770,263.600 171.753 C 263.600 170.817,263.415 170.400,263.000 170.400 C 262.596 170.400,262.400 169.996,262.400 169.163 C 262.400 168.262,262.183 167.868,261.600 167.716 C 261.033 167.568,260.800 167.170,260.800 166.353 C 260.800 165.595,260.595 165.200,260.200 165.200 C 259.867 165.200,259.600 164.844,259.600 164.400 C 259.600 163.960,259.344 163.600,259.032 163.600 C 258.719 163.600,258.342 163.048,258.194 162.373 C 258.046 161.698,257.672 161.049,257.362 160.930 C 257.053 160.812,256.800 160.464,256.800 160.157 C 256.800 159.851,256.530 159.600,256.200 159.600 C 255.870 159.600,255.600 159.313,255.600 158.963 C 255.600 158.612,255.240 158.231,254.800 158.116 C 254.360 158.001,254.000 157.658,254.000 157.353 C 254.000 157.049,253.730 156.800,253.400 156.800 C 253.070 156.800,252.800 156.542,252.800 156.227 C 252.800 155.912,252.440 155.540,252.000 155.400 C 251.560 155.260,251.200 154.888,251.200 154.573 C 251.200 154.258,250.930 154.000,250.600 154.000 C 250.270 154.000,250.000 153.730,250.000 153.400 C 250.000 153.070,249.730 152.800,249.400 152.800 C 249.070 152.800,248.800 152.513,248.800 152.163 C 248.800 151.812,248.440 151.431,248.000 151.316 C 247.560 151.201,247.200 150.858,247.200 150.553 C 247.200 150.249,246.930 150.000,246.600 150.000 C 246.270 150.000,246.000 149.713,246.000 149.363 C 246.000 149.012,245.640 148.631,245.200 148.516 C 244.760 148.401,244.400 148.058,244.400 147.753 C 244.400 147.388,243.925 147.200,243.000 147.200 C 242.022 147.200,241.600 147.019,241.600 146.600 C 241.600 146.270,241.330 146.000,241.000 146.000 C 240.667 146.000,240.400 145.644,240.400 145.200 C 240.400 144.667,240.133 144.400,239.600 144.400 C 239.156 144.400,238.800 144.133,238.800 143.800 C 238.800 143.405,238.405 143.200,237.647 143.200 C 236.830 143.200,236.432 142.967,236.284 142.400 C 236.132 141.817,235.738 141.600,234.837 141.600 C 234.004 141.600,233.600 141.404,233.600 141.000 C 233.600 140.585,233.183 140.400,232.247 140.400 C 231.230 140.400,230.841 140.201,230.684 139.600 C 230.532 139.017,230.138 138.800,229.237 138.800 C 228.404 138.800,228.000 138.604,228.000 138.200 C 228.000 137.781,227.578 137.600,226.600 137.600 C 225.622 137.600,225.200 137.419,225.200 137.000 C 225.200 136.529,224.650 136.400,222.647 136.400 C 220.430 136.400,220.066 136.295,219.884 135.600 C 219.702 134.902,219.338 134.800,217.037 134.800 C 214.960 134.800,214.400 134.673,214.400 134.200 C 214.400 133.680,212.756 133.600,202.000 133.600 C 191.244 133.600,189.600 133.680,189.600 134.200 M204.800 150.600 C 204.800 151.095,205.533 151.200,209.000 151.200 L 213.200 151.200 213.200 155.400 C 213.200 159.333,213.149 159.600,212.400 159.600 C 211.752 159.600,211.600 159.867,211.600 161.000 C 211.600 161.978,211.419 162.400,211.000 162.400 C 210.596 162.400,210.400 162.804,210.400 163.637 C 210.400 164.538,210.183 164.932,209.600 165.084 C 209.033 165.232,208.800 165.630,208.800 166.447 C 208.800 167.205,208.595 167.600,208.200 167.600 C 207.867 167.600,207.600 167.956,207.600 168.400 C 207.600 168.933,207.333 169.200,206.800 169.200 C 206.356 169.200,206.000 169.467,206.000 169.800 C 206.000 170.179,205.618 170.400,204.963 170.400 C 204.262 170.400,203.857 170.659,203.716 171.200 C 203.600 171.643,203.170 172.000,202.753 172.000 C 202.339 172.000,202.000 172.270,202.000 172.600 C 202.000 173.019,201.578 173.200,200.600 173.200 C 199.622 173.200,199.200 173.381,199.200 173.800 C 199.200 174.268,198.663 174.400,196.763 174.400 C 194.662 174.400,194.296 174.510,194.116 175.200 C 193.927 175.923,193.570 176.000,190.400 176.000 C 187.230 176.000,186.873 175.923,186.684 175.200 C 186.513 174.546,186.138 174.400,184.637 174.400 C 183.271 174.400,182.800 174.246,182.800 173.800 C 182.800 173.381,182.378 173.200,181.400 173.200 C 180.422 173.200,180.000 173.019,180.000 172.600 C 180.000 172.270,179.730 172.000,179.400 172.000 C 179.067 172.000,178.800 171.644,178.800 171.200 C 178.800 170.667,178.533 170.400,178.000 170.400 C 177.556 170.400,177.200 170.133,177.200 169.800 C 177.200 169.470,176.930 169.200,176.600 169.200 C 176.270 169.200,176.000 169.029,176.000 168.821 C 176.000 168.270,174.188 166.400,173.654 166.400 C 173.404 166.400,173.200 166.124,173.200 165.787 C 173.200 165.451,172.930 165.071,172.600 164.945 C 172.258 164.813,172.000 164.217,172.000 163.557 C 172.000 162.667,171.816 162.400,171.200 162.400 C 170.552 162.400,170.400 162.133,170.400 161.000 C 170.400 159.986,170.576 159.600,171.037 159.600 C 171.388 159.600,171.769 159.240,171.884 158.800 C 172.030 158.242,172.430 158.000,173.204 158.000 C 173.822 158.000,174.416 157.734,174.545 157.400 C 174.671 157.070,175.051 156.800,175.387 156.800 C 175.733 156.800,176.000 156.452,176.000 156.000 C 176.000 155.352,176.267 155.200,177.400 155.200 C 178.378 155.200,178.800 155.019,178.800 154.600 C 178.800 154.147,179.289 154.000,180.800 154.000 C 182.311 154.000,182.800 153.853,182.800 153.400 C 182.800 152.984,183.219 152.800,184.167 152.800 C 185.929 152.800,186.800 152.455,186.800 151.757 C 186.800 151.334,187.473 151.200,189.600 151.200 C 191.822 151.200,192.400 151.076,192.400 150.600 C 192.400 150.092,193.356 150.000,198.600 150.000 C 203.844 150.000,204.800 150.092,204.800 150.600 M244.400 173.800 C 244.400 174.133,244.756 174.400,245.200 174.400 C 245.848 174.400,246.000 174.667,246.000 175.800 C 246.000 176.778,246.181 177.200,246.600 177.200 C 247.004 177.200,247.200 177.604,247.200 178.437 C 247.200 179.338,247.417 179.732,248.000 179.884 C 248.601 180.041,248.800 180.430,248.800 181.447 C 248.800 182.383,248.985 182.800,249.400 182.800 C 249.819 182.800,250.000 183.222,250.000 184.200 C 250.000 185.178,250.181 185.600,250.600 185.600 C 251.046 185.600,251.200 186.071,251.200 187.437 C 251.200 188.938,251.346 189.313,252.000 189.484 C 252.702 189.668,252.800 190.030,252.800 192.447 C 252.800 194.933,252.723 195.200,252.000 195.200 C 251.556 195.200,251.200 195.467,251.200 195.800 C 251.200 196.179,250.818 196.400,250.163 196.400 C 249.462 196.400,249.057 196.659,248.916 197.200 C 248.759 197.801,248.370 198.000,247.353 198.000 C 246.417 198.000,246.000 198.185,246.000 198.600 C 246.000 199.076,245.422 199.200,243.200 199.200 C 240.978 199.200,240.400 199.076,240.400 198.600 C 240.400 198.147,239.911 198.000,238.400 198.000 C 236.667 198.000,236.400 197.893,236.400 197.200 C 236.400 196.667,236.133 196.400,235.600 196.400 C 235.156 196.400,234.800 196.133,234.800 195.800 C 234.800 195.470,234.530 195.200,234.200 195.200 C 233.867 195.200,233.600 194.844,233.600 194.400 C 233.600 193.867,233.333 193.600,232.800 193.600 C 232.178 193.600,232.000 193.333,232.000 192.400 C 232.000 191.600,231.800 191.200,231.400 191.200 C 230.900 191.200,230.800 190.405,230.800 186.443 C 230.800 182.583,230.913 181.642,231.400 181.455 C 231.751 181.321,232.000 180.721,232.000 180.013 C 232.000 179.067,232.176 178.800,232.800 178.800 C 233.333 178.800,233.600 178.533,233.600 178.000 C 233.600 177.556,233.867 177.200,234.200 177.200 C 234.530 177.200,234.800 176.930,234.800 176.600 C 234.800 176.196,235.204 176.000,236.037 176.000 C 236.938 176.000,237.332 175.783,237.484 175.200 C 237.641 174.599,238.030 174.400,239.047 174.400 C 239.983 174.400,240.400 174.215,240.400 173.800 C 240.400 173.347,240.889 173.200,242.400 173.200 C 243.911 173.200,244.400 173.347,244.400 173.800 M165.200 183.400 C 165.200 183.819,165.622 184.000,166.600 184.000 C 167.733 184.000,168.000 184.152,168.000 184.800 C 168.000 185.244,168.267 185.600,168.600 185.600 C 168.930 185.600,169.200 185.870,169.200 186.200 C 169.200 186.530,169.470 186.800,169.800 186.800 C 170.295 186.800,170.400 187.533,170.400 191.000 C 170.400 194.467,170.295 195.200,169.800 195.200 C 169.470 195.200,169.200 195.470,169.200 195.800 C 169.200 196.130,168.930 196.400,168.600 196.400 C 168.267 196.400,168.000 196.756,168.000 197.200 C 168.000 197.848,167.733 198.000,166.600 198.000 C 165.622 198.000,165.200 198.181,165.200 198.600 C 165.200 199.061,164.689 199.200,163.000 199.200 C 161.311 199.200,160.800 199.061,160.800 198.600 C 160.800 198.205,160.405 198.000,159.647 198.000 C 158.830 198.000,158.432 197.767,158.284 197.200 C 158.169 196.760,157.788 196.400,157.437 196.400 C 157.087 196.400,156.800 196.130,156.800 195.800 C 156.800 195.470,156.530 195.200,156.200 195.200 C 155.781 195.200,155.600 194.778,155.600 193.800 C 155.600 192.667,155.448 192.400,154.800 192.400 C 154.152 192.400,154.000 192.133,154.000 191.000 C 154.000 189.867,154.152 189.600,154.800 189.600 C 155.448 189.600,155.600 189.333,155.600 188.200 C 155.600 187.222,155.781 186.800,156.200 186.800 C 156.530 186.800,156.800 186.530,156.800 186.200 C 156.800 185.870,157.087 185.600,157.437 185.600 C 157.788 185.600,158.169 185.240,158.284 184.800 C 158.399 184.360,158.742 184.000,159.047 184.000 C 159.351 184.000,159.600 183.730,159.600 183.400 C 159.600 182.924,160.178 182.800,162.400 182.800 C 164.622 182.800,165.200 182.924,165.200 183.400 M180.267 228.267 C 180.120 228.413,180.000 229.313,180.000 230.267 C 180.000 231.541,179.841 232.000,179.400 232.000 C 178.924 232.000,178.800 232.578,178.800 234.800 C 178.800 236.905,178.664 237.600,178.252 237.600 C 177.866 237.600,177.622 238.429,177.427 240.400 C 177.226 242.442,176.996 243.200,176.576 243.200 C 176.134 243.200,176.000 243.804,176.000 245.800 C 176.000 247.844,175.872 248.400,175.400 248.400 C 174.925 248.400,174.800 248.973,174.800 251.153 C 174.800 253.570,174.702 253.932,174.000 254.116 C 173.318 254.294,173.200 254.662,173.200 256.600 C 173.200 258.538,173.318 258.906,174.000 259.084 C 174.675 259.261,174.800 259.630,174.800 261.447 C 174.800 263.094,174.941 263.600,175.400 263.600 C 175.730 263.600,176.000 263.870,176.000 264.200 C 176.000 264.533,176.356 264.800,176.800 264.800 C 177.333 264.800,177.600 265.067,177.600 265.600 C 177.600 266.216,177.867 266.400,178.757 266.400 C 179.417 266.400,180.013 266.658,180.145 267.000 C 180.345 267.522,182.924 267.600,200.000 267.600 C 217.076 267.600,219.655 267.522,219.855 267.000 C 219.989 266.652,220.587 266.400,221.280 266.400 C 222.138 266.400,222.534 266.175,222.684 265.600 C 222.832 265.033,223.230 264.800,224.047 264.800 C 225.098 264.800,225.200 264.676,225.200 263.400 C 225.200 262.267,225.352 262.000,226.000 262.000 C 226.764 262.000,226.800 261.733,226.800 256.000 C 226.800 250.267,226.764 250.000,226.000 250.000 C 225.276 250.000,225.200 249.733,225.200 247.200 C 225.200 244.978,225.076 244.400,224.600 244.400 C 224.128 244.400,224.000 243.843,224.000 241.787 C 224.000 239.834,223.849 239.117,223.400 238.945 C 222.953 238.773,222.800 238.061,222.800 236.157 C 222.800 233.867,222.717 233.600,222.000 233.600 C 221.276 233.600,221.200 233.333,221.200 230.800 L 221.200 228.000 200.867 228.000 C 189.683 228.000,180.413 228.120,180.267 228.267 " stroke="none" fill="#040404" fill-rule="evenodd"></path><path id="path1" d="" stroke="none" fill="#080404" fill-rule="evenodd"></path><path id="path2" d="" stroke="none" fill="#080404" fill-rule="evenodd"></path><path id="path3" d="" stroke="none" fill="#080404" fill-rule="evenodd"></path><path id="path4" d="" stroke="none" fill="#080404" fill-rule="evenodd"></path></g></svg>