<svg id="svg" version="1.1" xmlns="http://www.w3.org/2000/svg" xmlns:xlink="http://www.w3.org/1999/xlink" width="400" height="531.5068493150685" viewBox="0, 0, 400,531.5068493150685"><g id="svgg"><path id="path0" d="M180.326 0.421 C 180.237 0.688,178.158 0.850,174.657 0.862 C 169.723 0.879,169.147 0.952,169.301 1.541 C 169.456 2.128,169.020 2.186,165.337 2.074 C 161.383 1.954,161.200 1.985,161.200 2.774 C 161.200 3.599,159.671 3.872,156.500 3.616 C 155.918 3.568,155.600 3.765,155.600 4.171 C 155.600 4.683,155.079 4.800,152.800 4.800 C 150.791 4.800,150.000 4.945,150.000 5.312 C 150.000 5.594,149.459 6.029,148.797 6.279 C 148.136 6.528,147.690 6.578,147.807 6.388 C 147.979 6.110,146.637 6.097,144.700 6.359 C 144.535 6.382,144.445 6.625,144.500 6.900 C 144.568 7.238,143.918 7.439,142.500 7.521 C 140.989 7.608,140.400 7.804,140.400 8.221 C 140.400 8.649,139.879 8.800,138.400 8.800 C 136.667 8.800,136.400 8.907,136.400 9.600 C 136.400 10.399,135.648 10.602,133.351 10.422 C 132.884 10.386,132.395 10.636,132.264 10.978 C 132.096 11.415,131.482 11.600,130.203 11.600 C 128.646 11.600,128.327 11.740,128.015 12.561 C 127.814 13.090,127.430 13.658,127.163 13.823 C 126.853 14.015,126.780 13.956,126.962 13.662 C 127.159 13.343,126.760 13.200,125.670 13.200 C 124.473 13.200,124.047 13.378,123.900 13.939 C 123.750 14.513,123.429 14.636,122.454 14.493 C 121.491 14.352,121.200 14.459,121.200 14.955 C 121.200 15.610,121.091 15.661,119.505 15.750 C 118.998 15.778,118.553 16.103,118.476 16.500 C 118.370 17.054,117.929 17.200,116.371 17.200 C 114.886 17.200,114.400 17.348,114.400 17.800 C 114.400 18.201,113.999 18.400,113.190 18.400 C 112.290 18.400,111.889 18.639,111.624 19.336 C 111.332 20.104,111.047 20.239,110.034 20.090 C 109.090 19.952,108.800 20.061,108.800 20.555 C 108.800 21.005,108.438 21.200,107.600 21.200 C 106.544 21.200,106.220 21.521,106.337 22.453 C 106.354 22.592,106.151 22.699,105.884 22.690 C 104.333 22.639,103.600 22.867,103.600 23.400 C 103.600 23.819,103.178 24.000,102.200 24.000 C 101.067 24.000,100.800 24.152,100.800 24.800 C 100.800 25.240,100.665 25.555,100.500 25.500 C 100.335 25.445,100.200 25.527,100.200 25.683 C 100.200 26.292,98.642 27.059,97.751 26.889 C 97.133 26.770,96.725 26.930,96.562 27.354 C 96.413 27.743,95.853 28.000,95.157 28.000 C 94.267 28.000,94.000 28.184,94.000 28.800 C 94.000 29.333,93.733 29.600,93.200 29.600 C 92.703 29.600,92.400 29.867,92.400 30.304 C 92.400 30.832,92.076 31.007,91.100 31.004 C 90.046 31.001,89.825 31.143,89.930 31.754 C 90.027 32.317,89.890 32.444,89.393 32.253 C 88.934 32.076,88.661 32.246,88.516 32.798 C 88.359 33.401,87.971 33.600,86.953 33.600 C 86.017 33.600,85.600 33.785,85.600 34.200 C 85.600 34.530,85.330 34.800,85.000 34.800 C 84.667 34.800,84.400 35.156,84.400 35.600 C 84.400 36.248,84.133 36.400,83.000 36.400 C 82.022 36.400,81.600 36.581,81.600 37.000 C 81.600 37.330,81.342 37.600,81.027 37.600 C 80.712 37.600,80.340 37.960,80.200 38.400 C 80.060 38.840,79.688 39.200,79.373 39.200 C 79.058 39.200,78.800 39.470,78.800 39.800 C 78.800 40.204,78.396 40.400,77.563 40.400 C 76.664 40.400,76.268 40.618,76.117 41.196 C 76.003 41.633,75.737 41.885,75.528 41.755 C 75.318 41.626,75.047 41.898,74.926 42.360 C 74.801 42.838,74.382 43.200,73.953 43.200 C 73.539 43.200,73.200 43.470,73.200 43.800 C 73.200 44.130,72.930 44.400,72.600 44.400 C 72.267 44.400,72.000 44.756,72.000 45.200 C 72.000 45.848,71.733 46.000,70.600 46.000 C 69.670 46.000,69.200 46.187,69.200 46.557 C 69.200 46.864,68.930 47.218,68.600 47.345 C 68.270 47.471,68.000 47.851,68.000 48.187 C 68.000 48.524,67.724 48.800,67.387 48.800 C 67.051 48.800,66.671 49.070,66.545 49.400 C 66.418 49.730,66.064 50.000,65.757 50.000 C 65.451 50.000,65.200 50.258,65.200 50.573 C 65.200 50.888,64.840 51.260,64.400 51.400 C 63.960 51.540,63.600 51.912,63.600 52.227 C 63.600 52.542,63.309 52.800,62.953 52.800 C 62.526 52.800,62.371 53.046,62.496 53.526 C 62.637 54.062,62.466 54.245,61.843 54.226 C 61.342 54.210,61.045 54.417,61.111 54.734 C 61.173 55.028,60.843 55.368,60.379 55.490 C 59.821 55.635,59.597 55.945,59.717 56.404 C 59.853 56.923,59.709 57.049,59.149 56.903 C 58.655 56.773,58.400 56.918,58.400 57.326 C 58.400 57.667,58.024 58.066,57.563 58.212 C 57.012 58.387,56.790 58.719,56.913 59.188 C 57.057 59.739,56.916 59.851,56.286 59.686 C 55.611 59.510,55.512 59.621,55.702 60.346 C 55.843 60.886,55.753 61.197,55.465 61.162 C 54.296 61.019,53.917 61.238,54.103 61.949 C 54.253 62.526,54.126 62.653,53.549 62.503 C 53.137 62.395,52.800 62.500,52.800 62.735 C 52.800 63.266,50.903 65.200,50.382 65.200 C 50.172 65.200,50.000 65.470,50.000 65.800 C 50.000 66.130,49.730 66.400,49.400 66.400 C 49.067 66.400,48.800 66.756,48.800 67.200 C 48.800 67.733,48.533 68.000,48.000 68.000 C 47.378 68.000,47.200 68.267,47.200 69.200 C 47.200 70.000,47.000 70.400,46.600 70.400 C 46.267 70.400,46.000 70.756,46.000 71.200 C 46.000 71.741,45.733 72.000,45.176 72.000 C 44.695 72.000,44.462 72.177,44.617 72.427 C 44.762 72.662,44.503 72.953,44.040 73.074 C 43.562 73.199,43.200 73.618,43.200 74.047 C 43.200 74.461,42.930 74.800,42.600 74.800 C 42.052 74.800,41.843 75.363,41.893 76.700 C 41.910 77.159,41.456 77.367,40.700 77.247 C 40.535 77.221,40.400 77.560,40.400 78.000 C 40.400 78.444,40.133 78.800,39.800 78.800 C 39.470 78.800,39.200 79.058,39.200 79.373 C 39.200 79.688,38.840 80.060,38.400 80.200 C 37.840 80.378,37.600 80.805,37.600 81.627 C 37.600 82.403,37.397 82.800,37.000 82.800 C 36.670 82.800,36.400 83.139,36.400 83.553 C 36.400 83.985,36.037 84.402,35.550 84.529 C 34.867 84.708,34.751 84.951,34.958 85.775 C 35.199 86.735,34.928 87.010,33.900 86.847 C 33.735 86.821,33.600 87.160,33.600 87.600 C 33.600 88.040,33.350 88.400,33.045 88.400 C 32.726 88.400,32.377 88.998,32.226 89.800 C 32.069 90.638,31.730 91.200,31.382 91.200 C 31.062 91.200,30.800 91.470,30.800 91.800 C 30.800 92.130,30.530 92.400,30.200 92.400 C 29.781 92.400,29.600 92.822,29.600 93.800 C 29.600 94.933,29.448 95.200,28.800 95.200 C 28.152 95.200,28.000 95.467,28.000 96.600 C 28.000 97.578,27.819 98.000,27.400 98.000 C 27.070 98.000,26.800 98.249,26.800 98.553 C 26.800 98.858,26.417 99.207,25.949 99.329 C 25.273 99.506,25.140 99.774,25.303 100.625 C 25.459 101.444,25.329 101.746,24.754 101.896 C 24.203 102.040,24.000 102.457,24.000 103.447 C 24.000 104.383,23.815 104.800,23.400 104.800 C 22.981 104.800,22.800 105.222,22.800 106.200 C 22.800 107.333,22.648 107.600,22.000 107.600 C 21.352 107.600,21.200 107.867,21.200 109.000 C 21.200 110.023,21.026 110.400,20.553 110.400 C 20.116 110.400,19.971 110.645,20.104 111.156 C 20.340 112.056,19.833 113.000,19.115 113.000 C 18.826 113.000,18.545 113.572,18.475 114.300 C 18.397 115.105,18.131 115.600,17.775 115.600 C 17.388 115.600,17.200 116.044,17.200 116.953 C 17.200 117.941,16.997 118.360,16.449 118.503 C 15.904 118.646,15.732 118.998,15.819 119.795 C 15.908 120.600,15.736 120.944,15.170 121.092 C 14.543 121.256,14.400 121.655,14.400 123.247 C 14.400 124.716,14.251 125.200,13.800 125.200 C 13.381 125.200,13.200 125.622,13.200 126.600 C 13.200 127.733,13.048 128.000,12.400 128.000 C 11.960 128.000,11.621 128.135,11.647 128.300 C 11.903 129.918,11.523 132.000,10.971 132.000 C 10.565 132.000,10.368 132.318,10.416 132.900 C 10.623 135.458,10.403 136.400,9.600 136.400 C 8.907 136.400,8.800 136.667,8.800 138.400 C 8.800 139.911,8.653 140.400,8.200 140.400 C 7.747 140.400,7.600 140.889,7.600 142.400 C 7.600 143.911,7.453 144.400,7.000 144.400 C 6.353 144.400,6.327 144.491,6.188 147.200 C 6.045 149.976,6.038 150.000,5.400 150.000 C 4.924 150.000,4.800 150.578,4.800 152.800 C 4.800 155.073,4.682 155.600,4.175 155.600 C 3.651 155.600,3.564 156.136,3.638 158.900 C 3.722 162.008,3.677 162.207,2.864 162.328 C 2.046 162.449,2.000 162.665,2.000 166.385 C 2.000 169.379,1.867 170.365,1.442 170.529 C 0.994 170.701,0.877 172.187,0.851 178.042 C 0.826 183.483,0.689 185.425,0.309 185.671 C -0.092 185.930,-0.073 186.084,0.400 186.394 C 0.801 186.657,0.834 186.790,0.500 186.794 C -0.203 186.802,-0.125 187.867,0.600 188.145 C 1.112 188.341,1.200 189.899,1.200 198.775 C 1.200 207.855,1.124 209.146,0.600 208.945 C 0.135 208.766,0.000 209.039,0.000 210.157 C 0.000 210.951,0.180 211.600,0.400 211.600 C 0.638 211.600,0.800 213.101,0.800 215.303 C 0.800 217.339,0.968 219.593,1.174 220.310 C 1.407 221.121,1.407 221.528,1.174 221.384 C 0.957 221.250,0.800 222.238,0.800 223.747 C 0.800 225.823,0.930 226.367,1.451 226.471 C 2.011 226.582,2.091 227.228,2.029 231.102 C 1.958 235.485,1.981 235.613,2.893 235.959 C 3.783 236.298,3.824 236.478,3.720 239.572 C 3.632 242.159,3.732 242.876,4.205 243.057 C 4.646 243.226,4.800 243.948,4.800 245.843 C 4.800 247.655,4.949 248.400,5.312 248.400 C 5.594 248.400,6.029 248.941,6.279 249.603 C 6.528 250.264,6.592 250.719,6.421 250.613 C 6.249 250.507,6.109 251.159,6.109 252.062 C 6.109 253.327,6.280 253.748,6.855 253.898 C 7.484 254.063,7.600 254.492,7.600 256.647 C 7.600 258.650,7.729 259.200,8.200 259.200 C 8.655 259.200,8.800 259.693,8.800 261.237 C 8.800 262.938,8.932 263.309,9.600 263.484 C 10.262 263.657,10.400 264.030,10.400 265.647 C 10.400 267.116,10.549 267.600,11.000 267.600 C 11.419 267.600,11.600 268.022,11.600 269.000 C 11.600 270.133,11.752 270.400,12.400 270.400 C 13.093 270.400,13.200 270.667,13.200 272.400 C 13.200 273.911,13.347 274.400,13.800 274.400 C 14.219 274.400,14.400 274.822,14.400 275.800 C 14.400 276.896,14.561 277.200,15.140 277.200 C 15.707 277.200,15.882 277.505,15.888 278.500 C 15.902 280.853,15.994 281.200,16.600 281.200 C 17.019 281.200,17.200 281.622,17.200 282.600 C 17.200 283.550,17.385 284.000,17.775 284.000 C 18.131 284.000,18.397 284.495,18.475 285.300 C 18.567 286.253,18.818 286.631,19.418 286.717 C 20.099 286.815,20.208 287.065,20.074 288.217 C 19.949 289.288,20.058 289.600,20.556 289.600 C 21.009 289.600,21.200 289.967,21.200 290.837 C 21.200 291.738,21.417 292.132,22.000 292.284 C 22.569 292.433,22.800 292.830,22.800 293.659 C 22.800 294.327,23.057 294.924,23.400 295.055 C 23.749 295.189,24.000 295.788,24.000 296.489 C 24.000 297.554,24.114 297.671,24.988 297.504 C 25.644 297.379,25.883 297.464,25.699 297.758 C 25.152 298.632,25.285 299.200,26.035 299.200 C 26.643 299.200,26.800 299.488,26.800 300.600 C 26.800 301.578,26.981 302.000,27.400 302.000 C 27.799 302.000,28.000 302.399,28.000 303.192 C 28.000 304.122,28.215 304.439,28.973 304.629 C 29.596 304.785,29.869 305.077,29.731 305.437 C 29.600 305.777,29.769 306.000,30.157 306.000 C 30.625 306.000,30.800 306.381,30.800 307.400 C 30.800 308.388,30.980 308.800,31.410 308.800 C 31.765 308.800,32.118 309.291,32.255 309.974 C 32.384 310.620,32.740 311.245,33.045 311.362 C 33.350 311.479,33.600 311.830,33.600 312.141 C 33.600 312.452,33.978 312.806,34.440 312.926 C 34.908 313.049,35.162 313.337,35.014 313.577 C 34.617 314.220,35.171 315.600,35.827 315.600 C 36.142 315.600,36.400 315.870,36.400 316.200 C 36.400 316.530,36.670 316.800,37.000 316.800 C 37.333 316.800,37.600 317.156,37.600 317.600 C 37.600 318.133,37.867 318.400,38.400 318.400 C 39.022 318.400,39.200 318.667,39.200 319.600 C 39.200 320.400,39.400 320.800,39.800 320.800 C 40.133 320.800,40.400 321.156,40.400 321.600 C 40.400 322.129,40.667 322.400,41.187 322.400 C 41.723 322.400,41.901 322.592,41.745 323.000 C 41.585 323.416,41.772 323.600,42.357 323.600 C 43.048 323.600,43.200 323.844,43.200 324.953 C 43.200 325.992,43.395 326.358,44.040 326.526 C 44.537 326.656,44.766 326.932,44.600 327.200 C 44.434 327.468,44.663 327.744,45.160 327.874 C 45.622 327.994,46.000 328.342,46.000 328.647 C 46.000 328.951,46.270 329.200,46.600 329.200 C 47.004 329.200,47.200 329.604,47.200 330.437 C 47.200 331.338,47.417 331.732,48.000 331.884 C 48.440 331.999,48.800 332.342,48.800 332.647 C 48.800 332.951,49.081 333.200,49.424 333.200 C 49.793 333.200,49.931 333.012,49.762 332.738 C 49.598 332.474,49.651 332.384,49.885 332.529 C 50.109 332.667,50.211 333.210,50.110 333.734 C 49.979 334.423,50.136 334.742,50.674 334.883 C 51.108 334.996,51.451 335.477,51.492 336.031 C 51.532 336.556,51.842 337.188,52.182 337.436 C 52.522 337.685,52.800 338.093,52.800 338.344 C 52.800 338.595,53.070 338.800,53.400 338.800 C 53.730 338.800,54.000 339.087,54.000 339.437 C 54.000 339.788,54.360 340.169,54.800 340.284 C 55.367 340.432,55.600 340.830,55.600 341.647 C 55.600 342.405,55.805 342.800,56.200 342.800 C 56.533 342.800,56.800 343.156,56.800 343.600 C 56.800 344.133,57.067 344.400,57.600 344.400 C 58.044 344.400,58.400 344.667,58.400 345.000 C 58.400 345.330,58.670 345.600,59.000 345.600 C 59.404 345.600,59.600 346.004,59.600 346.837 C 59.600 347.724,59.819 348.132,60.372 348.277 C 60.832 348.397,61.057 348.706,60.930 349.039 C 60.800 349.377,60.970 349.600,61.357 349.600 C 61.711 349.600,62.003 349.375,62.006 349.100 C 62.011 348.733,62.104 348.745,62.357 349.144 C 62.547 349.444,62.613 350.029,62.504 350.444 C 62.371 350.955,62.516 351.200,62.953 351.200 C 63.368 351.200,63.600 351.542,63.600 352.151 C 63.600 353.188,64.538 354.209,65.145 353.834 C 65.360 353.701,65.434 353.948,65.316 354.399 C 65.170 354.956,65.303 355.200,65.753 355.200 C 66.109 355.200,66.400 355.020,66.400 354.800 C 66.400 354.580,66.602 354.400,66.849 354.400 C 67.161 354.400,67.147 354.582,66.804 354.995 C 66.201 355.721,66.550 356.800,67.387 356.800 C 67.801 356.800,68.000 357.189,68.000 358.000 C 68.000 358.800,68.200 359.200,68.600 359.200 C 68.933 359.200,69.200 359.556,69.200 360.000 C 69.200 360.444,69.467 360.800,69.800 360.800 C 70.130 360.800,70.400 361.070,70.400 361.400 C 70.400 361.733,70.756 362.000,71.200 362.000 C 71.848 362.000,72.000 362.267,72.000 363.400 C 72.000 364.378,72.181 364.800,72.600 364.800 C 72.930 364.800,73.200 365.087,73.200 365.437 C 73.200 365.788,73.560 366.169,74.000 366.284 C 74.440 366.399,74.800 366.742,74.800 367.047 C 74.800 367.351,75.070 367.600,75.400 367.600 C 75.804 367.600,76.000 368.004,76.000 368.837 C 76.000 369.738,76.217 370.132,76.800 370.284 C 77.240 370.399,77.600 370.742,77.600 371.047 C 77.600 371.351,77.870 371.600,78.200 371.600 C 78.533 371.600,78.800 371.956,78.800 372.400 C 78.800 372.844,79.067 373.200,79.400 373.200 C 79.730 373.200,80.023 373.380,80.050 373.600 C 80.078 373.820,80.145 374.180,80.200 374.400 C 80.255 374.620,80.323 374.980,80.350 375.200 C 80.377 375.420,80.670 375.600,81.000 375.600 C 81.333 375.600,81.600 375.956,81.600 376.400 C 81.600 376.844,81.867 377.200,82.200 377.200 C 82.530 377.200,82.800 377.470,82.800 377.800 C 82.800 378.130,82.991 378.400,83.224 378.400 C 83.457 378.400,83.512 378.175,83.347 377.900 C 83.143 377.560,83.263 377.576,83.723 377.949 C 84.117 378.268,84.400 379.063,84.400 379.849 C 84.400 380.783,84.585 381.200,85.000 381.200 C 85.330 381.200,85.603 381.425,85.607 381.700 C 85.617 382.432,87.507 384.105,87.988 383.807 C 88.242 383.651,88.400 384.114,88.400 385.014 C 88.400 386.121,88.587 386.524,89.172 386.677 C 89.632 386.797,89.857 387.106,89.730 387.439 C 89.587 387.811,89.799 388.000,90.357 388.000 C 90.933 388.000,91.200 388.253,91.200 388.800 C 91.200 389.244,91.467 389.600,91.800 389.600 C 92.179 389.600,92.400 389.982,92.400 390.637 C 92.400 391.338,92.659 391.743,93.200 391.884 C 93.643 392.000,94.000 392.430,94.000 392.847 C 94.000 393.261,94.270 393.600,94.600 393.600 C 94.930 393.600,95.200 393.870,95.200 394.200 C 95.200 394.927,95.854 394.996,96.135 394.300 C 96.250 394.015,96.377 394.144,96.429 394.600 C 96.480 395.040,96.564 395.580,96.615 395.800 C 96.666 396.020,96.728 396.515,96.754 396.900 C 96.779 397.285,97.070 397.600,97.400 397.600 C 97.733 397.600,98.000 397.956,98.000 398.400 C 98.000 398.929,98.267 399.200,98.787 399.200 C 99.323 399.200,99.501 399.392,99.345 399.800 C 99.179 400.231,99.386 400.400,100.077 400.400 C 100.941 400.400,101.023 400.543,100.876 401.800 C 100.749 402.888,100.856 403.200,101.356 403.200 C 101.710 403.200,102.000 403.491,102.000 403.847 C 102.000 404.296,102.244 404.430,102.800 404.284 C 103.436 404.118,103.600 404.272,103.600 405.037 C 103.600 405.626,103.833 406.000,104.200 406.000 C 104.570 406.000,104.800 406.375,104.800 406.979 C 104.800 407.998,106.355 410.000,107.146 410.000 C 107.396 410.000,107.600 410.360,107.600 410.800 C 107.600 411.244,107.867 411.600,108.200 411.600 C 108.579 411.600,108.800 411.982,108.800 412.637 C 108.800 413.338,109.059 413.743,109.600 413.884 C 110.043 414.000,110.400 414.430,110.400 414.847 C 110.400 415.261,110.670 415.600,111.000 415.600 C 111.330 415.600,111.600 415.870,111.600 416.200 C 111.600 416.533,111.956 416.800,112.400 416.800 C 113.048 416.800,113.200 417.067,113.200 418.200 C 113.200 419.178,113.381 419.600,113.800 419.600 C 114.130 419.600,114.400 419.870,114.400 420.200 C 114.400 420.530,114.670 420.800,115.000 420.800 C 115.555 420.800,115.787 421.296,115.631 422.150 C 115.596 422.342,115.984 422.420,116.495 422.322 C 117.336 422.161,117.408 422.268,117.268 423.468 C 117.157 424.416,117.296 424.862,117.757 425.039 C 118.111 425.175,118.400 425.536,118.400 425.843 C 118.400 426.165,118.806 426.400,119.363 426.400 C 120.128 426.400,120.282 426.564,120.116 427.200 C 119.970 427.756,120.104 428.000,120.553 428.000 C 121.151 428.000,121.390 428.670,121.230 429.900 C 121.194 430.175,121.533 430.400,121.982 430.400 C 122.548 430.400,122.800 430.661,122.800 431.247 C 122.800 431.877,122.991 432.043,123.549 431.897 C 124.126 431.747,124.253 431.874,124.103 432.451 C 123.955 433.014,124.123 433.200,124.777 433.200 C 125.286 433.200,125.539 433.375,125.386 433.623 C 124.969 434.297,125.558 436.000,126.208 436.000 C 126.533 436.000,126.800 436.276,126.800 436.613 C 126.800 436.949,127.070 437.329,127.400 437.455 C 127.730 437.582,128.000 437.936,128.000 438.243 C 128.000 438.549,128.360 438.800,128.800 438.800 C 129.424 438.800,129.600 439.067,129.600 440.013 C 129.600 440.721,129.849 441.321,130.200 441.455 C 130.530 441.582,130.800 441.936,130.800 442.243 C 130.800 442.549,131.058 442.800,131.373 442.800 C 131.688 442.800,132.060 443.160,132.200 443.600 C 132.340 444.040,132.712 444.400,133.027 444.400 C 133.397 444.400,133.600 444.825,133.600 445.600 C 133.600 446.791,133.988 447.027,135.600 446.816 C 136.017 446.762,135.956 446.928,135.400 447.362 C 134.606 447.982,134.607 447.989,135.500 448.240 C 135.995 448.379,136.400 448.762,136.400 449.089 C 136.400 449.455,136.632 449.597,137.000 449.455 C 137.464 449.277,137.600 449.548,137.600 450.650 C 137.600 451.738,137.789 452.124,138.400 452.284 C 138.843 452.400,139.200 452.830,139.200 453.247 C 139.200 453.661,139.470 454.000,139.800 454.000 C 140.130 454.000,140.400 454.291,140.400 454.647 C 140.400 455.080,140.645 455.229,141.144 455.099 C 141.642 454.969,141.888 455.118,141.889 455.552 C 141.893 457.454,142.052 458.000,142.600 458.000 C 142.930 458.000,143.200 458.249,143.200 458.553 C 143.200 458.858,143.578 459.206,144.040 459.326 C 144.537 459.456,144.766 459.732,144.600 460.000 C 144.434 460.268,144.663 460.544,145.160 460.674 C 145.768 460.833,146.000 461.211,146.000 462.047 C 146.000 462.805,146.205 463.200,146.600 463.200 C 146.930 463.200,147.200 463.538,147.200 463.950 C 147.200 464.476,147.589 464.778,148.500 464.962 C 149.521 465.168,149.671 465.306,149.200 465.606 C 148.688 465.932,148.703 465.989,149.300 465.994 C 149.832 465.999,150.000 466.336,150.000 467.400 C 150.000 468.325,150.188 468.800,150.553 468.800 C 150.858 468.800,151.201 469.160,151.316 469.600 C 151.431 470.040,151.812 470.400,152.163 470.400 C 152.513 470.400,152.800 470.670,152.800 471.000 C 152.800 471.330,153.070 471.600,153.400 471.600 C 153.730 471.600,154.000 471.945,154.000 472.367 C 154.000 473.559,154.431 474.400,155.043 474.400 C 155.349 474.400,155.600 474.670,155.600 475.000 C 155.600 475.330,155.870 475.600,156.200 475.600 C 156.533 475.600,156.800 475.956,156.800 476.400 C 156.800 476.933,157.067 477.200,157.600 477.200 C 158.216 477.200,158.400 477.467,158.400 478.357 C 158.400 479.017,158.658 479.613,159.000 479.745 C 159.330 479.871,159.600 480.230,159.600 480.541 C 159.600 480.852,159.978 481.206,160.440 481.326 C 160.903 481.447,161.162 481.738,161.017 481.973 C 160.862 482.223,161.095 482.400,161.576 482.400 C 162.251 482.400,162.400 482.653,162.400 483.800 C 162.400 484.725,162.588 485.200,162.953 485.200 C 163.258 485.200,163.601 485.560,163.716 486.000 C 163.831 486.440,164.212 486.800,164.563 486.800 C 164.913 486.800,165.200 487.070,165.200 487.400 C 165.200 487.730,165.470 488.000,165.800 488.000 C 166.204 488.000,166.400 488.404,166.400 489.237 C 166.400 490.138,166.617 490.532,167.200 490.684 C 167.640 490.799,168.000 491.142,168.000 491.447 C 168.000 491.751,168.270 492.000,168.600 492.000 C 168.933 492.000,169.200 492.356,169.200 492.800 C 169.200 493.244,169.467 493.600,169.800 493.600 C 170.130 493.600,170.414 493.735,170.431 493.900 C 170.557 495.138,170.842 495.842,171.378 496.233 C 171.720 496.483,172.000 496.893,172.000 497.144 C 172.000 497.395,172.249 497.600,172.553 497.600 C 172.858 497.600,173.201 497.960,173.316 498.400 C 173.431 498.840,173.812 499.200,174.163 499.200 C 174.604 499.200,174.800 499.569,174.800 500.400 C 174.800 501.200,175.000 501.600,175.400 501.600 C 175.733 501.600,176.000 501.956,176.000 502.400 C 176.000 503.299,177.387 503.537,177.751 502.700 C 177.870 502.425,177.866 502.695,177.741 503.300 C 177.567 504.138,177.666 504.400,178.157 504.400 C 178.609 504.400,178.800 504.767,178.800 505.637 C 178.800 506.524,179.019 506.932,179.572 507.077 C 180.003 507.189,180.255 507.511,180.143 507.803 C 180.031 508.097,180.307 508.444,180.771 508.591 C 181.227 508.736,181.600 509.112,181.600 509.427 C 181.600 509.742,181.870 510.000,182.200 510.000 C 182.604 510.000,182.800 510.404,182.800 511.237 C 182.800 512.138,183.017 512.532,183.600 512.684 C 184.040 512.799,184.400 513.142,184.400 513.447 C 184.400 513.751,184.670 514.000,185.000 514.000 C 185.333 514.000,185.600 514.356,185.600 514.800 C 185.600 515.333,185.867 515.600,186.400 515.600 C 186.840 515.600,187.179 515.735,187.153 515.900 C 186.978 517.003,187.286 518.000,187.800 518.000 C 188.133 518.000,188.400 518.356,188.400 518.800 C 188.400 519.333,188.667 519.600,189.200 519.600 C 189.640 519.600,189.955 519.825,189.900 520.100 C 189.845 520.375,190.115 520.575,190.500 520.544 C 191.056 520.500,191.200 520.808,191.200 522.044 C 191.200 523.102,191.377 523.600,191.753 523.600 C 192.058 523.600,192.401 523.960,192.516 524.400 C 192.631 524.840,193.012 525.200,193.363 525.200 C 193.713 525.200,194.000 525.470,194.000 525.800 C 194.000 526.130,194.270 526.400,194.600 526.400 C 194.982 526.400,195.200 526.784,195.200 527.454 C 195.200 528.465,196.790 530.400,197.621 530.400 C 197.829 530.400,198.000 530.580,198.000 530.800 C 198.000 531.459,201.083 531.281,201.342 530.607 C 201.471 530.269,201.835 530.115,202.184 530.249 C 203.088 530.596,204.785 528.807,204.793 527.500 C 204.798 526.792,205.014 526.400,205.400 526.400 C 205.730 526.400,206.000 526.130,206.000 525.800 C 206.000 525.470,206.287 525.200,206.637 525.200 C 206.988 525.200,207.369 524.840,207.484 524.400 C 207.599 523.960,207.942 523.600,208.247 523.600 C 208.612 523.600,208.800 523.125,208.800 522.200 C 208.800 521.067,208.952 520.800,209.600 520.800 C 210.044 520.800,210.400 520.533,210.400 520.200 C 210.400 519.870,210.670 519.600,211.000 519.600 C 211.333 519.600,211.600 519.244,211.600 518.800 C 211.600 518.360,211.856 518.000,212.168 518.000 C 212.481 518.000,212.855 517.460,213.000 516.800 C 213.145 516.140,213.519 515.600,213.832 515.600 C 214.144 515.600,214.400 515.240,214.400 514.800 C 214.400 514.356,214.667 514.000,215.000 514.000 C 215.330 514.000,215.600 513.751,215.600 513.447 C 215.600 513.142,215.960 512.799,216.400 512.684 C 216.983 512.532,217.200 512.138,217.200 511.237 C 217.200 510.364,217.390 510.000,217.847 510.000 C 218.282 510.000,218.429 509.755,218.297 509.251 C 218.145 508.668,218.273 508.546,218.874 508.704 C 219.417 508.846,219.711 508.660,219.863 508.081 C 219.982 507.627,220.331 507.159,220.639 507.040 C 220.950 506.921,221.200 506.283,221.200 505.613 C 221.200 504.667,221.376 504.400,222.000 504.400 C 222.444 504.400,222.800 504.133,222.800 503.800 C 222.800 503.470,223.070 503.200,223.400 503.200 C 223.733 503.200,224.000 502.844,224.000 502.400 C 224.000 501.956,224.267 501.600,224.600 501.600 C 225.000 501.600,225.200 501.200,225.200 500.400 C 225.200 499.569,225.396 499.200,225.837 499.200 C 226.188 499.200,226.569 498.840,226.684 498.400 C 226.799 497.960,227.142 497.600,227.447 497.600 C 227.751 497.600,228.000 497.420,228.000 497.200 C 228.000 496.980,228.360 496.440,228.800 496.000 C 229.240 495.560,229.600 494.840,229.600 494.400 C 229.600 493.956,229.867 493.600,230.200 493.600 C 230.924 493.600,231.006 492.156,230.300 491.849 C 230.025 491.730,230.323 491.741,230.962 491.875 C 231.973 492.086,232.097 492.016,231.919 491.333 C 231.762 490.733,231.911 490.555,232.557 490.574 C 233.222 490.595,233.426 490.326,233.525 489.300 C 233.603 488.495,233.869 488.000,234.225 488.000 C 234.541 488.000,234.800 487.730,234.800 487.400 C 234.800 487.070,235.087 486.800,235.437 486.800 C 235.788 486.800,236.169 486.440,236.284 486.000 C 236.399 485.560,236.742 485.200,237.047 485.200 C 237.412 485.200,237.600 484.725,237.600 483.800 C 237.600 482.667,237.752 482.400,238.400 482.400 C 238.844 482.400,239.200 482.133,239.200 481.800 C 239.200 481.470,239.470 481.200,239.800 481.200 C 240.130 481.200,240.400 480.924,240.400 480.587 C 240.400 480.251,240.670 479.871,241.000 479.745 C 241.342 479.613,241.600 479.017,241.600 478.357 C 241.600 477.467,241.784 477.200,242.400 477.200 C 242.933 477.200,243.200 476.933,243.200 476.400 C 243.200 475.956,243.467 475.600,243.800 475.600 C 244.130 475.600,244.400 475.330,244.400 475.000 C 244.400 474.670,244.667 474.400,244.992 474.400 C 245.640 474.400,246.214 472.734,245.873 471.846 C 245.723 471.456,245.889 471.351,246.430 471.492 C 247.301 471.720,247.541 470.615,246.700 470.249 C 246.425 470.130,246.706 470.137,247.325 470.265 C 248.240 470.456,248.490 470.341,248.671 469.650 C 248.793 469.182,249.142 468.800,249.447 468.800 C 249.812 468.800,250.000 468.325,250.000 467.400 C 250.000 466.422,250.181 466.000,250.600 466.000 C 250.930 466.000,251.200 465.730,251.200 465.400 C 251.200 465.067,251.556 464.800,252.000 464.800 C 252.533 464.800,252.800 464.533,252.800 464.000 C 252.800 463.556,253.067 463.200,253.400 463.200 C 253.800 463.200,254.000 462.800,254.000 462.000 C 254.000 461.169,254.196 460.800,254.637 460.800 C 254.988 460.800,255.369 460.440,255.484 460.000 C 255.599 459.560,255.942 459.200,256.247 459.200 C 256.551 459.200,256.800 458.930,256.800 458.600 C 256.800 458.270,257.062 458.000,257.382 458.000 C 257.730 458.000,258.069 457.438,258.226 456.600 C 258.377 455.798,258.726 455.200,259.045 455.200 C 259.350 455.200,259.600 454.949,259.600 454.643 C 259.600 454.336,259.870 453.982,260.200 453.855 C 260.530 453.729,260.800 453.370,260.800 453.059 C 260.800 452.748,261.160 452.399,261.600 452.284 C 262.183 452.132,262.400 451.738,262.400 450.837 C 262.400 450.004,262.596 449.600,263.000 449.600 C 263.330 449.600,263.600 449.330,263.600 449.000 C 263.600 448.670,263.887 448.400,264.237 448.400 C 264.588 448.400,264.969 448.040,265.084 447.600 C 265.199 447.160,265.542 446.800,265.847 446.800 C 266.195 446.800,266.400 446.355,266.400 445.600 C 266.400 444.769,266.596 444.400,267.037 444.400 C 267.388 444.400,267.769 444.040,267.884 443.600 C 267.999 443.160,268.342 442.800,268.647 442.800 C 268.951 442.800,269.200 442.549,269.200 442.243 C 269.200 441.936,269.470 441.582,269.800 441.455 C 270.151 441.321,270.400 440.721,270.400 440.013 C 270.400 439.067,270.576 438.800,271.200 438.800 C 271.640 438.800,272.000 438.549,272.000 438.243 C 272.000 437.936,272.270 437.582,272.600 437.455 C 272.930 437.329,273.200 436.949,273.200 436.613 C 273.200 436.276,273.451 436.000,273.757 436.000 C 274.369 436.000,274.800 435.159,274.800 433.967 C 274.800 433.545,275.070 433.200,275.400 433.200 C 275.730 433.200,276.000 432.930,276.000 432.600 C 276.000 432.270,276.270 432.000,276.600 432.000 C 276.930 432.000,277.179 431.865,277.153 431.700 C 277.013 430.816,277.284 430.400,278.000 430.400 C 278.622 430.400,278.800 430.133,278.800 429.200 C 278.800 428.400,279.000 428.000,279.400 428.000 C 279.733 428.000,280.000 427.644,280.000 427.200 C 280.000 426.667,280.267 426.400,280.800 426.400 C 281.240 426.400,281.600 426.149,281.600 425.843 C 281.600 425.536,281.870 425.182,282.200 425.055 C 282.551 424.921,282.800 424.321,282.800 423.613 C 282.800 422.667,282.976 422.400,283.600 422.400 C 284.133 422.400,284.400 422.133,284.400 421.600 C 284.400 421.156,284.667 420.800,285.000 420.800 C 285.330 420.800,285.600 420.530,285.600 420.200 C 285.600 419.870,285.870 419.600,286.200 419.600 C 286.619 419.600,286.800 419.178,286.800 418.200 C 286.800 417.067,286.952 416.800,287.600 416.800 C 288.044 416.800,288.400 416.533,288.400 416.200 C 288.400 415.870,288.670 415.600,289.000 415.600 C 289.330 415.600,289.600 415.261,289.600 414.847 C 289.600 414.430,289.957 414.000,290.400 413.884 C 290.941 413.743,291.200 413.338,291.200 412.637 C 291.200 411.982,291.421 411.600,291.800 411.600 C 292.133 411.600,292.400 411.244,292.400 410.800 C 292.400 410.360,292.604 410.000,292.854 410.000 C 293.753 410.000,295.277 407.915,295.091 406.941 C 294.954 406.226,295.089 406.000,295.655 406.000 C 296.133 406.000,296.400 405.713,296.400 405.200 C 296.400 404.667,296.667 404.400,297.200 404.400 C 297.644 404.400,298.000 404.133,298.000 403.800 C 298.000 403.470,298.270 403.200,298.600 403.200 C 299.019 403.200,299.200 402.778,299.200 401.800 C 299.200 400.667,299.352 400.400,300.000 400.400 C 300.444 400.400,300.800 400.133,300.800 399.800 C 300.800 399.470,301.070 399.200,301.400 399.200 C 301.733 399.200,302.000 398.844,302.000 398.400 C 302.000 397.960,302.262 397.600,302.582 397.600 C 302.930 397.600,303.269 397.038,303.426 396.200 C 303.577 395.398,303.926 394.800,304.245 394.800 C 304.550 394.800,304.800 394.530,304.800 394.200 C 304.800 393.870,305.070 393.600,305.400 393.600 C 305.730 393.600,306.000 393.336,306.000 393.014 C 306.000 392.692,306.360 392.235,306.800 392.000 C 307.268 391.750,307.600 391.162,307.600 390.586 C 307.600 389.976,307.829 389.600,308.200 389.600 C 308.533 389.600,308.800 389.244,308.800 388.800 C 308.800 388.267,309.067 388.000,309.600 388.000 C 310.040 388.000,310.400 387.749,310.400 387.443 C 310.400 387.136,310.670 386.782,311.000 386.655 C 311.351 386.521,311.600 385.921,311.600 385.213 C 311.600 384.267,311.776 384.000,312.400 384.000 C 312.840 384.000,313.200 383.749,313.200 383.443 C 313.200 383.136,313.470 382.782,313.800 382.655 C 314.130 382.529,314.400 382.149,314.400 381.813 C 314.400 381.476,314.670 381.200,315.000 381.200 C 315.419 381.200,315.600 380.778,315.600 379.800 C 315.600 378.667,315.752 378.400,316.400 378.400 C 316.844 378.400,317.200 378.133,317.200 377.800 C 317.200 377.470,317.470 377.200,317.800 377.200 C 318.133 377.200,318.400 376.844,318.400 376.400 C 318.400 375.950,318.667 375.600,319.010 375.600 C 319.368 375.600,319.719 375.104,319.860 374.400 C 319.992 373.740,320.348 373.200,320.650 373.200 C 320.953 373.200,321.200 372.840,321.200 372.400 C 321.200 371.867,321.467 371.600,322.000 371.600 C 322.440 371.600,322.800 371.349,322.800 371.043 C 322.800 370.736,323.070 370.382,323.400 370.255 C 323.751 370.121,324.000 369.521,324.000 368.813 C 324.000 367.966,324.194 367.600,324.643 367.600 C 325.050 367.600,325.201 367.380,325.055 367.000 C 324.897 366.586,325.081 366.400,325.650 366.400 C 326.138 366.400,326.560 366.074,326.684 365.600 C 326.799 365.160,327.142 364.800,327.447 364.800 C 327.812 364.800,328.000 364.325,328.000 363.400 C 328.000 362.267,328.152 362.000,328.800 362.000 C 329.244 362.000,329.600 361.733,329.600 361.400 C 329.600 361.070,329.870 360.800,330.200 360.800 C 330.533 360.800,330.800 360.444,330.800 360.000 C 330.800 359.556,331.067 359.200,331.400 359.200 C 331.795 359.200,332.000 358.805,332.000 358.047 C 332.000 357.230,332.233 356.832,332.800 356.684 C 333.240 356.569,333.600 356.188,333.600 355.837 C 333.600 355.487,333.870 355.200,334.200 355.200 C 334.530 355.200,334.800 354.973,334.800 354.696 C 334.800 354.419,335.160 353.968,335.600 353.693 C 336.052 353.410,336.400 352.760,336.400 352.197 C 336.400 351.545,336.624 351.200,337.047 351.200 C 337.496 351.200,337.630 350.956,337.484 350.400 C 337.337 349.839,337.473 349.598,337.937 349.593 C 339.098 349.581,340.509 347.725,340.323 346.455 C 340.185 345.514,340.281 345.348,340.878 345.504 C 341.337 345.625,341.600 345.475,341.600 345.093 C 341.600 344.763,341.960 344.399,342.400 344.284 C 342.840 344.169,343.200 343.788,343.200 343.437 C 343.200 343.087,343.470 342.800,343.800 342.800 C 344.195 342.800,344.400 342.405,344.400 341.647 C 344.400 340.830,344.633 340.432,345.200 340.284 C 345.640 340.169,346.000 339.788,346.000 339.437 C 346.000 339.087,346.270 338.800,346.600 338.800 C 346.930 338.800,347.200 338.549,347.200 338.243 C 347.200 337.936,347.453 337.588,347.762 337.470 C 348.072 337.351,348.446 336.702,348.594 336.027 C 348.742 335.352,349.119 334.800,349.432 334.800 C 349.744 334.800,350.000 334.440,350.000 334.000 C 350.000 333.556,350.267 333.200,350.600 333.200 C 350.930 333.200,351.200 332.951,351.200 332.647 C 351.200 332.342,351.560 331.999,352.000 331.884 C 352.583 331.732,352.800 331.338,352.800 330.437 C 352.800 329.604,352.996 329.200,353.400 329.200 C 353.730 329.200,354.000 328.951,354.000 328.647 C 354.000 328.342,354.360 327.999,354.800 327.884 C 355.240 327.769,355.600 327.388,355.600 327.037 C 355.600 326.687,355.870 326.400,356.200 326.400 C 356.631 326.400,356.800 325.960,356.800 324.837 C 356.800 323.472,356.901 323.301,357.600 323.484 C 358.156 323.630,358.400 323.496,358.400 323.047 C 358.400 322.691,358.670 322.400,359.000 322.400 C 359.333 322.400,359.600 322.044,359.600 321.600 C 359.600 321.139,359.867 320.800,360.229 320.800 C 360.679 320.800,360.821 320.488,360.729 319.700 C 360.625 318.816,360.777 318.575,361.500 318.472 C 362.078 318.390,362.400 318.068,362.400 317.572 C 362.400 317.147,362.670 316.800,363.000 316.800 C 363.395 316.800,363.600 316.405,363.600 315.647 C 363.600 314.830,363.833 314.432,364.400 314.284 C 364.840 314.169,365.200 313.788,365.200 313.437 C 365.200 313.087,365.470 312.800,365.800 312.800 C 366.219 312.800,366.400 312.378,366.400 311.400 C 366.400 310.267,366.552 310.000,367.200 310.000 C 367.640 310.000,368.000 309.749,368.000 309.443 C 368.000 309.136,368.270 308.782,368.600 308.655 C 368.951 308.521,369.200 307.921,369.200 307.213 C 369.200 306.401,369.399 306.000,369.800 306.000 C 370.130 306.000,370.400 305.736,370.400 305.414 C 370.400 305.092,370.760 304.635,371.200 304.400 C 371.668 304.150,372.000 303.562,372.000 302.986 C 372.000 302.376,372.229 302.000,372.600 302.000 C 373.015 302.000,373.200 301.583,373.200 300.647 C 373.200 299.630,373.399 299.241,374.000 299.084 C 374.440 298.969,374.800 298.588,374.800 298.237 C 374.800 297.887,375.070 297.600,375.400 297.600 C 375.819 297.600,376.000 297.178,376.000 296.200 C 376.000 295.222,376.181 294.800,376.600 294.800 C 376.995 294.800,377.200 294.405,377.200 293.647 C 377.200 292.830,377.433 292.432,378.000 292.284 C 378.583 292.132,378.800 291.738,378.800 290.837 C 378.800 290.004,378.996 289.600,379.400 289.600 C 379.815 289.600,380.000 289.183,380.000 288.247 C 380.000 287.205,380.195 286.842,380.847 286.672 C 381.545 286.489,381.665 286.211,381.534 285.086 C 381.400 283.934,381.486 283.750,382.087 283.907 C 382.674 284.060,382.800 283.837,382.800 282.647 C 382.800 281.682,382.984 281.200,383.353 281.200 C 383.960 281.200,384.386 280.013,384.395 278.300 C 384.398 277.591,384.613 277.200,385.000 277.200 C 385.419 277.200,385.600 276.778,385.600 275.800 C 385.600 274.822,385.781 274.400,386.200 274.400 C 386.653 274.400,386.800 273.911,386.800 272.400 C 386.800 270.667,386.907 270.400,387.600 270.400 C 388.248 270.400,388.400 270.133,388.400 269.000 C 388.400 268.000,388.578 267.600,389.023 267.600 C 389.525 267.600,389.619 267.190,389.509 265.478 C 389.387 263.560,389.452 263.357,390.187 263.378 C 390.869 263.396,391.021 263.110,391.128 261.600 C 391.201 260.569,391.500 259.664,391.828 259.480 C 392.230 259.255,392.400 258.408,392.400 256.627 C 392.400 254.430,392.506 254.066,393.200 253.884 C 393.868 253.709,394.000 253.338,394.000 251.637 C 394.000 250.093,394.145 249.600,394.600 249.600 C 395.083 249.600,395.200 248.978,395.200 246.400 C 395.200 243.822,395.317 243.200,395.800 243.200 C 396.289 243.200,396.400 242.533,396.400 239.600 C 396.400 236.230,396.453 236.000,397.225 236.000 C 397.993 236.000,398.047 235.782,397.997 232.900 C 397.917 228.275,397.949 228.000,398.572 228.000 C 399.361 228.000,399.490 216.183,398.705 215.866 C 398.306 215.706,398.305 215.657,398.700 215.632 C 398.999 215.613,399.200 215.036,399.200 214.200 C 399.200 213.430,399.380 212.800,399.600 212.800 C 399.820 212.800,400.000 212.530,400.000 212.200 C 400.000 211.870,399.826 211.600,399.613 211.600 C 399.376 211.600,399.182 207.508,399.113 201.051 C 399.024 192.739,399.106 190.542,399.500 190.693 C 399.832 190.821,400.000 190.480,400.000 189.676 C 400.000 189.011,399.823 188.407,399.606 188.333 C 399.370 188.253,399.186 185.204,399.146 180.700 C 399.093 174.704,398.972 173.200,398.540 173.200 C 397.914 173.200,397.938 173.424,397.999 168.069 C 398.042 164.215,397.990 163.923,397.223 163.722 C 396.314 163.484,396.300 163.432,396.396 160.657 C 396.449 159.142,396.346 158.780,395.932 159.015 C 395.504 159.258,395.498 159.212,395.900 158.779 C 396.590 158.035,396.528 156.800,395.800 156.800 C 395.324 156.800,395.200 156.222,395.200 154.000 C 395.200 151.778,395.076 151.200,394.600 151.200 C 394.128 151.200,394.000 150.644,394.000 148.600 C 394.000 146.267,393.918 146.000,393.200 146.000 C 392.556 146.000,392.400 145.733,392.400 144.633 C 392.400 143.882,392.175 143.176,391.900 143.065 C 391.500 142.904,391.500 142.857,391.900 142.832 C 393.090 142.756,392.438 140.528,391.100 140.099 C 390.385 139.869,390.115 139.663,390.500 139.641 C 391.606 139.576,391.508 136.400,390.400 136.400 C 389.581 136.400,389.415 135.724,389.588 133.101 C 389.644 132.250,389.518 132.057,389.030 132.244 C 388.503 132.446,388.400 132.120,388.400 130.243 C 388.400 128.267,388.305 128.000,387.600 128.000 C 386.907 128.000,386.800 127.733,386.800 126.000 C 386.800 124.489,386.653 124.000,386.200 124.000 C 385.781 124.000,385.600 123.578,385.600 122.600 C 385.600 121.650,385.415 121.200,385.025 121.200 C 384.669 121.200,384.403 120.705,384.325 119.900 C 384.229 118.899,384.016 118.605,383.400 118.622 C 382.681 118.641,382.614 118.428,382.737 116.522 C 382.849 114.790,382.757 114.400,382.237 114.400 C 381.792 114.400,381.600 114.028,381.600 113.163 C 381.600 112.262,381.383 111.868,380.800 111.716 C 380.231 111.567,380.000 111.170,380.000 110.341 C 380.000 109.673,379.743 109.076,379.400 108.945 C 379.063 108.815,378.800 108.220,378.800 107.584 C 378.800 106.805,378.551 106.375,378.000 106.200 C 377.440 106.022,377.200 105.595,377.200 104.773 C 377.200 103.997,376.997 103.600,376.600 103.600 C 376.267 103.600,376.000 103.244,376.000 102.800 C 376.000 102.356,375.733 102.000,375.400 102.000 C 374.996 102.000,374.800 101.596,374.800 100.763 C 374.800 99.873,374.581 99.468,374.022 99.322 C 373.499 99.185,373.205 98.707,373.122 97.859 C 373.050 97.112,372.797 96.641,372.500 96.700 C 372.225 96.755,372.000 96.440,372.000 96.000 C 372.000 95.467,371.733 95.200,371.200 95.200 C 370.552 95.200,370.400 94.933,370.400 93.800 C 370.400 92.822,370.219 92.400,369.800 92.400 C 369.414 92.400,369.198 92.008,369.193 91.300 C 369.186 90.209,367.721 88.400,366.844 88.400 C 366.600 88.400,366.400 87.854,366.400 87.187 C 366.400 86.479,366.151 85.879,365.800 85.745 C 365.470 85.618,365.200 85.264,365.200 84.957 C 365.200 84.651,364.840 84.400,364.400 84.400 C 363.867 84.400,363.600 84.133,363.600 83.600 C 363.600 83.156,363.333 82.800,363.000 82.800 C 362.596 82.800,362.400 82.396,362.400 81.563 C 362.400 80.662,362.183 80.268,361.600 80.116 C 361.160 80.001,360.800 79.658,360.800 79.353 C 360.800 79.049,360.530 78.800,360.200 78.800 C 359.867 78.800,359.600 78.444,359.600 78.000 C 359.600 77.560,359.390 77.245,359.133 77.300 C 358.876 77.355,358.490 76.815,358.275 76.100 C 358.060 75.385,357.640 74.800,357.342 74.800 C 357.044 74.800,356.800 74.440,356.800 74.000 C 356.800 73.556,356.533 73.200,356.200 73.200 C 355.870 73.200,355.600 72.930,355.600 72.600 C 355.600 72.267,355.244 72.000,354.800 72.000 C 354.252 72.000,354.000 71.733,354.000 71.153 C 354.000 70.523,353.809 70.357,353.251 70.503 C 352.674 70.653,352.547 70.526,352.697 69.949 C 352.843 69.391,352.677 69.200,352.047 69.200 C 351.346 69.200,351.200 68.959,351.200 67.800 C 351.200 66.822,351.019 66.400,350.600 66.400 C 350.270 66.400,350.000 66.130,350.000 65.800 C 350.000 65.470,349.751 65.200,349.447 65.200 C 349.142 65.200,348.799 64.840,348.684 64.400 C 348.569 63.960,348.188 63.600,347.837 63.600 C 347.487 63.600,347.200 63.330,347.200 63.000 C 347.200 62.670,346.951 62.400,346.647 62.400 C 346.342 62.400,345.999 62.039,345.884 61.598 C 345.744 61.064,345.462 60.878,345.037 61.041 C 344.579 61.217,344.400 61.049,344.400 60.443 C 344.400 59.960,344.143 59.600,343.800 59.600 C 343.470 59.600,343.200 59.342,343.200 59.027 C 343.200 58.712,342.840 58.340,342.400 58.200 C 341.960 58.060,341.600 57.688,341.600 57.373 C 341.600 57.058,341.330 56.800,341.000 56.800 C 340.670 56.800,340.400 56.530,340.400 56.200 C 340.400 55.870,340.151 55.600,339.847 55.600 C 339.542 55.600,339.199 55.240,339.084 54.800 C 338.969 54.360,338.588 54.000,338.237 54.000 C 337.887 54.000,337.600 53.730,337.600 53.400 C 337.600 53.070,337.351 52.800,337.047 52.800 C 336.742 52.800,336.393 52.417,336.271 51.948 C 336.122 51.379,335.841 51.176,335.424 51.335 C 334.989 51.502,334.800 51.336,334.800 50.787 C 334.800 50.354,334.530 50.000,334.200 50.000 C 333.870 50.000,333.600 49.730,333.600 49.400 C 333.600 49.067,333.244 48.800,332.800 48.800 C 332.261 48.800,332.000 48.533,332.000 47.982 C 332.000 47.533,331.775 47.194,331.500 47.230 C 330.294 47.387,329.600 47.157,329.600 46.600 C 329.600 46.267,329.244 46.000,328.800 46.000 C 328.267 46.000,328.000 45.733,328.000 45.200 C 328.000 44.756,327.733 44.400,327.400 44.400 C 327.070 44.400,326.800 44.130,326.800 43.800 C 326.800 43.470,326.461 43.200,326.047 43.200 C 325.625 43.200,325.199 42.841,325.080 42.386 C 324.917 41.762,324.626 41.616,323.834 41.760 C 323.014 41.908,322.800 41.787,322.800 41.174 C 322.800 40.667,322.524 40.400,322.000 40.400 C 321.556 40.400,321.200 40.133,321.200 39.800 C 321.200 39.470,320.930 39.200,320.600 39.200 C 320.270 39.200,320.000 38.913,320.000 38.563 C 320.000 38.212,319.640 37.831,319.200 37.716 C 318.760 37.601,318.400 37.239,318.400 36.911 C 318.400 36.463,318.024 36.352,316.874 36.462 C 315.474 36.595,315.362 36.532,315.521 35.704 C 315.638 35.088,315.501 34.800,315.089 34.800 C 314.757 34.800,314.375 34.511,314.239 34.157 C 314.061 33.693,313.616 33.557,312.641 33.671 C 311.647 33.787,311.344 33.690,311.492 33.304 C 311.780 32.553,309.741 30.800,308.579 30.800 C 307.975 30.800,307.600 30.570,307.600 30.200 C 307.600 29.870,307.261 29.600,306.847 29.600 C 306.430 29.600,306.000 29.243,305.884 28.800 C 305.746 28.271,305.338 28.000,304.680 28.000 C 304.133 28.000,303.582 27.730,303.455 27.400 C 303.324 27.057,302.727 26.800,302.059 26.800 C 301.206 26.800,300.834 26.571,300.671 25.949 C 300.494 25.273,300.226 25.140,299.375 25.303 C 298.556 25.459,298.254 25.329,298.104 24.754 C 297.995 24.339,297.568 24.000,297.153 24.000 C 296.739 24.000,296.400 23.730,296.400 23.400 C 296.400 23.067,296.044 22.800,295.600 22.800 C 295.160 22.800,294.440 22.440,294.000 22.000 C 293.560 21.560,292.750 21.200,292.200 21.200 C 291.549 21.200,291.200 20.976,291.200 20.558 C 291.200 20.056,290.869 19.948,289.679 20.061 C 288.369 20.186,288.160 20.095,288.179 19.403 C 288.195 18.784,287.902 18.571,286.900 18.475 C 286.095 18.397,285.600 18.131,285.600 17.775 C 285.600 17.353,285.076 17.200,283.629 17.200 C 282.071 17.200,281.630 17.054,281.524 16.500 C 281.447 16.103,281.002 15.778,280.495 15.750 C 278.916 15.662,278.800 15.610,278.800 15.000 C 278.800 14.581,278.378 14.400,277.400 14.400 C 276.382 14.400,276.000 14.225,276.000 13.758 C 276.000 13.230,275.626 13.145,273.877 13.279 C 271.944 13.427,271.756 13.368,271.777 12.621 C 271.796 11.931,271.517 11.780,270.025 11.673 C 269.048 11.604,268.056 11.283,267.821 10.961 C 267.585 10.639,267.034 10.409,266.596 10.451 C 264.494 10.651,263.600 10.397,263.600 9.600 C 263.600 8.907,263.333 8.800,261.600 8.800 C 260.089 8.800,259.600 8.653,259.600 8.200 C 259.600 7.747,259.111 7.600,257.600 7.600 C 256.131 7.600,255.600 7.448,255.600 7.027 C 255.600 6.298,254.628 6.014,252.600 6.150 C 250.645 6.282,250.000 6.085,250.000 5.357 C 250.000 4.934,249.327 4.800,247.200 4.800 C 244.918 4.800,244.400 4.683,244.400 4.170 C 244.400 3.732,244.065 3.562,243.300 3.612 C 239.444 3.867,237.600 3.604,237.600 2.800 C 237.600 2.063,237.333 2.000,234.200 2.000 C 231.444 2.000,230.800 1.886,230.800 1.400 C 230.800 0.627,226.039 0.541,225.221 1.300 C 224.790 1.700,224.739 1.700,224.965 1.300 C 225.178 0.922,224.606 0.800,222.624 0.800 C 221.141 0.800,220.000 0.626,220.000 0.400 C 220.000 0.180,219.370 0.000,218.600 0.000 C 217.622 0.000,217.200 0.181,217.200 0.600 C 217.200 0.933,216.844 1.200,216.400 1.200 C 215.956 1.200,215.600 0.933,215.600 0.600 C 215.600 0.077,213.600 0.000,200.000 0.000 C 186.400 0.000,184.400 0.077,184.400 0.600 C 184.400 0.936,184.043 1.200,183.587 1.200 C 183.141 1.200,182.671 0.930,182.545 0.600 C 182.283 -0.081,180.540 -0.221,180.326 0.421 M192.543 67.507 C 192.647 67.676,192.028 67.748,191.166 67.665 C 190.305 67.583,189.600 67.445,189.600 67.358 C 189.600 67.060,192.353 67.200,192.543 67.507 M206.121 68.420 C 206.324 69.197,206.612 69.237,211.668 69.199 C 220.100 69.136,220.000 69.128,220.000 69.827 C 220.000 70.340,220.491 70.443,222.700 70.396 C 226.746 70.311,226.800 70.321,226.800 71.200 C 226.800 71.924,227.067 72.000,229.600 72.000 C 231.890 72.000,232.400 72.116,232.400 72.635 C 232.400 73.162,232.813 73.243,234.840 73.113 C 237.088 72.970,237.307 73.030,237.630 73.879 C 237.923 74.649,238.271 74.800,239.747 74.800 C 240.949 74.800,241.588 74.992,241.745 75.400 C 241.907 75.823,242.568 76.000,243.987 76.000 C 245.510 76.000,246.000 76.146,246.000 76.600 C 246.000 77.019,246.422 77.200,247.400 77.200 C 248.533 77.200,248.800 77.352,248.800 78.000 C 248.800 78.648,249.067 78.800,250.200 78.800 C 251.178 78.800,251.600 78.981,251.600 79.400 C 251.600 79.853,252.089 80.000,253.600 80.000 C 255.333 80.000,255.600 80.107,255.600 80.800 C 255.600 81.448,255.867 81.600,257.000 81.600 C 257.950 81.600,258.400 81.785,258.400 82.175 C 258.400 82.531,258.895 82.797,259.700 82.875 C 260.478 82.950,260.960 83.201,260.900 83.500 C 260.845 83.775,261.139 84.000,261.553 84.000 C 261.984 84.000,262.401 84.363,262.528 84.847 C 262.711 85.545,262.989 85.665,264.114 85.534 C 265.266 85.400,265.450 85.486,265.293 86.087 C 265.140 86.674,265.363 86.800,266.553 86.800 C 267.733 86.800,268.000 86.947,268.000 87.600 C 268.000 88.044,268.267 88.400,268.600 88.400 C 268.930 88.400,269.200 88.689,269.200 89.042 C 269.200 89.546,269.532 89.652,270.751 89.536 C 271.881 89.428,272.250 89.526,272.109 89.893 C 271.798 90.703,273.677 92.385,274.900 92.393 C 275.644 92.398,276.000 92.610,276.000 93.047 C 276.000 93.496,276.244 93.630,276.800 93.484 C 277.436 93.318,277.600 93.472,277.600 94.237 C 277.600 94.826,277.833 95.200,278.200 95.200 C 278.530 95.200,278.800 95.470,278.800 95.800 C 278.800 96.219,279.222 96.400,280.200 96.400 C 281.333 96.400,281.600 96.552,281.600 97.200 C 281.600 97.644,281.867 98.000,282.200 98.000 C 282.530 98.000,282.800 98.270,282.800 98.600 C 282.800 98.933,283.156 99.200,283.600 99.200 C 284.040 99.200,284.400 99.400,284.400 99.644 C 284.400 100.258,286.090 101.985,286.700 101.993 C 286.975 101.997,287.200 102.270,287.200 102.600 C 287.200 103.000,287.600 103.200,288.400 103.200 C 289.333 103.200,289.600 103.378,289.600 104.000 C 289.600 104.584,289.867 104.800,290.587 104.800 C 291.301 104.800,291.511 104.967,291.345 105.400 C 291.199 105.780,291.350 106.000,291.757 106.000 C 292.133 106.000,292.400 106.332,292.400 106.800 C 292.400 107.333,292.667 107.600,293.200 107.600 C 293.644 107.600,294.000 107.867,294.000 108.200 C 294.000 108.530,294.270 108.800,294.600 108.800 C 295.004 108.800,295.200 109.204,295.200 110.037 C 295.200 110.938,295.417 111.332,296.000 111.484 C 296.440 111.599,296.800 111.942,296.800 112.247 C 296.800 112.551,297.070 112.800,297.400 112.800 C 297.733 112.800,298.000 113.156,298.000 113.600 C 298.000 114.129,298.267 114.400,298.787 114.400 C 299.323 114.400,299.501 114.592,299.345 115.000 C 299.185 115.416,299.372 115.600,299.957 115.600 C 300.533 115.600,300.800 115.853,300.800 116.400 C 300.800 116.844,301.067 117.200,301.400 117.200 C 301.730 117.200,302.000 117.470,302.000 117.800 C 302.000 118.130,302.191 118.400,302.424 118.400 C 302.657 118.400,302.712 118.175,302.547 117.900 C 302.307 117.501,302.371 117.500,302.860 117.897 C 303.197 118.170,303.551 118.316,303.645 118.222 C 303.739 118.127,303.749 118.759,303.666 119.625 C 303.548 120.867,303.652 121.200,304.158 121.200 C 304.511 121.200,304.800 121.449,304.800 121.753 C 304.800 122.058,305.178 122.406,305.640 122.526 C 306.137 122.656,306.366 122.932,306.200 123.200 C 306.034 123.468,306.263 123.744,306.760 123.874 C 307.359 124.030,307.600 124.412,307.600 125.204 C 307.600 125.822,307.866 126.416,308.200 126.545 C 308.530 126.671,308.800 127.051,308.800 127.387 C 308.800 127.760,309.160 128.000,309.720 128.000 C 310.535 128.000,310.621 128.159,310.476 129.400 C 310.349 130.488,310.456 130.800,310.956 130.800 C 311.402 130.800,311.600 131.162,311.600 131.973 C 311.600 132.795,311.840 133.222,312.400 133.400 C 312.840 133.540,313.200 133.912,313.200 134.227 C 313.200 134.542,313.470 134.800,313.800 134.800 C 314.219 134.800,314.400 135.222,314.400 136.200 C 314.400 137.320,314.556 137.600,315.177 137.600 C 315.744 137.600,315.912 137.821,315.797 138.418 C 315.585 139.517,315.962 140.400,316.643 140.400 C 316.997 140.400,317.200 140.843,317.200 141.613 C 317.200 142.321,317.449 142.921,317.800 143.055 C 318.137 143.185,318.400 143.780,318.400 144.416 C 318.400 145.195,318.649 145.625,319.200 145.800 C 319.760 145.978,320.000 146.405,320.000 147.227 C 320.000 148.003,320.203 148.400,320.600 148.400 C 321.148 148.400,321.460 150.130,321.230 151.900 C 321.194 152.175,321.434 152.400,321.763 152.400 C 322.536 152.400,323.149 153.508,322.901 154.457 C 322.771 154.955,322.920 155.200,323.353 155.200 C 323.869 155.200,324.000 155.637,324.000 157.353 C 324.000 159.125,324.133 159.542,324.752 159.703 C 325.374 159.866,325.486 160.222,325.395 161.750 C 325.301 163.337,325.393 163.600,326.043 163.600 C 326.715 163.600,326.800 163.920,326.800 166.447 C 326.800 168.961,326.882 169.272,327.500 169.109 C 328.133 168.943,328.188 169.247,328.070 172.292 C 327.949 175.419,327.999 175.675,328.770 175.876 C 329.539 176.077,329.600 176.382,329.600 180.047 C 329.600 183.263,329.710 184.000,330.190 184.000 C 330.695 184.000,330.795 185.921,330.890 197.500 C 331.024 213.917,330.958 215.600,330.180 215.600 C 329.759 215.600,329.600 216.094,329.600 217.400 C 329.600 218.570,329.775 219.202,330.100 219.206 C 330.473 219.211,330.464 219.299,330.064 219.552 C 329.769 219.739,329.564 220.411,329.607 221.046 C 329.770 223.463,329.624 224.000,328.800 224.000 C 328.063 224.000,328.000 224.267,328.000 227.400 C 328.000 230.156,327.886 230.800,327.400 230.800 C 326.947 230.800,326.800 231.289,326.800 232.800 C 326.800 234.243,326.645 234.800,326.243 234.800 C 325.470 234.800,325.300 235.440,325.364 238.100 C 325.412 240.106,325.323 240.400,324.666 240.400 C 324.040 240.400,323.940 240.638,324.076 241.800 C 324.211 242.961,324.111 243.200,323.489 243.200 C 322.895 243.200,322.753 243.470,322.810 244.500 C 322.938 246.835,322.828 247.200,322.000 247.200 C 321.352 247.200,321.200 247.467,321.200 248.600 C 321.200 249.608,321.023 250.000,320.570 250.000 C 320.068 250.000,319.964 250.387,320.058 251.900 C 320.164 253.601,320.083 253.813,319.288 253.928 C 318.568 254.031,318.400 254.315,318.400 255.428 C 318.400 256.381,318.217 256.800,317.800 256.800 C 317.379 256.800,317.200 257.225,317.200 258.224 C 317.200 259.198,317.346 259.557,317.662 259.362 C 317.926 259.198,318.016 259.251,317.871 259.485 C 317.733 259.709,317.120 259.798,316.510 259.682 C 315.472 259.485,315.439 259.519,316.000 260.212 C 316.345 260.639,316.388 260.826,316.100 260.653 C 315.825 260.488,315.600 260.543,315.600 260.776 C 315.600 261.009,315.825 261.207,316.100 261.216 C 316.375 261.225,316.105 261.501,315.500 261.829 C 314.895 262.157,314.400 262.690,314.400 263.013 C 314.400 263.336,314.130 263.600,313.800 263.600 C 313.381 263.600,313.200 264.022,313.200 265.000 C 313.200 266.133,313.048 266.400,312.400 266.400 C 311.734 266.400,311.600 266.667,311.600 267.987 C 311.600 269.234,311.471 269.525,311.000 269.345 C 310.632 269.203,310.400 269.345,310.400 269.711 C 310.400 270.038,310.040 270.401,309.600 270.516 C 309.017 270.668,308.800 271.062,308.800 271.963 C 308.800 272.796,308.604 273.200,308.200 273.200 C 307.870 273.200,307.600 273.470,307.600 273.800 C 307.600 274.130,307.342 274.400,307.027 274.400 C 306.712 274.400,306.340 274.760,306.200 275.200 C 306.060 275.640,305.688 276.000,305.373 276.000 C 304.985 276.000,304.800 276.451,304.800 277.400 C 304.800 278.378,304.619 278.800,304.200 278.800 C 303.870 278.800,303.600 279.070,303.600 279.400 C 303.600 279.733,303.244 280.000,302.800 280.000 C 302.348 280.000,302.000 280.267,302.000 280.613 C 302.000 280.949,301.720 281.333,301.378 281.464 C 300.984 281.615,300.801 282.087,300.878 282.751 C 300.974 283.580,300.811 283.827,300.100 283.928 C 299.522 284.010,299.200 284.332,299.200 284.828 C 299.200 285.253,298.930 285.600,298.600 285.600 C 298.270 285.600,298.000 285.870,298.000 286.200 C 298.000 286.530,297.796 286.800,297.546 286.800 C 297.012 286.800,295.200 288.670,295.200 289.221 C 295.200 289.429,294.951 289.600,294.647 289.600 C 294.342 289.600,293.994 289.978,293.874 290.440 C 293.744 290.937,293.468 291.166,293.200 291.000 C 292.932 290.834,292.656 291.063,292.526 291.560 C 292.406 292.022,292.058 292.400,291.753 292.400 C 291.449 292.400,291.200 292.670,291.200 293.000 C 291.200 293.330,290.850 293.600,290.423 293.600 C 289.861 293.600,289.689 293.822,289.800 294.400 C 289.911 294.978,289.739 295.200,289.177 295.200 C 288.750 295.200,288.400 295.470,288.400 295.800 C 288.400 296.130,288.142 296.400,287.827 296.400 C 287.512 296.400,287.139 296.763,286.998 297.206 C 286.857 297.649,286.563 297.901,286.344 297.766 C 286.125 297.630,285.847 297.898,285.726 298.360 C 285.577 298.930,285.186 299.200,284.510 299.200 C 283.456 299.200,281.619 300.656,281.607 301.500 C 281.603 301.775,281.246 302.000,280.813 302.000 C 280.277 302.000,280.099 302.192,280.255 302.600 C 280.415 303.016,280.228 303.200,279.643 303.200 C 279.067 303.200,278.800 303.453,278.800 304.000 C 278.800 304.648,278.533 304.800,277.400 304.800 C 276.422 304.800,276.000 304.981,276.000 305.400 C 276.000 305.730,275.730 306.000,275.400 306.000 C 275.070 306.000,274.800 306.270,274.800 306.600 C 274.800 306.930,274.620 307.223,274.400 307.250 C 274.180 307.278,273.820 307.345,273.600 307.400 C 273.380 307.455,272.930 307.523,272.600 307.550 C 272.270 307.578,272.000 307.870,272.000 308.200 C 272.000 308.530,271.741 308.800,271.424 308.800 C 271.107 308.800,270.719 309.008,270.562 309.262 C 270.373 309.567,270.454 309.614,270.800 309.400 C 271.146 309.186,271.227 309.233,271.038 309.538 C 270.881 309.792,270.207 310.000,269.539 310.000 C 268.662 310.000,268.267 310.222,268.116 310.800 C 268.000 311.243,267.570 311.600,267.153 311.600 C 266.315 311.600,266.116 312.630,266.900 312.915 C 267.175 313.015,266.560 313.008,265.534 312.900 C 263.809 312.718,263.658 312.775,263.534 313.652 C 263.425 314.427,263.199 314.576,262.299 314.471 C 261.578 314.387,261.114 314.560,260.956 314.971 C 260.813 315.342,260.240 315.600,259.557 315.600 C 258.841 315.600,258.400 315.810,258.400 316.151 C 258.400 316.938,257.341 317.753,257.012 317.219 C 256.584 316.526,256.002 316.743,255.624 317.736 C 255.332 318.504,255.047 318.639,254.034 318.490 C 253.090 318.352,252.800 318.461,252.800 318.955 C 252.800 319.426,252.422 319.600,251.400 319.600 C 250.267 319.600,250.000 319.752,250.000 320.400 C 250.000 321.093,249.733 321.200,248.000 321.200 C 246.489 321.200,246.000 321.347,246.000 321.800 C 246.000 322.253,245.511 322.400,244.000 322.400 C 242.362 322.400,242.000 322.527,242.000 323.100 C 242.000 323.661,241.629 323.808,240.139 323.840 C 238.906 323.866,238.114 324.103,237.795 324.540 C 237.469 324.985,236.722 325.200,235.503 325.200 C 234.100 325.200,233.651 325.361,233.506 325.917 C 233.348 326.521,232.923 326.622,230.811 326.559 C 228.650 326.495,228.276 326.589,228.105 327.242 C 227.898 328.033,227.289 328.135,223.535 328.008 C 222.158 327.961,221.572 328.120,221.294 328.617 C 220.973 329.191,220.260 329.281,216.426 329.229 C 212.214 329.171,211.920 329.218,211.720 329.984 C 211.484 330.885,212.758 330.820,195.400 330.820 C 191.550 330.820,188.040 330.815,187.600 330.810 C 187.070 330.803,186.800 330.530,186.800 330.000 C 186.800 329.244,186.533 329.200,182.000 329.200 C 178.000 329.200,177.200 329.100,177.200 328.600 C 177.200 328.114,176.556 328.000,173.800 328.000 C 170.779 328.000,170.400 327.919,170.400 327.272 C 170.400 326.685,170.069 326.540,168.700 326.522 C 165.548 326.482,165.200 326.409,165.200 325.790 C 165.200 325.309,164.738 325.195,163.014 325.251 C 161.673 325.295,160.924 325.477,161.076 325.723 C 161.212 325.943,161.133 326.006,160.899 325.861 C 160.666 325.717,160.563 325.264,160.670 324.855 C 160.896 323.988,159.590 323.487,158.088 323.864 C 157.355 324.048,157.101 323.908,156.922 323.223 C 156.722 322.458,156.458 322.361,154.849 322.460 C 153.334 322.553,152.981 322.444,152.866 321.847 C 152.756 321.277,152.437 321.155,151.380 321.278 C 150.267 321.408,150.014 321.294,149.917 320.618 C 149.831 320.018,149.453 319.767,148.500 319.675 C 147.648 319.593,147.200 319.336,147.200 318.931 C 147.200 318.460,146.867 318.351,145.800 318.476 C 144.663 318.609,144.400 318.506,144.400 317.927 C 144.400 317.174,142.766 316.527,142.023 316.986 C 141.778 317.137,141.600 316.900,141.600 316.424 C 141.600 315.749,141.347 315.600,140.200 315.600 C 139.222 315.600,138.800 315.419,138.800 315.000 C 138.800 314.605,138.405 314.400,137.647 314.400 C 136.830 314.400,136.432 314.167,136.284 313.600 C 136.132 313.017,135.738 312.800,134.837 312.800 C 134.004 312.800,133.600 312.604,133.600 312.200 C 133.600 311.870,133.261 311.600,132.847 311.600 C 132.430 311.600,132.000 311.243,131.884 310.800 C 131.746 310.271,131.338 310.000,130.680 310.000 C 130.133 310.000,129.574 309.709,129.438 309.354 C 129.266 308.907,128.869 308.770,128.146 308.908 C 127.363 309.058,127.052 308.922,126.907 308.367 C 126.801 307.960,126.373 307.518,125.957 307.386 C 125.541 307.254,125.200 306.888,125.200 306.573 C 125.200 306.258,124.930 306.000,124.600 306.000 C 124.270 306.000,124.000 305.730,124.000 305.400 C 124.000 304.981,123.578 304.800,122.600 304.800 C 121.467 304.800,121.200 304.648,121.200 304.000 C 121.200 303.556,120.933 303.200,120.600 303.200 C 120.270 303.200,120.000 302.930,120.000 302.600 C 120.000 302.267,119.644 302.000,119.200 302.000 C 118.760 302.000,118.397 301.775,118.393 301.500 C 118.378 300.378,116.517 299.211,114.631 299.140 C 113.605 299.101,112.960 298.949,113.198 298.801 C 113.817 298.419,112.987 296.400,112.210 296.400 C 111.874 296.400,111.600 296.130,111.600 295.800 C 111.600 295.470,111.330 295.200,111.000 295.200 C 110.667 295.200,110.400 294.844,110.400 294.400 C 110.400 293.867,110.133 293.600,109.600 293.600 C 109.156 293.600,108.800 293.333,108.800 293.000 C 108.800 292.670,108.551 292.400,108.247 292.400 C 107.942 292.400,107.599 292.039,107.484 291.598 C 107.344 291.064,107.062 290.878,106.637 291.041 C 106.179 291.217,106.000 291.049,106.000 290.443 C 106.000 289.960,105.743 289.600,105.400 289.600 C 105.070 289.600,104.800 289.429,104.800 289.221 C 104.800 288.670,102.988 286.800,102.454 286.800 C 102.204 286.800,102.000 286.530,102.000 286.200 C 102.000 285.870,101.730 285.600,101.400 285.600 C 101.067 285.600,100.800 285.244,100.800 284.800 C 100.800 284.267,100.533 284.000,100.000 284.000 C 99.384 284.000,99.200 283.733,99.200 282.843 C 99.200 282.183,98.942 281.587,98.600 281.455 C 98.270 281.329,98.000 280.949,98.000 280.613 C 98.000 280.228,97.633 280.000,97.013 280.000 C 96.299 280.000,96.089 279.833,96.255 279.400 C 96.401 279.020,96.250 278.800,95.843 278.800 C 95.375 278.800,95.200 278.419,95.200 277.400 C 95.200 276.451,95.015 276.000,94.627 276.000 C 94.312 276.000,93.940 275.640,93.800 275.200 C 93.660 274.760,93.288 274.400,92.973 274.400 C 92.658 274.400,92.400 274.130,92.400 273.800 C 92.400 273.470,92.130 273.200,91.800 273.200 C 91.381 273.200,91.200 272.778,91.200 271.800 C 91.200 270.667,91.048 270.400,90.400 270.400 C 89.956 270.400,89.600 270.133,89.600 269.800 C 89.600 269.470,89.276 269.200,88.880 269.200 C 88.293 269.200,88.191 268.942,88.324 267.800 C 88.465 266.591,88.373 266.400,87.644 266.400 C 86.779 266.400,86.652 266.109,86.792 264.444 C 86.855 263.690,86.714 263.529,86.123 263.684 C 85.482 263.851,85.397 263.688,85.531 262.544 C 85.643 261.584,85.505 261.139,85.043 260.961 C 84.689 260.825,84.400 260.464,84.400 260.157 C 84.400 259.851,84.040 259.600,83.600 259.600 C 82.952 259.600,82.800 259.333,82.800 258.200 C 82.800 257.222,82.619 256.800,82.200 256.800 C 81.754 256.800,81.600 256.329,81.600 254.963 C 81.600 253.462,81.454 253.087,80.800 252.916 C 80.199 252.759,80.000 252.370,80.000 251.353 C 80.000 250.417,79.815 250.000,79.400 250.000 C 78.981 250.000,78.800 249.578,78.800 248.600 C 78.800 247.467,78.648 247.200,78.000 247.200 C 77.175 247.200,76.989 246.556,77.165 244.300 C 77.225 243.532,77.062 243.200,76.626 243.200 C 76.141 243.200,76.000 242.746,76.000 241.187 C 76.000 239.768,75.823 239.107,75.400 238.945 C 74.992 238.788,74.800 238.149,74.800 236.944 C 74.800 235.491,74.644 235.117,73.928 234.852 C 73.147 234.563,73.066 234.276,73.154 232.117 C 73.231 230.235,73.115 229.653,72.626 229.465 C 72.146 229.281,72.000 228.614,72.000 226.613 C 72.000 224.267,71.918 224.000,71.200 224.000 C 70.451 224.000,70.400 223.733,70.400 219.800 C 70.400 216.690,70.269 215.600,69.896 215.600 C 69.619 215.600,69.156 215.221,68.867 214.758 C 68.578 214.295,68.512 214.022,68.722 214.152 C 69.313 214.517,69.258 187.956,68.666 187.224 C 68.299 186.769,68.313 186.714,68.733 186.967 C 69.148 187.217,69.250 186.902,69.196 185.544 C 69.094 183.004,69.139 182.800,69.800 182.800 C 70.221 182.800,70.400 182.375,70.400 181.376 C 70.400 180.354,70.259 180.032,69.900 180.235 C 69.500 180.461,69.500 180.410,69.900 179.979 C 70.190 179.666,70.400 178.382,70.400 176.920 C 70.400 174.667,70.485 174.400,71.200 174.400 C 71.917 174.400,72.000 174.133,72.000 171.820 C 72.000 169.917,72.161 169.150,72.614 168.896 C 73.087 168.631,73.201 167.959,73.114 165.955 C 73.010 163.581,73.069 163.359,73.800 163.379 C 74.466 163.396,74.621 163.099,74.728 161.600 C 74.801 160.569,75.100 159.664,75.428 159.480 C 75.804 159.270,76.000 158.481,76.000 157.180 C 76.000 155.687,76.147 155.200,76.600 155.200 C 77.053 155.200,77.200 154.711,77.200 153.200 C 77.200 151.467,77.307 151.200,78.000 151.200 C 78.648 151.200,78.800 150.933,78.800 149.800 C 78.800 148.822,78.981 148.400,79.400 148.400 C 79.798 148.400,80.000 148.002,80.000 147.214 C 80.000 146.438,80.276 145.880,80.800 145.600 C 81.272 145.347,81.600 144.762,81.600 144.173 C 81.600 143.624,81.870 143.071,82.200 142.945 C 82.530 142.818,82.800 142.284,82.800 141.757 C 82.800 141.231,83.160 140.440,83.600 140.000 C 84.040 139.560,84.400 138.840,84.400 138.400 C 84.400 137.956,84.667 137.600,85.000 137.600 C 85.419 137.600,85.600 137.178,85.600 136.200 C 85.600 135.222,85.781 134.800,86.200 134.800 C 86.619 134.800,86.800 134.378,86.800 133.400 C 86.800 132.267,86.952 132.000,87.600 132.000 C 88.040 132.000,88.400 131.749,88.400 131.443 C 88.400 131.136,88.670 130.782,89.000 130.655 C 89.351 130.521,89.600 129.921,89.600 129.213 C 89.600 128.267,89.776 128.000,90.400 128.000 C 90.933 128.000,91.200 127.733,91.200 127.200 C 91.200 126.756,91.467 126.400,91.800 126.400 C 92.200 126.400,92.400 126.000,92.400 125.200 C 92.400 124.369,92.596 124.000,93.037 124.000 C 93.388 124.000,93.769 123.640,93.884 123.200 C 93.999 122.760,94.342 122.400,94.647 122.400 C 94.951 122.400,95.200 122.130,95.200 121.800 C 95.200 121.470,95.470 121.200,95.800 121.200 C 96.219 121.200,96.400 120.778,96.400 119.800 C 96.400 118.667,96.552 118.400,97.200 118.400 C 97.644 118.400,98.000 118.133,98.000 117.800 C 98.000 117.470,98.270 117.200,98.600 117.200 C 98.933 117.200,99.200 116.844,99.200 116.400 C 99.200 115.867,99.467 115.600,100.000 115.600 C 100.440 115.600,100.800 115.349,100.800 115.043 C 100.800 114.736,101.070 114.382,101.400 114.255 C 101.730 114.129,102.000 113.749,102.000 113.413 C 102.000 113.076,102.256 112.800,102.568 112.800 C 102.881 112.800,103.255 112.260,103.400 111.600 C 103.545 110.940,103.919 110.400,104.232 110.400 C 104.544 110.400,104.800 110.040,104.800 109.600 C 104.800 109.156,105.067 108.800,105.400 108.800 C 105.730 108.800,106.000 108.530,106.000 108.200 C 106.000 107.867,106.356 107.600,106.800 107.600 C 107.333 107.600,107.600 107.333,107.600 106.800 C 107.600 106.356,107.867 106.000,108.200 106.000 C 108.530 106.000,108.800 105.730,108.800 105.400 C 108.800 105.067,109.156 104.800,109.600 104.800 C 110.133 104.800,110.400 104.533,110.400 104.000 C 110.400 103.378,110.667 103.200,111.600 103.200 C 112.400 103.200,112.800 103.000,112.800 102.600 C 112.800 102.270,113.025 101.997,113.300 101.993 C 113.910 101.985,115.600 100.258,115.600 99.644 C 115.600 99.400,115.960 99.200,116.400 99.200 C 116.844 99.200,117.200 98.933,117.200 98.600 C 117.200 98.270,117.470 98.000,117.800 98.000 C 118.133 98.000,118.400 97.644,118.400 97.200 C 118.400 96.552,118.667 96.400,119.800 96.400 C 120.778 96.400,121.200 96.219,121.200 95.800 C 121.200 95.470,121.487 95.200,121.837 95.200 C 122.188 95.200,122.569 94.840,122.684 94.400 C 122.799 93.960,123.142 93.600,123.447 93.600 C 123.751 93.600,124.000 93.330,124.000 93.000 C 124.000 92.599,124.401 92.400,125.213 92.400 C 125.921 92.400,126.521 92.151,126.655 91.800 C 126.782 91.470,127.136 91.200,127.443 91.200 C 127.749 91.200,128.000 90.840,128.000 90.400 C 128.000 89.752,128.267 89.600,129.400 89.600 C 130.378 89.600,130.800 89.419,130.800 89.000 C 130.800 88.670,131.070 88.400,131.400 88.400 C 131.733 88.400,132.000 88.044,132.000 87.600 C 132.000 86.785,132.303 86.655,133.900 86.784 C 134.482 86.832,134.800 86.635,134.800 86.229 C 134.800 85.777,135.194 85.600,136.200 85.600 C 137.333 85.600,137.600 85.448,137.600 84.800 C 137.600 84.152,137.867 84.000,139.000 84.000 C 139.978 84.000,140.400 83.819,140.400 83.400 C 140.400 82.999,140.801 82.800,141.613 82.800 C 142.321 82.800,142.921 82.551,143.055 82.200 C 143.182 81.870,143.626 81.600,144.043 81.600 C 144.459 81.600,145.160 81.240,145.600 80.800 C 146.040 80.360,146.856 80.000,147.413 80.000 C 147.969 80.000,148.529 79.730,148.655 79.400 C 148.785 79.063,149.380 78.800,150.015 78.800 C 150.882 78.800,151.174 78.591,151.272 77.900 C 151.388 77.088,151.586 77.013,153.299 77.136 C 154.752 77.240,155.255 77.123,155.442 76.636 C 155.614 76.187,156.207 76.000,157.455 76.000 C 158.659 76.000,159.299 75.808,159.455 75.400 C 159.582 75.070,160.161 74.798,160.743 74.795 C 162.416 74.786,163.600 74.354,163.600 73.753 C 163.600 73.356,164.166 73.200,165.613 73.200 C 167.032 73.200,167.693 73.023,167.855 72.600 C 168.031 72.142,168.782 72.000,171.029 72.000 C 173.562 72.000,174.031 71.889,174.400 71.200 C 174.776 70.498,175.238 70.400,178.171 70.400 C 181.468 70.400,181.517 70.385,181.784 69.321 C 181.933 68.727,182.178 68.413,182.327 68.622 C 182.768 69.238,184.787 69.307,185.498 68.731 C 185.970 68.349,186.070 68.340,185.853 68.700 C 185.620 69.089,186.591 69.200,190.214 69.200 C 194.538 69.200,194.890 69.142,195.084 68.400 C 195.412 67.147,205.793 67.165,206.121 68.420 M191.905 68.675 C 191.522 68.775,190.802 68.779,190.305 68.683 C 189.807 68.587,190.120 68.505,191.000 68.501 C 191.880 68.496,192.287 68.575,191.905 68.675 M195.302 130.053 C 195.186 130.497,194.655 130.800,193.859 130.878 C 192.761 130.984,192.584 131.167,192.475 132.300 C 192.393 133.151,192.136 133.600,191.732 133.600 C 191.347 133.600,191.201 133.826,191.345 134.200 C 191.511 134.633,191.301 134.800,190.587 134.800 C 189.867 134.800,189.600 135.016,189.600 135.600 C 189.600 136.044,189.333 136.400,189.000 136.400 C 188.670 136.400,188.400 136.670,188.400 137.000 C 188.400 137.330,188.142 137.600,187.827 137.600 C 187.512 137.600,187.139 137.963,186.998 138.406 C 186.857 138.849,186.563 139.101,186.344 138.966 C 186.125 138.830,185.847 139.098,185.726 139.560 C 185.606 140.022,185.237 140.400,184.907 140.400 C 184.517 140.400,184.375 140.663,184.503 141.149 C 184.650 141.714,184.524 141.853,183.988 141.713 C 183.519 141.590,183.187 141.812,183.012 142.363 C 182.866 142.824,182.488 143.200,182.173 143.200 C 181.858 143.200,181.600 143.449,181.600 143.753 C 181.600 144.058,181.217 144.407,180.748 144.529 C 180.179 144.678,179.976 144.959,180.135 145.376 C 180.302 145.811,180.136 146.000,179.587 146.000 C 179.154 146.000,178.800 146.270,178.800 146.600 C 178.800 146.930,178.551 147.200,178.247 147.200 C 177.942 147.200,177.599 147.560,177.484 148.000 C 177.369 148.440,176.988 148.800,176.637 148.800 C 176.196 148.800,176.000 149.169,176.000 150.000 C 176.000 150.800,175.800 151.200,175.400 151.200 C 175.067 151.200,174.800 151.556,174.800 152.000 C 174.800 152.533,174.533 152.800,174.000 152.800 C 173.556 152.800,173.200 153.067,173.200 153.400 C 173.200 153.730,172.930 154.000,172.600 154.000 C 172.088 154.000,171.813 154.690,171.939 155.659 C 171.957 155.801,171.591 155.818,171.124 155.696 C 170.520 155.538,170.362 155.616,170.578 155.964 C 170.771 156.276,170.576 156.533,170.040 156.674 C 169.568 156.797,169.200 157.218,169.200 157.634 C 169.200 158.128,169.000 158.298,168.600 158.145 C 168.184 157.985,168.000 158.172,168.000 158.757 C 168.000 159.333,167.747 159.600,167.200 159.600 C 166.756 159.600,166.400 159.867,166.400 160.200 C 166.400 160.530,166.130 160.800,165.800 160.800 C 165.467 160.800,165.200 161.156,165.200 161.600 C 165.200 162.040,164.975 162.403,164.700 162.407 C 164.090 162.415,162.400 164.142,162.400 164.756 C 162.400 165.000,162.130 165.200,161.800 165.200 C 161.286 165.200,160.978 166.197,161.153 167.300 C 161.179 167.465,160.840 167.600,160.400 167.600 C 159.867 167.600,159.600 167.867,159.600 168.400 C 159.600 168.844,159.333 169.200,159.000 169.200 C 158.670 169.200,158.400 169.449,158.400 169.753 C 158.400 170.058,158.040 170.401,157.600 170.516 C 157.160 170.631,156.800 171.012,156.800 171.363 C 156.800 171.713,156.530 172.000,156.200 172.000 C 155.707 172.000,155.600 172.711,155.600 176.000 C 155.600 179.139,155.719 180.000,156.153 180.000 C 156.458 180.000,156.801 180.360,156.916 180.800 C 157.031 181.240,157.412 181.600,157.763 181.600 C 158.113 181.600,158.400 181.870,158.400 182.200 C 158.400 182.653,158.889 182.800,160.400 182.800 C 162.449 182.800,163.146 183.543,161.803 184.295 C 161.474 184.478,161.165 185.117,161.115 185.714 C 161.054 186.455,160.799 186.800,160.313 186.800 C 159.867 186.800,159.600 187.099,159.600 187.600 C 159.600 188.044,159.333 188.400,159.000 188.400 C 158.670 188.400,158.400 188.670,158.400 189.000 C 158.400 189.333,158.044 189.600,157.600 189.600 C 157.067 189.600,156.800 189.867,156.800 190.400 C 156.800 190.844,156.533 191.200,156.200 191.200 C 155.870 191.200,155.600 191.470,155.600 191.800 C 155.600 192.130,155.396 192.400,155.146 192.400 C 154.355 192.400,152.800 194.402,152.800 195.421 C 152.800 196.050,152.572 196.400,152.163 196.400 C 151.812 196.400,151.431 196.760,151.316 197.200 C 151.201 197.640,150.858 198.000,150.553 198.000 C 150.249 198.000,150.000 198.270,150.000 198.600 C 150.000 198.930,149.730 199.200,149.400 199.200 C 149.067 199.200,148.800 199.556,148.800 200.000 C 148.800 200.533,148.533 200.800,148.000 200.800 C 147.241 200.800,147.200 201.067,147.200 206.037 C 147.200 210.938,147.251 211.288,148.000 211.484 C 148.440 211.599,148.800 211.942,148.800 212.247 C 148.800 212.551,149.049 212.800,149.353 212.800 C 149.658 212.800,150.001 213.160,150.116 213.600 C 150.268 214.183,150.662 214.400,151.563 214.400 C 152.396 214.400,152.800 214.596,152.800 215.000 C 152.800 215.428,153.236 215.600,154.320 215.600 C 155.821 215.600,155.837 215.617,155.676 217.000 C 155.553 218.049,155.323 218.400,154.756 218.400 C 154.340 218.400,154.000 218.670,154.000 219.000 C 154.000 219.330,153.730 219.600,153.400 219.600 C 153.070 219.600,152.800 219.939,152.800 220.353 C 152.800 220.782,152.438 221.201,151.960 221.326 C 151.497 221.447,151.238 221.738,151.383 221.973 C 151.538 222.223,151.305 222.400,150.824 222.400 C 150.267 222.400,150.000 222.659,150.000 223.200 C 150.000 223.644,149.733 224.000,149.400 224.000 C 149.070 224.000,148.800 224.249,148.800 224.553 C 148.800 224.858,148.440 225.201,148.000 225.316 C 147.417 225.468,147.200 225.862,147.200 226.763 C 147.200 227.596,147.004 228.000,146.600 228.000 C 146.262 228.000,146.000 228.358,146.000 228.818 C 146.000 229.374,145.777 229.598,145.300 229.518 C 144.823 229.437,144.637 229.623,144.718 230.100 C 144.798 230.577,144.574 230.800,144.018 230.800 C 143.558 230.800,143.200 231.062,143.200 231.400 C 143.200 231.730,142.942 232.000,142.627 232.000 C 142.312 232.000,141.940 232.360,141.800 232.800 C 141.660 233.240,141.288 233.600,140.973 233.600 C 140.658 233.600,140.400 233.870,140.400 234.200 C 140.400 234.530,140.130 234.800,139.800 234.800 C 139.348 234.800,139.200 235.286,139.200 236.773 C 139.200 238.395,139.058 238.791,138.400 239.000 C 137.182 239.387,137.239 242.692,138.472 243.148 C 139.256 243.438,139.334 243.721,139.244 245.936 C 139.165 247.871,139.268 248.400,139.725 248.400 C 140.045 248.400,140.401 248.760,140.516 249.200 C 140.631 249.640,141.012 250.000,141.363 250.000 C 141.713 250.000,142.000 250.270,142.000 250.600 C 142.000 251.053,142.489 251.200,144.000 251.200 C 145.511 251.200,146.000 251.347,146.000 251.800 C 146.000 252.326,148.689 252.400,167.800 252.400 L 189.600 252.400 189.647 256.500 C 189.726 263.310,189.734 263.376,190.500 263.524 C 190.979 263.616,191.200 264.033,191.200 264.842 C 191.200 265.525,191.454 266.122,191.800 266.255 C 192.130 266.382,192.400 266.736,192.400 267.043 C 192.400 267.409,192.863 267.600,193.753 267.600 C 194.770 267.600,195.159 267.799,195.316 268.400 C 195.510 269.142,195.862 269.200,200.163 269.200 C 204.533 269.200,204.800 269.154,204.800 268.400 C 204.800 267.752,205.067 267.600,206.200 267.600 C 207.130 267.600,207.600 267.413,207.600 267.043 C 207.600 266.736,207.870 266.382,208.200 266.255 C 208.551 266.121,208.800 265.521,208.800 264.813 C 208.800 264.008,208.999 263.600,209.392 263.600 C 210.287 263.600,210.480 262.171,210.333 256.634 C 210.260 253.859,210.260 251.771,210.333 251.994 C 210.573 252.723,235.974 252.533,236.255 251.800 C 236.452 251.288,237.983 251.200,246.643 251.200 C 255.043 251.200,256.800 251.104,256.800 250.645 C 256.800 250.323,257.408 249.975,258.242 249.819 C 259.564 249.571,259.669 249.451,259.511 248.374 C 259.374 247.441,259.488 247.200,260.069 247.200 C 260.745 247.200,260.800 246.737,260.800 241.000 C 260.800 235.756,260.708 234.800,260.200 234.800 C 259.870 234.800,259.600 234.530,259.600 234.200 C 259.600 233.870,259.351 233.600,259.047 233.600 C 258.742 233.600,258.399 233.240,258.284 232.800 C 258.169 232.360,257.788 232.000,257.437 232.000 C 257.087 232.000,256.800 231.730,256.800 231.400 C 256.800 231.070,256.551 230.800,256.247 230.800 C 255.942 230.800,255.594 230.422,255.474 229.960 C 255.344 229.463,255.068 229.234,254.800 229.400 C 254.532 229.566,254.256 229.337,254.126 228.840 C 254.006 228.378,253.658 228.000,253.353 228.000 C 253.001 228.000,252.800 227.549,252.800 226.763 C 252.800 225.862,252.583 225.468,252.000 225.316 C 251.560 225.201,251.200 224.858,251.200 224.553 C 251.200 224.249,250.930 224.000,250.600 224.000 C 250.267 224.000,250.000 223.644,250.000 223.200 C 250.000 222.756,249.733 222.400,249.400 222.400 C 249.070 222.400,248.800 222.130,248.800 221.800 C 248.800 221.467,248.444 221.200,248.000 221.200 C 247.459 221.200,247.200 220.933,247.200 220.376 C 247.200 219.895,247.023 219.662,246.773 219.817 C 246.538 219.962,246.247 219.703,246.126 219.240 C 246.006 218.778,245.587 218.400,245.197 218.400 C 244.684 218.400,244.442 218.012,244.324 217.000 C 244.163 215.617,244.179 215.600,245.680 215.600 C 246.764 215.600,247.200 215.428,247.200 215.000 C 247.200 214.596,247.604 214.400,248.437 214.400 C 249.338 214.400,249.732 214.183,249.884 213.600 C 249.999 213.160,250.342 212.800,250.647 212.800 C 250.951 212.800,251.200 212.551,251.200 212.247 C 251.200 211.942,251.538 211.605,251.951 211.497 C 253.133 211.188,253.162 200.800,251.980 200.800 C 251.467 200.800,251.200 200.527,251.200 200.000 C 251.200 199.556,250.933 199.200,250.600 199.200 C 250.270 199.200,250.000 198.930,250.000 198.600 C 250.000 198.270,249.751 198.000,249.447 198.000 C 249.142 198.000,248.799 197.640,248.684 197.200 C 248.569 196.760,248.188 196.400,247.837 196.400 C 247.428 196.400,247.200 196.050,247.200 195.421 C 247.200 194.402,245.645 192.400,244.854 192.400 C 244.604 192.400,244.400 192.130,244.400 191.800 C 244.400 191.470,244.130 191.200,243.800 191.200 C 243.467 191.200,243.200 190.844,243.200 190.400 C 243.200 189.867,242.933 189.600,242.400 189.600 C 241.960 189.600,241.600 189.351,241.600 189.047 C 241.600 188.742,241.239 188.399,240.798 188.284 C 240.264 188.144,240.078 187.862,240.241 187.437 C 240.399 187.026,240.269 186.800,239.875 186.800 C 239.525 186.800,239.154 186.301,239.007 185.633 C 238.866 184.992,238.492 184.367,238.176 184.246 C 236.728 183.690,237.605 182.800,239.600 182.800 C 241.111 182.800,241.600 182.653,241.600 182.200 C 241.600 181.870,241.887 181.600,242.237 181.600 C 242.588 181.600,242.969 181.240,243.084 180.800 C 243.199 180.360,243.542 180.000,243.847 180.000 C 244.281 180.000,244.400 179.132,244.400 175.953 C 244.400 172.225,244.342 171.922,243.666 172.099 C 243.075 172.253,242.967 172.106,243.113 171.345 C 243.256 170.592,243.121 170.400,242.447 170.400 C 241.961 170.400,241.600 170.144,241.600 169.800 C 241.600 169.470,241.330 169.200,241.000 169.200 C 240.656 169.200,240.400 168.839,240.400 168.353 C 240.400 167.703,240.214 167.555,239.599 167.716 C 239.159 167.831,238.895 167.770,239.012 167.581 C 239.380 166.985,238.739 165.200,238.157 165.200 C 237.850 165.200,237.597 164.975,237.593 164.700 C 237.585 164.090,235.858 162.400,235.244 162.400 C 235.000 162.400,234.800 162.040,234.800 161.600 C 234.800 161.156,234.533 160.800,234.200 160.800 C 233.870 160.800,233.600 160.530,233.600 160.200 C 233.600 159.867,233.244 159.600,232.800 159.600 C 232.253 159.600,232.000 159.333,232.000 158.757 C 232.000 158.172,231.816 157.985,231.400 158.145 C 230.992 158.301,230.800 158.123,230.800 157.587 C 230.800 157.154,230.530 156.800,230.200 156.800 C 229.870 156.800,229.600 156.551,229.600 156.247 C 229.600 155.942,229.240 155.599,228.800 155.484 C 228.360 155.369,228.000 154.988,228.000 154.637 C 228.000 154.287,227.730 154.000,227.400 154.000 C 227.070 154.000,226.800 153.730,226.800 153.400 C 226.800 153.067,226.444 152.800,226.000 152.800 C 225.467 152.800,225.200 152.533,225.200 152.000 C 225.200 151.556,224.933 151.200,224.600 151.200 C 224.205 151.200,224.000 150.805,224.000 150.047 C 224.000 149.230,223.767 148.832,223.200 148.684 C 222.760 148.569,222.400 148.188,222.400 147.837 C 222.400 147.487,222.130 147.200,221.800 147.200 C 221.470 147.200,221.200 146.930,221.200 146.600 C 221.200 146.270,220.951 146.000,220.647 146.000 C 220.342 146.000,219.999 145.640,219.884 145.200 C 219.769 144.760,219.388 144.400,219.037 144.400 C 218.687 144.400,218.400 144.130,218.400 143.800 C 218.400 143.470,218.151 143.200,217.847 143.200 C 217.542 143.200,217.199 142.840,217.084 142.400 C 216.969 141.960,216.588 141.600,216.237 141.600 C 215.887 141.600,215.600 141.330,215.600 141.000 C 215.600 140.670,215.351 140.400,215.047 140.400 C 214.742 140.400,214.394 140.022,214.274 139.560 C 214.153 139.097,213.862 138.838,213.627 138.983 C 213.390 139.130,213.200 138.953,213.200 138.586 C 213.200 138.223,212.840 137.831,212.400 137.716 C 211.960 137.601,211.600 137.258,211.600 136.953 C 211.600 136.649,211.330 136.400,211.000 136.400 C 210.667 136.400,210.400 136.044,210.400 135.600 C 210.400 135.067,210.133 134.800,209.600 134.800 C 209.156 134.800,208.800 134.533,208.800 134.200 C 208.800 133.870,208.541 133.600,208.225 133.600 C 207.869 133.600,207.603 133.105,207.525 132.300 C 207.416 131.167,207.239 130.984,206.141 130.878 C 205.293 130.795,204.815 130.501,204.678 129.978 C 204.566 129.550,204.267 129.200,204.014 129.200 C 203.760 129.200,203.675 129.398,203.825 129.640 C 204.013 129.945,203.834 129.939,203.238 129.620 C 201.796 128.849,195.528 129.190,195.302 130.053 M68.400 199.200 C 68.400 203.911,68.305 204.800,67.800 204.800 C 67.295 204.800,67.200 203.911,67.200 199.200 C 67.200 194.489,67.295 193.600,67.800 193.600 C 68.305 193.600,68.400 194.489,68.400 199.200 M332.715 199.918 C 332.549 204.855,331.696 204.832,331.528 199.887 C 331.411 196.437,331.459 196.141,332.115 196.313 C 332.743 196.478,332.816 196.917,332.715 199.918 M58.533 343.429 C 58.355 343.894,58.235 343.892,57.761 343.418 C 56.995 342.653,57.057 342.437,57.972 342.677 C 58.424 342.795,58.657 343.108,58.533 343.429 " stroke="none" fill="#54ac4c" fill-rule="evenodd"></path><path id="path1" d="M182.498 0.500 C 182.751 1.269,184.400 1.380,184.400 0.628 C 184.400 0.219,184.039 0.000,183.367 0.000 C 182.719 0.000,182.395 0.187,182.498 0.500 M215.600 0.600 C 215.600 0.933,215.956 1.200,216.400 1.200 C 216.844 1.200,217.200 0.933,217.200 0.600 C 217.200 0.267,216.844 0.000,216.400 0.000 C 215.956 0.000,215.600 0.267,215.600 0.600 M189.600 67.358 C 189.600 67.445,190.305 67.583,191.166 67.665 C 192.028 67.748,192.647 67.676,192.543 67.507 C 192.353 67.200,189.600 67.060,189.600 67.358 M190.305 68.683 C 190.802 68.779,191.522 68.775,191.905 68.675 C 192.287 68.575,191.880 68.496,191.000 68.501 C 190.120 68.505,189.807 68.587,190.305 68.683 M0.000 198.324 C 0.000 207.241,0.086 208.747,0.607 208.947 C 1.141 209.152,1.201 207.933,1.107 198.723 C 1.026 190.790,0.879 188.226,0.500 188.100 C 0.109 187.969,0.000 190.189,0.000 198.324 M399.113 201.051 C 399.182 207.508,399.376 211.600,399.613 211.600 C 400.237 211.600,400.126 190.934,399.500 190.693 C 399.106 190.542,399.024 192.739,399.113 201.051 M67.200 199.200 C 67.200 203.911,67.295 204.800,67.800 204.800 C 68.305 204.800,68.400 203.911,68.400 199.200 C 68.400 194.489,68.305 193.600,67.800 193.600 C 67.295 193.600,67.200 194.489,67.200 199.200 M331.528 199.887 C 331.696 204.832,332.549 204.855,332.715 199.918 C 332.816 196.917,332.743 196.478,332.115 196.313 C 331.459 196.141,331.411 196.437,331.528 199.887 M68.901 207.400 C 68.905 208.280,68.987 208.593,69.083 208.095 C 69.179 207.598,69.175 206.878,69.075 206.495 C 68.975 206.113,68.896 206.520,68.901 207.400 M113.428 298.045 C 113.579 298.289,113.457 298.641,113.156 298.827 C 112.764 299.070,112.853 299.146,113.475 299.099 C 114.253 299.041,114.145 297.600,113.362 297.600 C 113.247 297.600,113.276 297.800,113.428 298.045 M57.200 342.666 C 57.200 343.301,58.334 343.950,58.533 343.429 C 58.657 343.108,58.424 342.795,57.972 342.677 C 57.548 342.566,57.200 342.561,57.200 342.666 " stroke="none" fill="#58ac4c" fill-rule="evenodd"></path><path id="path2" d="M182.498 0.500 C 182.751 1.269,184.400 1.380,184.400 0.628 C 184.400 0.219,184.039 0.000,183.367 0.000 C 182.719 0.000,182.395 0.187,182.498 0.500 M215.600 0.600 C 215.600 0.933,215.956 1.200,216.400 1.200 C 216.844 1.200,217.200 0.933,217.200 0.600 C 217.200 0.267,216.844 0.000,216.400 0.000 C 215.956 0.000,215.600 0.267,215.600 0.600 M189.600 67.358 C 189.600 67.445,190.305 67.583,191.166 67.665 C 192.028 67.748,192.647 67.676,192.543 67.507 C 192.353 67.200,189.600 67.060,189.600 67.358 M190.305 68.683 C 190.802 68.779,191.522 68.775,191.905 68.675 C 192.287 68.575,191.880 68.496,191.000 68.501 C 190.120 68.505,189.807 68.587,190.305 68.683 M0.000 198.324 C 0.000 207.241,0.086 208.747,0.607 208.947 C 1.141 209.152,1.201 207.933,1.107 198.723 C 1.026 190.790,0.879 188.226,0.500 188.100 C 0.109 187.969,0.000 190.189,0.000 198.324 M399.113 201.051 C 399.182 207.508,399.376 211.600,399.613 211.600 C 400.237 211.600,400.126 190.934,399.500 190.693 C 399.106 190.542,399.024 192.739,399.113 201.051 M67.200 199.200 C 67.200 203.911,67.295 204.800,67.800 204.800 C 68.305 204.800,68.400 203.911,68.400 199.200 C 68.400 194.489,68.305 193.600,67.800 193.600 C 67.295 193.600,67.200 194.489,67.200 199.200 M331.528 199.887 C 331.696 204.832,332.549 204.855,332.715 199.918 C 332.816 196.917,332.743 196.478,332.115 196.313 C 331.459 196.141,331.411 196.437,331.528 199.887 M68.901 207.400 C 68.905 208.280,68.987 208.593,69.083 208.095 C 69.179 207.598,69.175 206.878,69.075 206.495 C 68.975 206.113,68.896 206.520,68.901 207.400 M113.428 298.045 C 113.579 298.289,113.457 298.641,113.156 298.827 C 112.764 299.070,112.853 299.146,113.475 299.099 C 114.253 299.041,114.145 297.600,113.362 297.600 C 113.247 297.600,113.276 297.800,113.428 298.045 M57.200 342.666 C 57.200 343.301,58.334 343.950,58.533 343.429 C 58.657 343.108,58.424 342.795,57.972 342.677 C 57.548 342.566,57.200 342.561,57.200 342.666 " stroke="none" fill="#58ac4c" fill-rule="evenodd"></path><path id="path3" d="M182.498 0.500 C 182.751 1.269,184.400 1.380,184.400 0.628 C 184.400 0.219,184.039 0.000,183.367 0.000 C 182.719 0.000,182.395 0.187,182.498 0.500 M215.600 0.600 C 215.600 0.933,215.956 1.200,216.400 1.200 C 216.844 1.200,217.200 0.933,217.200 0.600 C 217.200 0.267,216.844 0.000,216.400 0.000 C 215.956 0.000,215.600 0.267,215.600 0.600 M189.600 67.358 C 189.600 67.445,190.305 67.583,191.166 67.665 C 192.028 67.748,192.647 67.676,192.543 67.507 C 192.353 67.200,189.600 67.060,189.600 67.358 M190.305 68.683 C 190.802 68.779,191.522 68.775,191.905 68.675 C 192.287 68.575,191.880 68.496,191.000 68.501 C 190.120 68.505,189.807 68.587,190.305 68.683 M0.000 198.324 C 0.000 207.241,0.086 208.747,0.607 208.947 C 1.141 209.152,1.201 207.933,1.107 198.723 C 1.026 190.790,0.879 188.226,0.500 188.100 C 0.109 187.969,0.000 190.189,0.000 198.324 M399.113 201.051 C 399.182 207.508,399.376 211.600,399.613 211.600 C 400.237 211.600,400.126 190.934,399.500 190.693 C 399.106 190.542,399.024 192.739,399.113 201.051 M67.200 199.200 C 67.200 203.911,67.295 204.800,67.800 204.800 C 68.305 204.800,68.400 203.911,68.400 199.200 C 68.400 194.489,68.305 193.600,67.800 193.600 C 67.295 193.600,67.200 194.489,67.200 199.200 M331.528 199.887 C 331.696 204.832,332.549 204.855,332.715 199.918 C 332.816 196.917,332.743 196.478,332.115 196.313 C 331.459 196.141,331.411 196.437,331.528 199.887 M68.901 207.400 C 68.905 208.280,68.987 208.593,69.083 208.095 C 69.179 207.598,69.175 206.878,69.075 206.495 C 68.975 206.113,68.896 206.520,68.901 207.400 M113.428 298.045 C 113.579 298.289,113.457 298.641,113.156 298.827 C 112.764 299.070,112.853 299.146,113.475 299.099 C 114.253 299.041,114.145 297.600,113.362 297.600 C 113.247 297.600,113.276 297.800,113.428 298.045 M57.200 342.666 C 57.200 343.301,58.334 343.950,58.533 343.429 C 58.657 343.108,58.424 342.795,57.972 342.677 C 57.548 342.566,57.200 342.561,57.200 342.666 " stroke="none" fill="#58ac4c" fill-rule="evenodd"></path><path id="path4" d="M182.498 0.500 C 182.751 1.269,184.400 1.380,184.400 0.628 C 184.400 0.219,184.039 0.000,183.367 0.000 C 182.719 0.000,182.395 0.187,182.498 0.500 M215.600 0.600 C 215.600 0.933,215.956 1.200,216.400 1.200 C 216.844 1.200,217.200 0.933,217.200 0.600 C 217.200 0.267,216.844 0.000,216.400 0.000 C 215.956 0.000,215.600 0.267,215.600 0.600 M189.600 67.358 C 189.600 67.445,190.305 67.583,191.166 67.665 C 192.028 67.748,192.647 67.676,192.543 67.507 C 192.353 67.200,189.600 67.060,189.600 67.358 M190.305 68.683 C 190.802 68.779,191.522 68.775,191.905 68.675 C 192.287 68.575,191.880 68.496,191.000 68.501 C 190.120 68.505,189.807 68.587,190.305 68.683 M0.000 198.324 C 0.000 207.241,0.086 208.747,0.607 208.947 C 1.141 209.152,1.201 207.933,1.107 198.723 C 1.026 190.790,0.879 188.226,0.500 188.100 C 0.109 187.969,0.000 190.189,0.000 198.324 M399.113 201.051 C 399.182 207.508,399.376 211.600,399.613 211.600 C 400.237 211.600,400.126 190.934,399.500 190.693 C 399.106 190.542,399.024 192.739,399.113 201.051 M67.200 199.200 C 67.200 203.911,67.295 204.800,67.800 204.800 C 68.305 204.800,68.400 203.911,68.400 199.200 C 68.400 194.489,68.305 193.600,67.800 193.600 C 67.295 193.600,67.200 194.489,67.200 199.200 M331.528 199.887 C 331.696 204.832,332.549 204.855,332.715 199.918 C 332.816 196.917,332.743 196.478,332.115 196.313 C 331.459 196.141,331.411 196.437,331.528 199.887 M68.901 207.400 C 68.905 208.280,68.987 208.593,69.083 208.095 C 69.179 207.598,69.175 206.878,69.075 206.495 C 68.975 206.113,68.896 206.520,68.901 207.400 M113.428 298.045 C 113.579 298.289,113.457 298.641,113.156 298.827 C 112.764 299.070,112.853 299.146,113.475 299.099 C 114.253 299.041,114.145 297.600,113.362 297.600 C 113.247 297.600,113.276 297.800,113.428 298.045 M57.200 342.666 C 57.200 343.301,58.334 343.950,58.533 343.429 C 58.657 343.108,58.424 342.795,57.972 342.677 C 57.548 342.566,57.200 342.561,57.200 342.666 " stroke="none" fill="#58ac4c" fill-rule="evenodd"></path></g></svg>