<svg id="svg" version="1.1" xmlns="http://www.w3.org/2000/svg" xmlns:xlink="http://www.w3.org/1999/xlink" width="400" height="531.5068493150685" viewBox="0, 0, 400,531.5068493150685"><g id="svgg"><path id="path0" d="M180.000 0.400 C 180.000 0.647,177.933 0.800,174.600 0.800 C 170.067 0.800,169.200 0.896,169.200 1.400 C 169.200 1.893,168.489 2.000,165.200 2.000 C 161.467 2.000,161.200 2.053,161.200 2.800 C 161.200 3.524,160.933 3.600,158.400 3.600 C 156.178 3.600,155.600 3.724,155.600 4.200 C 155.600 4.676,155.022 4.800,152.800 4.800 C 150.276 4.800,150.000 4.878,150.000 5.592 C 150.000 6.299,149.809 6.359,148.228 6.142 C 146.052 5.844,144.400 6.217,144.400 7.008 C 144.400 7.452,143.900 7.600,142.400 7.600 C 140.889 7.600,140.400 7.747,140.400 8.200 C 140.400 8.667,139.867 8.800,138.003 8.800 C 136.040 8.800,135.516 8.945,135.107 9.600 C 134.812 10.073,134.174 10.400,133.547 10.400 C 132.963 10.400,132.382 10.670,132.255 11.000 C 132.097 11.414,131.451 11.600,130.175 11.600 C 128.662 11.600,128.287 11.745,128.116 12.400 C 127.943 13.062,127.570 13.200,125.953 13.200 C 124.484 13.200,124.000 13.349,124.000 13.800 C 124.000 14.219,123.578 14.400,122.600 14.400 C 121.473 14.400,121.200 14.554,121.200 15.190 C 121.200 15.858,121.011 15.942,119.977 15.735 C 118.956 15.531,118.717 15.632,118.530 16.345 C 118.340 17.071,118.012 17.200,116.353 17.200 C 114.884 17.200,114.400 17.349,114.400 17.800 C 114.400 18.204,113.996 18.400,113.163 18.400 C 112.262 18.400,111.868 18.617,111.716 19.200 C 111.559 19.801,111.170 20.000,110.153 20.000 C 109.217 20.000,108.800 20.185,108.800 20.600 C 108.800 20.973,108.422 21.200,107.800 21.200 C 107.250 21.200,106.440 21.560,106.000 22.000 C 105.560 22.440,104.840 22.800,104.400 22.800 C 103.956 22.800,103.600 23.067,103.600 23.400 C 103.600 23.819,103.178 24.000,102.200 24.000 C 101.094 24.000,100.800 24.159,100.800 24.756 C 100.800 25.230,100.539 25.490,100.100 25.456 C 99.661 25.421,99.421 25.661,99.456 26.100 C 99.498 26.641,99.200 26.800,98.143 26.800 C 97.296 26.800,96.687 27.028,96.545 27.400 C 96.413 27.742,95.817 28.000,95.157 28.000 C 94.267 28.000,94.000 28.184,94.000 28.800 C 94.000 29.333,93.733 29.600,93.200 29.600 C 92.760 29.600,92.400 29.859,92.400 30.175 C 92.400 30.531,91.905 30.797,91.100 30.875 C 90.176 30.964,89.815 31.193,89.850 31.668 C 89.882 32.095,89.693 32.257,89.326 32.116 C 88.967 31.979,88.669 32.215,88.529 32.748 C 88.358 33.406,87.998 33.600,86.953 33.600 C 86.017 33.600,85.600 33.785,85.600 34.200 C 85.600 34.530,85.330 34.800,85.000 34.800 C 84.667 34.800,84.400 35.156,84.400 35.600 C 84.400 36.248,84.133 36.400,83.000 36.400 C 82.022 36.400,81.600 36.581,81.600 37.000 C 81.600 37.330,81.313 37.600,80.963 37.600 C 80.612 37.600,80.231 37.960,80.116 38.400 C 80.001 38.840,79.658 39.200,79.353 39.200 C 79.049 39.200,78.800 39.470,78.800 39.800 C 78.800 40.219,78.378 40.400,77.400 40.400 C 76.470 40.400,76.000 40.587,76.000 40.957 C 76.000 41.264,75.730 41.618,75.400 41.745 C 75.070 41.871,74.800 42.251,74.800 42.587 C 74.800 42.933,74.452 43.200,74.000 43.200 C 73.556 43.200,73.200 43.467,73.200 43.800 C 73.200 44.130,72.930 44.400,72.600 44.400 C 72.267 44.400,72.000 44.756,72.000 45.200 C 72.000 45.848,71.733 46.000,70.600 46.000 C 69.622 46.000,69.200 46.181,69.200 46.600 C 69.200 46.930,68.930 47.200,68.600 47.200 C 68.267 47.200,68.000 47.556,68.000 48.000 C 68.000 48.533,67.733 48.800,67.200 48.800 C 66.756 48.800,66.400 49.067,66.400 49.400 C 66.400 49.730,66.130 50.000,65.800 50.000 C 65.470 50.000,65.200 50.249,65.200 50.553 C 65.200 50.858,64.840 51.201,64.400 51.316 C 63.960 51.431,63.600 51.812,63.600 52.163 C 63.600 52.513,63.330 52.800,63.000 52.800 C 62.670 52.800,62.400 53.049,62.400 53.353 C 62.400 53.658,62.040 54.001,61.600 54.116 C 61.160 54.231,60.800 54.612,60.800 54.963 C 60.800 55.313,60.530 55.600,60.200 55.600 C 59.870 55.600,59.600 55.870,59.600 56.200 C 59.600 56.530,59.330 56.800,59.000 56.800 C 58.670 56.800,58.400 57.058,58.400 57.373 C 58.400 57.688,58.040 58.060,57.600 58.200 C 57.160 58.340,56.800 58.712,56.800 59.027 C 56.800 59.342,56.530 59.600,56.200 59.600 C 55.870 59.600,55.600 59.849,55.600 60.153 C 55.600 60.458,55.240 60.801,54.800 60.916 C 54.360 61.031,54.000 61.412,54.000 61.763 C 54.000 62.113,53.730 62.400,53.400 62.400 C 53.070 62.400,52.800 62.670,52.800 63.000 C 52.800 63.330,52.542 63.600,52.227 63.600 C 51.912 63.600,51.540 63.960,51.400 64.400 C 51.260 64.840,50.888 65.200,50.573 65.200 C 50.258 65.200,50.000 65.470,50.000 65.800 C 50.000 66.130,49.730 66.400,49.400 66.400 C 49.067 66.400,48.800 66.756,48.800 67.200 C 48.800 67.733,48.533 68.000,48.000 68.000 C 47.378 68.000,47.200 68.267,47.200 69.200 C 47.200 70.000,47.000 70.400,46.600 70.400 C 46.267 70.400,46.000 70.756,46.000 71.200 C 46.000 71.733,45.733 72.000,45.200 72.000 C 44.756 72.000,44.400 72.267,44.400 72.600 C 44.400 72.930,44.130 73.200,43.800 73.200 C 43.467 73.200,43.200 73.556,43.200 74.000 C 43.200 74.440,42.950 74.800,42.643 74.800 C 42.061 74.800,41.420 76.585,41.788 77.181 C 41.905 77.370,41.641 77.431,41.201 77.316 C 40.586 77.155,40.400 77.303,40.400 77.953 C 40.400 78.439,40.144 78.800,39.800 78.800 C 39.470 78.800,39.200 79.058,39.200 79.373 C 39.200 79.688,38.840 80.060,38.400 80.200 C 37.840 80.378,37.600 80.805,37.600 81.627 C 37.600 82.403,37.397 82.800,37.000 82.800 C 36.670 82.800,36.400 83.139,36.400 83.553 C 36.400 83.985,36.037 84.402,35.550 84.529 C 34.867 84.708,34.751 84.951,34.958 85.775 C 35.170 86.621,35.074 86.800,34.408 86.800 C 33.867 86.800,33.600 87.064,33.600 87.600 C 33.600 88.040,33.350 88.400,33.045 88.400 C 32.726 88.400,32.377 88.998,32.226 89.800 C 32.069 90.638,31.730 91.200,31.382 91.200 C 31.062 91.200,30.800 91.470,30.800 91.800 C 30.800 92.130,30.530 92.400,30.200 92.400 C 29.781 92.400,29.600 92.822,29.600 93.800 C 29.600 94.933,29.448 95.200,28.800 95.200 C 28.348 95.200,28.000 95.467,28.000 95.813 C 28.000 96.149,27.730 96.529,27.400 96.655 C 27.066 96.784,26.800 97.378,26.800 97.996 C 26.800 98.792,26.559 99.170,25.951 99.329 C 25.263 99.509,25.136 99.783,25.282 100.775 C 25.426 101.760,25.318 102.000,24.731 102.000 C 24.162 102.000,24.000 102.311,24.000 103.400 C 24.000 104.378,23.819 104.800,23.400 104.800 C 22.981 104.800,22.800 105.222,22.800 106.200 C 22.800 107.333,22.648 107.600,22.000 107.600 C 21.352 107.600,21.200 107.867,21.200 109.000 C 21.200 109.978,21.019 110.400,20.600 110.400 C 20.205 110.400,20.000 110.795,20.000 111.553 C 20.000 112.370,19.767 112.768,19.200 112.916 C 18.617 113.068,18.400 113.462,18.400 114.363 C 18.400 115.196,18.204 115.600,17.800 115.600 C 17.385 115.600,17.200 116.017,17.200 116.953 C 17.200 117.996,17.005 118.358,16.351 118.529 C 15.663 118.709,15.536 118.983,15.682 119.975 C 15.826 120.960,15.718 121.200,15.131 121.200 C 14.562 121.200,14.400 121.511,14.400 122.600 C 14.400 123.578,14.219 124.000,13.800 124.000 C 13.347 124.000,13.200 124.489,13.200 126.000 C 13.200 127.733,13.093 128.000,12.400 128.000 C 11.707 128.000,11.600 128.267,11.600 130.000 C 11.600 131.511,11.453 132.000,11.000 132.000 C 10.539 132.000,10.400 132.511,10.400 134.200 C 10.400 136.133,10.303 136.400,9.600 136.400 C 8.907 136.400,8.800 136.667,8.800 138.400 C 8.800 139.911,8.653 140.400,8.200 140.400 C 7.749 140.400,7.600 140.884,7.600 142.353 C 7.600 144.013,7.471 144.340,6.743 144.531 C 5.949 144.738,5.902 144.945,6.097 147.377 C 6.288 149.754,6.237 150.000,5.554 150.000 C 4.887 150.000,4.800 150.324,4.800 152.800 C 4.800 155.022,4.676 155.600,4.200 155.600 C 3.714 155.600,3.600 156.244,3.600 159.000 C 3.600 162.133,3.537 162.400,2.800 162.400 C 2.054 162.400,2.000 162.667,2.000 166.357 C 2.000 169.506,1.877 170.361,1.400 170.545 C 0.897 170.738,0.800 171.968,0.800 178.187 C 0.800 182.862,0.652 185.600,0.400 185.600 C 0.142 185.600,0.000 190.200,0.000 198.600 C 0.000 207.000,0.142 211.600,0.400 211.600 C 0.652 211.600,0.800 214.333,0.800 219.000 C 0.800 225.311,0.888 226.400,1.400 226.400 C 1.899 226.400,2.000 227.182,2.000 231.037 C 2.000 235.338,2.058 235.690,2.800 235.884 C 3.520 236.072,3.600 236.430,3.600 239.459 C 3.600 242.082,3.732 242.876,4.200 243.055 C 4.647 243.227,4.800 243.939,4.800 245.843 C 4.800 248.081,4.894 248.400,5.554 248.400 C 6.237 248.400,6.288 248.646,6.097 251.023 C 5.902 253.455,5.949 253.662,6.743 253.869 C 7.506 254.069,7.600 254.373,7.600 256.647 C 7.600 258.650,7.729 259.200,8.200 259.200 C 8.655 259.200,8.800 259.693,8.800 261.237 C 8.800 262.938,8.932 263.309,9.600 263.484 C 10.262 263.657,10.400 264.030,10.400 265.647 C 10.400 267.116,10.549 267.600,11.000 267.600 C 11.419 267.600,11.600 268.022,11.600 269.000 C 11.600 270.133,11.752 270.400,12.400 270.400 C 13.093 270.400,13.200 270.667,13.200 272.400 C 13.200 273.911,13.347 274.400,13.800 274.400 C 14.219 274.400,14.400 274.822,14.400 275.800 C 14.400 276.957,14.546 277.200,15.243 277.200 C 15.943 277.200,16.044 277.370,15.836 278.200 C 15.501 279.532,15.950 281.200,16.643 281.200 C 17.013 281.200,17.200 281.671,17.200 282.600 C 17.200 283.578,17.381 284.000,17.800 284.000 C 18.219 284.000,18.400 284.422,18.400 285.400 C 18.400 286.533,18.552 286.800,19.200 286.800 C 19.848 286.800,20.000 287.067,20.000 288.200 C 20.000 289.178,20.181 289.600,20.600 289.600 C 21.019 289.600,21.200 290.022,21.200 291.000 C 21.200 292.133,21.352 292.400,22.000 292.400 C 22.624 292.400,22.800 292.667,22.800 293.613 C 22.800 294.321,23.049 294.921,23.400 295.055 C 23.742 295.187,24.000 295.783,24.000 296.443 C 24.000 297.314,24.188 297.600,24.763 297.600 C 25.328 297.600,25.471 297.807,25.316 298.400 C 25.155 299.014,25.304 299.200,25.953 299.200 C 26.654 299.200,26.800 299.441,26.800 300.600 C 26.800 301.578,26.981 302.000,27.400 302.000 C 27.797 302.000,28.000 302.397,28.000 303.173 C 28.000 303.995,28.240 304.422,28.800 304.600 C 29.240 304.740,29.600 305.112,29.600 305.427 C 29.600 305.742,29.870 306.000,30.200 306.000 C 30.619 306.000,30.800 306.422,30.800 307.400 C 30.800 308.388,30.980 308.800,31.410 308.800 C 31.765 308.800,32.118 309.291,32.255 309.974 C 32.384 310.620,32.740 311.245,33.045 311.362 C 33.350 311.479,33.600 311.851,33.600 312.187 C 33.600 312.539,33.951 312.800,34.424 312.800 C 34.900 312.800,35.137 312.978,34.986 313.223 C 34.569 313.897,35.158 315.600,35.808 315.600 C 36.133 315.600,36.400 315.870,36.400 316.200 C 36.400 316.530,36.670 316.800,37.000 316.800 C 37.333 316.800,37.600 317.156,37.600 317.600 C 37.600 318.133,37.867 318.400,38.400 318.400 C 39.022 318.400,39.200 318.667,39.200 319.600 C 39.200 320.400,39.400 320.800,39.800 320.800 C 40.133 320.800,40.400 321.156,40.400 321.600 C 40.400 322.044,40.667 322.400,41.000 322.400 C 41.330 322.400,41.600 322.670,41.600 323.000 C 41.600 323.333,41.956 323.600,42.400 323.600 C 43.048 323.600,43.200 323.867,43.200 325.000 C 43.200 325.978,43.381 326.400,43.800 326.400 C 44.130 326.400,44.400 326.687,44.400 327.037 C 44.400 327.388,44.760 327.769,45.200 327.884 C 45.640 327.999,46.000 328.342,46.000 328.647 C 46.000 328.951,46.270 329.200,46.600 329.200 C 47.004 329.200,47.200 329.604,47.200 330.437 C 47.200 331.338,47.417 331.732,48.000 331.884 C 48.440 331.999,48.800 332.342,48.800 332.647 C 48.800 332.951,49.070 333.200,49.400 333.200 C 49.733 333.200,50.000 333.556,50.000 334.000 C 50.000 334.440,50.256 334.800,50.568 334.800 C 50.881 334.800,51.258 335.352,51.406 336.027 C 51.554 336.702,51.928 337.351,52.238 337.470 C 52.547 337.588,52.800 337.936,52.800 338.243 C 52.800 338.549,53.070 338.800,53.400 338.800 C 53.730 338.800,54.000 339.087,54.000 339.437 C 54.000 339.788,54.360 340.169,54.800 340.284 C 55.367 340.432,55.600 340.830,55.600 341.647 C 55.600 342.405,55.805 342.800,56.200 342.800 C 56.533 342.800,56.800 343.156,56.800 343.600 C 56.800 344.133,57.067 344.400,57.600 344.400 C 58.044 344.400,58.400 344.667,58.400 345.000 C 58.400 345.330,58.670 345.600,59.000 345.600 C 59.401 345.600,59.600 346.001,59.600 346.813 C 59.600 347.521,59.849 348.121,60.200 348.255 C 60.530 348.382,60.800 348.736,60.800 349.043 C 60.800 349.349,61.160 349.600,61.600 349.600 C 62.133 349.600,62.400 349.867,62.400 350.400 C 62.400 350.844,62.667 351.200,63.000 351.200 C 63.373 351.200,63.600 351.577,63.600 352.197 C 63.600 352.760,63.948 353.410,64.400 353.693 C 64.840 353.968,65.200 354.419,65.200 354.696 C 65.200 354.973,65.470 355.200,65.800 355.200 C 66.130 355.200,66.400 355.487,66.400 355.837 C 66.400 356.188,66.760 356.569,67.200 356.684 C 67.767 356.832,68.000 357.230,68.000 358.047 C 68.000 358.805,68.205 359.200,68.600 359.200 C 68.933 359.200,69.200 359.556,69.200 360.000 C 69.200 360.444,69.467 360.800,69.800 360.800 C 70.130 360.800,70.400 361.070,70.400 361.400 C 70.400 361.733,70.756 362.000,71.200 362.000 C 71.848 362.000,72.000 362.267,72.000 363.400 C 72.000 364.378,72.181 364.800,72.600 364.800 C 72.930 364.800,73.200 365.087,73.200 365.437 C 73.200 365.788,73.560 366.169,74.000 366.284 C 74.440 366.399,74.800 366.742,74.800 367.047 C 74.800 367.351,75.070 367.600,75.400 367.600 C 75.804 367.600,76.000 368.004,76.000 368.837 C 76.000 369.738,76.217 370.132,76.800 370.284 C 77.240 370.399,77.600 370.742,77.600 371.047 C 77.600 371.351,77.870 371.600,78.200 371.600 C 78.533 371.600,78.800 371.956,78.800 372.400 C 78.800 372.941,79.067 373.200,79.624 373.200 C 80.077 373.200,80.335 373.382,80.198 373.604 C 79.814 374.225,80.385 375.600,81.027 375.600 C 81.342 375.600,81.600 375.960,81.600 376.400 C 81.600 376.844,81.867 377.200,82.200 377.200 C 82.530 377.200,82.800 377.470,82.800 377.800 C 82.800 378.133,83.156 378.400,83.600 378.400 C 84.248 378.400,84.400 378.667,84.400 379.800 C 84.400 380.778,84.581 381.200,85.000 381.200 C 85.330 381.200,85.603 381.425,85.607 381.700 C 85.615 382.310,87.342 384.000,87.956 384.000 C 88.200 384.000,88.400 384.546,88.400 385.213 C 88.400 385.921,88.649 386.521,89.000 386.655 C 89.330 386.782,89.600 387.136,89.600 387.443 C 89.600 387.749,89.960 388.000,90.400 388.000 C 90.933 388.000,91.200 388.267,91.200 388.800 C 91.200 389.244,91.467 389.600,91.800 389.600 C 92.179 389.600,92.400 389.982,92.400 390.637 C 92.400 391.338,92.659 391.743,93.200 391.884 C 93.643 392.000,94.000 392.430,94.000 392.847 C 94.000 393.261,94.270 393.600,94.600 393.600 C 94.930 393.600,95.200 393.870,95.200 394.200 C 95.200 394.530,95.450 394.800,95.755 394.800 C 96.074 394.800,96.423 395.398,96.574 396.200 C 96.731 397.038,97.070 397.600,97.418 397.600 C 97.738 397.600,98.000 397.960,98.000 398.400 C 98.000 398.929,98.267 399.200,98.787 399.200 C 99.323 399.200,99.501 399.392,99.345 399.800 C 99.185 400.216,99.372 400.400,99.957 400.400 C 100.654 400.400,100.800 400.643,100.800 401.800 C 100.800 402.778,100.981 403.200,101.400 403.200 C 101.730 403.200,102.000 403.470,102.000 403.800 C 102.000 404.133,102.356 404.400,102.800 404.400 C 103.333 404.400,103.600 404.667,103.600 405.200 C 103.600 405.644,103.867 406.000,104.200 406.000 C 104.570 406.000,104.800 406.375,104.800 406.979 C 104.800 407.998,106.355 410.000,107.146 410.000 C 107.396 410.000,107.600 410.360,107.600 410.800 C 107.600 411.244,107.867 411.600,108.200 411.600 C 108.579 411.600,108.800 411.982,108.800 412.637 C 108.800 413.338,109.059 413.743,109.600 413.884 C 110.043 414.000,110.400 414.430,110.400 414.847 C 110.400 415.261,110.670 415.600,111.000 415.600 C 111.330 415.600,111.600 415.870,111.600 416.200 C 111.600 416.533,111.956 416.800,112.400 416.800 C 113.048 416.800,113.200 417.067,113.200 418.200 C 113.200 419.178,113.381 419.600,113.800 419.600 C 114.130 419.600,114.400 419.870,114.400 420.200 C 114.400 420.530,114.670 420.800,115.000 420.800 C 115.333 420.800,115.600 421.156,115.600 421.600 C 115.600 422.133,115.867 422.400,116.400 422.400 C 117.024 422.400,117.200 422.667,117.200 423.613 C 117.200 424.321,117.449 424.921,117.800 425.055 C 118.130 425.182,118.400 425.536,118.400 425.843 C 118.400 426.149,118.760 426.400,119.200 426.400 C 119.733 426.400,120.000 426.667,120.000 427.200 C 120.000 427.644,120.267 428.000,120.600 428.000 C 121.000 428.000,121.200 428.400,121.200 429.200 C 121.200 430.133,121.378 430.400,122.000 430.400 C 122.533 430.400,122.800 430.667,122.800 431.200 C 122.800 431.644,123.067 432.000,123.400 432.000 C 123.730 432.000,124.000 432.270,124.000 432.600 C 124.000 432.940,124.359 433.200,124.827 433.200 C 125.451 433.200,125.596 433.382,125.418 433.944 C 125.108 434.920,125.541 436.000,126.243 436.000 C 126.549 436.000,126.800 436.276,126.800 436.613 C 126.800 436.949,127.070 437.329,127.400 437.455 C 127.730 437.582,128.000 437.936,128.000 438.243 C 128.000 438.549,128.360 438.800,128.800 438.800 C 129.424 438.800,129.600 439.067,129.600 440.013 C 129.600 440.721,129.849 441.321,130.200 441.455 C 130.530 441.582,130.800 441.936,130.800 442.243 C 130.800 442.549,131.058 442.800,131.373 442.800 C 131.688 442.800,132.060 443.160,132.200 443.600 C 132.340 444.040,132.712 444.400,133.027 444.400 C 133.397 444.400,133.600 444.825,133.600 445.600 C 133.600 446.355,133.805 446.800,134.153 446.800 C 134.458 446.800,134.801 447.160,134.916 447.600 C 135.031 448.040,135.412 448.400,135.763 448.400 C 136.113 448.400,136.400 448.670,136.400 449.000 C 136.400 449.330,136.670 449.600,137.000 449.600 C 137.404 449.600,137.600 450.004,137.600 450.837 C 137.600 451.738,137.817 452.132,138.400 452.284 C 138.843 452.400,139.200 452.830,139.200 453.247 C 139.200 453.661,139.470 454.000,139.800 454.000 C 140.130 454.000,140.400 454.270,140.400 454.600 C 140.400 454.930,140.662 455.200,140.982 455.200 C 141.330 455.200,141.669 455.762,141.826 456.600 C 141.977 457.402,142.326 458.000,142.645 458.000 C 142.950 458.000,143.200 458.270,143.200 458.600 C 143.200 458.930,143.554 459.200,143.987 459.200 C 144.536 459.200,144.702 459.389,144.535 459.824 C 144.376 460.241,144.579 460.522,145.148 460.671 C 145.769 460.833,146.000 461.206,146.000 462.047 C 146.000 462.805,146.205 463.200,146.600 463.200 C 146.933 463.200,147.200 463.556,147.200 464.000 C 147.200 464.533,147.467 464.800,148.000 464.800 C 148.444 464.800,148.800 465.067,148.800 465.400 C 148.800 465.730,149.070 466.000,149.400 466.000 C 149.819 466.000,150.000 466.422,150.000 467.400 C 150.000 468.325,150.188 468.800,150.553 468.800 C 150.858 468.800,151.201 469.160,151.316 469.600 C 151.431 470.040,151.812 470.400,152.163 470.400 C 152.513 470.400,152.800 470.670,152.800 471.000 C 152.800 471.330,153.070 471.600,153.400 471.600 C 153.730 471.600,154.000 471.945,154.000 472.367 C 154.000 473.559,154.431 474.400,155.043 474.400 C 155.349 474.400,155.600 474.670,155.600 475.000 C 155.600 475.330,155.870 475.600,156.200 475.600 C 156.533 475.600,156.800 475.956,156.800 476.400 C 156.800 476.933,157.067 477.200,157.600 477.200 C 158.216 477.200,158.400 477.467,158.400 478.357 C 158.400 479.017,158.658 479.613,159.000 479.745 C 159.330 479.871,159.600 480.251,159.600 480.587 C 159.600 480.924,159.870 481.200,160.200 481.200 C 160.530 481.200,160.800 481.470,160.800 481.800 C 160.800 482.133,161.156 482.400,161.600 482.400 C 162.248 482.400,162.400 482.667,162.400 483.800 C 162.400 484.725,162.588 485.200,162.953 485.200 C 163.258 485.200,163.601 485.560,163.716 486.000 C 163.831 486.440,164.212 486.800,164.563 486.800 C 164.913 486.800,165.200 487.070,165.200 487.400 C 165.200 487.730,165.470 488.000,165.800 488.000 C 166.204 488.000,166.400 488.404,166.400 489.237 C 166.400 490.138,166.617 490.532,167.200 490.684 C 167.640 490.799,168.000 491.142,168.000 491.447 C 168.000 491.751,168.270 492.000,168.600 492.000 C 168.933 492.000,169.200 492.356,169.200 492.800 C 169.200 493.320,169.467 493.600,169.963 493.600 C 170.516 493.600,170.670 493.809,170.526 494.363 C 170.407 494.815,170.667 495.467,171.163 495.963 C 171.623 496.423,172.000 496.980,172.000 497.200 C 172.000 497.420,172.249 497.600,172.553 497.600 C 172.858 497.600,173.201 497.960,173.316 498.400 C 173.431 498.840,173.812 499.200,174.163 499.200 C 174.604 499.200,174.800 499.569,174.800 500.400 C 174.800 501.200,175.000 501.600,175.400 501.600 C 175.733 501.600,176.000 501.956,176.000 502.400 C 176.000 502.933,176.267 503.200,176.800 503.200 C 177.244 503.200,177.600 503.467,177.600 503.800 C 177.600 504.130,177.870 504.400,178.200 504.400 C 178.601 504.400,178.800 504.801,178.800 505.613 C 178.800 506.283,179.050 506.921,179.361 507.040 C 179.669 507.159,180.012 507.603,180.123 508.028 C 180.234 508.452,180.612 508.800,180.963 508.800 C 181.313 508.800,181.600 509.070,181.600 509.400 C 181.600 509.730,181.870 510.000,182.200 510.000 C 182.604 510.000,182.800 510.404,182.800 511.237 C 182.800 512.138,183.017 512.532,183.600 512.684 C 184.040 512.799,184.400 513.142,184.400 513.447 C 184.400 513.751,184.670 514.000,185.000 514.000 C 185.333 514.000,185.600 514.356,185.600 514.800 C 185.600 515.240,185.856 515.600,186.168 515.600 C 186.481 515.600,186.855 516.140,187.000 516.800 C 187.145 517.460,187.519 518.000,187.832 518.000 C 188.144 518.000,188.400 518.360,188.400 518.800 C 188.400 519.244,188.667 519.600,189.000 519.600 C 189.330 519.600,189.600 519.870,189.600 520.200 C 189.600 520.533,189.956 520.800,190.400 520.800 C 191.048 520.800,191.200 521.067,191.200 522.200 C 191.200 523.125,191.388 523.600,191.753 523.600 C 192.058 523.600,192.401 523.960,192.516 524.400 C 192.631 524.840,193.012 525.200,193.363 525.200 C 193.713 525.200,194.000 525.470,194.000 525.800 C 194.000 526.130,194.270 526.400,194.600 526.400 C 194.982 526.400,195.200 526.784,195.200 527.454 C 195.200 528.465,196.790 530.400,197.621 530.400 C 197.829 530.400,198.000 530.580,198.000 530.800 C 198.000 531.020,198.900 531.200,200.000 531.200 C 201.100 531.200,202.000 531.020,202.000 530.800 C 202.000 530.580,202.225 530.397,202.500 530.393 C 203.360 530.381,204.800 528.535,204.800 527.444 C 204.800 526.783,205.020 526.400,205.400 526.400 C 205.730 526.400,206.000 526.130,206.000 525.800 C 206.000 525.470,206.287 525.200,206.637 525.200 C 206.988 525.200,207.369 524.840,207.484 524.400 C 207.599 523.960,207.942 523.600,208.247 523.600 C 208.612 523.600,208.800 523.125,208.800 522.200 C 208.800 521.067,208.952 520.800,209.600 520.800 C 210.044 520.800,210.400 520.533,210.400 520.200 C 210.400 519.870,210.670 519.600,211.000 519.600 C 211.333 519.600,211.600 519.244,211.600 518.800 C 211.600 518.360,211.856 518.000,212.168 518.000 C 212.481 518.000,212.855 517.460,213.000 516.800 C 213.145 516.140,213.519 515.600,213.832 515.600 C 214.144 515.600,214.400 515.240,214.400 514.800 C 214.400 514.356,214.667 514.000,215.000 514.000 C 215.330 514.000,215.600 513.751,215.600 513.447 C 215.600 513.142,215.960 512.799,216.400 512.684 C 216.983 512.532,217.200 512.138,217.200 511.237 C 217.200 510.404,217.396 510.000,217.800 510.000 C 218.130 510.000,218.400 509.730,218.400 509.400 C 218.400 509.070,218.687 508.800,219.037 508.800 C 219.388 508.800,219.766 508.452,219.877 508.028 C 219.988 507.603,220.331 507.159,220.639 507.040 C 220.950 506.921,221.200 506.283,221.200 505.613 C 221.200 504.667,221.376 504.400,222.000 504.400 C 222.444 504.400,222.800 504.133,222.800 503.800 C 222.800 503.470,223.070 503.200,223.400 503.200 C 223.733 503.200,224.000 502.844,224.000 502.400 C 224.000 501.956,224.267 501.600,224.600 501.600 C 225.000 501.600,225.200 501.200,225.200 500.400 C 225.200 499.569,225.396 499.200,225.837 499.200 C 226.188 499.200,226.569 498.840,226.684 498.400 C 226.799 497.960,227.142 497.600,227.447 497.600 C 227.751 497.600,228.000 497.420,228.000 497.200 C 228.000 496.980,228.360 496.440,228.800 496.000 C 229.240 495.560,229.600 494.840,229.600 494.400 C 229.600 493.956,229.867 493.600,230.200 493.600 C 230.533 493.600,230.800 493.244,230.800 492.800 C 230.800 492.356,231.067 492.000,231.400 492.000 C 231.730 492.000,232.000 491.751,232.000 491.447 C 232.000 491.142,232.360 490.799,232.800 490.684 C 233.383 490.532,233.600 490.138,233.600 489.237 C 233.600 488.404,233.796 488.000,234.200 488.000 C 234.530 488.000,234.800 487.730,234.800 487.400 C 234.800 487.070,235.087 486.800,235.437 486.800 C 235.788 486.800,236.169 486.440,236.284 486.000 C 236.399 485.560,236.742 485.200,237.047 485.200 C 237.412 485.200,237.600 484.725,237.600 483.800 C 237.600 482.667,237.752 482.400,238.400 482.400 C 238.844 482.400,239.200 482.133,239.200 481.800 C 239.200 481.470,239.470 481.200,239.800 481.200 C 240.130 481.200,240.400 480.924,240.400 480.587 C 240.400 480.251,240.670 479.871,241.000 479.745 C 241.342 479.613,241.600 479.017,241.600 478.357 C 241.600 477.467,241.784 477.200,242.400 477.200 C 242.933 477.200,243.200 476.933,243.200 476.400 C 243.200 475.956,243.467 475.600,243.800 475.600 C 244.130 475.600,244.400 475.330,244.400 475.000 C 244.400 474.670,244.651 474.400,244.957 474.400 C 245.569 474.400,246.000 473.559,246.000 472.367 C 246.000 471.945,246.270 471.600,246.600 471.600 C 246.930 471.600,247.200 471.330,247.200 471.000 C 247.200 470.670,247.487 470.400,247.837 470.400 C 248.188 470.400,248.569 470.040,248.684 469.600 C 248.799 469.160,249.142 468.800,249.447 468.800 C 249.812 468.800,250.000 468.325,250.000 467.400 C 250.000 466.422,250.181 466.000,250.600 466.000 C 250.930 466.000,251.200 465.730,251.200 465.400 C 251.200 465.067,251.556 464.800,252.000 464.800 C 252.533 464.800,252.800 464.533,252.800 464.000 C 252.800 463.556,253.067 463.200,253.400 463.200 C 253.800 463.200,254.000 462.800,254.000 462.000 C 254.000 461.169,254.196 460.800,254.637 460.800 C 254.988 460.800,255.369 460.440,255.484 460.000 C 255.599 459.560,255.942 459.200,256.247 459.200 C 256.551 459.200,256.800 458.930,256.800 458.600 C 256.800 458.270,257.062 458.000,257.382 458.000 C 257.730 458.000,258.069 457.438,258.226 456.600 C 258.377 455.798,258.726 455.200,259.045 455.200 C 259.350 455.200,259.600 454.949,259.600 454.643 C 259.600 454.336,259.870 453.982,260.200 453.855 C 260.530 453.729,260.800 453.370,260.800 453.059 C 260.800 452.748,261.160 452.399,261.600 452.284 C 262.183 452.132,262.400 451.738,262.400 450.837 C 262.400 450.004,262.596 449.600,263.000 449.600 C 263.330 449.600,263.600 449.330,263.600 449.000 C 263.600 448.670,263.887 448.400,264.237 448.400 C 264.588 448.400,264.969 448.040,265.084 447.600 C 265.199 447.160,265.542 446.800,265.847 446.800 C 266.195 446.800,266.400 446.355,266.400 445.600 C 266.400 444.769,266.596 444.400,267.037 444.400 C 267.388 444.400,267.769 444.040,267.884 443.600 C 267.999 443.160,268.342 442.800,268.647 442.800 C 268.951 442.800,269.200 442.549,269.200 442.243 C 269.200 441.936,269.470 441.582,269.800 441.455 C 270.151 441.321,270.400 440.721,270.400 440.013 C 270.400 439.067,270.576 438.800,271.200 438.800 C 271.640 438.800,272.000 438.549,272.000 438.243 C 272.000 437.936,272.270 437.582,272.600 437.455 C 272.930 437.329,273.200 436.949,273.200 436.613 C 273.200 436.276,273.451 436.000,273.757 436.000 C 274.369 436.000,274.800 435.159,274.800 433.967 C 274.800 433.545,275.070 433.200,275.400 433.200 C 275.730 433.200,276.000 432.930,276.000 432.600 C 276.000 432.270,276.270 432.000,276.600 432.000 C 276.933 432.000,277.200 431.644,277.200 431.200 C 277.200 430.667,277.467 430.400,278.000 430.400 C 278.622 430.400,278.800 430.133,278.800 429.200 C 278.800 428.400,279.000 428.000,279.400 428.000 C 279.733 428.000,280.000 427.644,280.000 427.200 C 280.000 426.667,280.267 426.400,280.800 426.400 C 281.240 426.400,281.600 426.149,281.600 425.843 C 281.600 425.536,281.870 425.182,282.200 425.055 C 282.551 424.921,282.800 424.321,282.800 423.613 C 282.800 422.770,282.994 422.400,283.437 422.400 C 283.788 422.400,284.169 422.040,284.284 421.600 C 284.399 421.160,284.742 420.800,285.047 420.800 C 285.351 420.800,285.600 420.530,285.600 420.200 C 285.600 419.870,285.870 419.600,286.200 419.600 C 286.619 419.600,286.800 419.178,286.800 418.200 C 286.800 417.067,286.952 416.800,287.600 416.800 C 288.044 416.800,288.400 416.533,288.400 416.200 C 288.400 415.870,288.670 415.600,289.000 415.600 C 289.330 415.600,289.600 415.261,289.600 414.847 C 289.600 414.430,289.957 414.000,290.400 413.884 C 290.941 413.743,291.200 413.338,291.200 412.637 C 291.200 411.982,291.421 411.600,291.800 411.600 C 292.133 411.600,292.400 411.244,292.400 410.800 C 292.400 410.360,292.604 410.000,292.854 410.000 C 293.645 410.000,295.200 407.998,295.200 406.979 C 295.200 406.375,295.430 406.000,295.800 406.000 C 296.133 406.000,296.400 405.644,296.400 405.200 C 296.400 404.667,296.667 404.400,297.200 404.400 C 297.644 404.400,298.000 404.133,298.000 403.800 C 298.000 403.470,298.270 403.200,298.600 403.200 C 299.019 403.200,299.200 402.778,299.200 401.800 C 299.200 400.667,299.352 400.400,300.000 400.400 C 300.444 400.400,300.800 400.133,300.800 399.800 C 300.800 399.470,301.070 399.200,301.400 399.200 C 301.733 399.200,302.000 398.844,302.000 398.400 C 302.000 397.960,302.262 397.600,302.582 397.600 C 302.930 397.600,303.269 397.038,303.426 396.200 C 303.577 395.398,303.926 394.800,304.245 394.800 C 304.550 394.800,304.800 394.530,304.800 394.200 C 304.800 393.870,305.070 393.600,305.400 393.600 C 305.730 393.600,306.000 393.336,306.000 393.014 C 306.000 392.692,306.360 392.235,306.800 392.000 C 307.268 391.750,307.600 391.162,307.600 390.586 C 307.600 389.976,307.829 389.600,308.200 389.600 C 308.533 389.600,308.800 389.244,308.800 388.800 C 308.800 388.267,309.067 388.000,309.600 388.000 C 310.040 388.000,310.400 387.749,310.400 387.443 C 310.400 387.136,310.670 386.782,311.000 386.655 C 311.351 386.521,311.600 385.921,311.600 385.213 C 311.600 384.267,311.776 384.000,312.400 384.000 C 312.840 384.000,313.200 383.749,313.200 383.443 C 313.200 383.136,313.470 382.782,313.800 382.655 C 314.130 382.529,314.400 382.149,314.400 381.813 C 314.400 381.476,314.670 381.200,315.000 381.200 C 315.419 381.200,315.600 380.778,315.600 379.800 C 315.600 378.667,315.752 378.400,316.400 378.400 C 316.844 378.400,317.200 378.133,317.200 377.800 C 317.200 377.470,317.470 377.200,317.800 377.200 C 318.133 377.200,318.400 376.844,318.400 376.400 C 318.400 375.950,318.667 375.600,319.010 375.600 C 319.368 375.600,319.719 375.104,319.860 374.400 C 319.992 373.740,320.348 373.200,320.650 373.200 C 320.953 373.200,321.200 372.840,321.200 372.400 C 321.200 371.960,321.400 371.600,321.644 371.600 C 322.521 371.600,323.986 369.791,323.993 368.700 C 323.998 367.992,324.214 367.600,324.600 367.600 C 324.930 367.600,325.200 367.351,325.200 367.047 C 325.200 366.742,325.560 366.399,326.000 366.284 C 326.440 366.169,326.800 365.788,326.800 365.437 C 326.800 365.087,327.070 364.800,327.400 364.800 C 327.819 364.800,328.000 364.378,328.000 363.400 C 328.000 362.267,328.152 362.000,328.800 362.000 C 329.244 362.000,329.600 361.733,329.600 361.400 C 329.600 361.070,329.870 360.800,330.200 360.800 C 330.533 360.800,330.800 360.444,330.800 360.000 C 330.800 359.556,331.067 359.200,331.400 359.200 C 331.795 359.200,332.000 358.805,332.000 358.047 C 332.000 357.230,332.233 356.832,332.800 356.684 C 333.240 356.569,333.600 356.188,333.600 355.837 C 333.600 355.487,333.870 355.200,334.200 355.200 C 334.530 355.200,334.800 354.973,334.800 354.696 C 334.800 354.419,335.160 353.968,335.600 353.693 C 336.052 353.410,336.400 352.760,336.400 352.197 C 336.400 351.577,336.627 351.200,337.000 351.200 C 337.333 351.200,337.600 350.844,337.600 350.400 C 337.600 349.960,337.800 349.600,338.044 349.600 C 338.921 349.600,340.386 347.791,340.393 346.700 C 340.398 345.992,340.614 345.600,341.000 345.600 C 341.330 345.600,341.600 345.351,341.600 345.047 C 341.600 344.742,341.960 344.399,342.400 344.284 C 342.840 344.169,343.200 343.788,343.200 343.437 C 343.200 343.087,343.470 342.800,343.800 342.800 C 344.195 342.800,344.400 342.405,344.400 341.647 C 344.400 340.830,344.633 340.432,345.200 340.284 C 345.640 340.169,346.000 339.788,346.000 339.437 C 346.000 339.087,346.270 338.800,346.600 338.800 C 346.930 338.800,347.200 338.549,347.200 338.243 C 347.200 337.936,347.453 337.588,347.762 337.470 C 348.072 337.351,348.446 336.702,348.594 336.027 C 348.742 335.352,349.119 334.800,349.432 334.800 C 349.744 334.800,350.000 334.440,350.000 334.000 C 350.000 333.556,350.267 333.200,350.600 333.200 C 350.930 333.200,351.200 332.951,351.200 332.647 C 351.200 332.342,351.560 331.999,352.000 331.884 C 352.583 331.732,352.800 331.338,352.800 330.437 C 352.800 329.604,352.996 329.200,353.400 329.200 C 353.730 329.200,354.000 328.951,354.000 328.647 C 354.000 328.342,354.360 327.999,354.800 327.884 C 355.240 327.769,355.600 327.388,355.600 327.037 C 355.600 326.687,355.870 326.400,356.200 326.400 C 356.619 326.400,356.800 325.978,356.800 325.000 C 356.800 323.867,356.952 323.600,357.600 323.600 C 358.044 323.600,358.400 323.333,358.400 323.000 C 358.400 322.670,358.670 322.400,359.000 322.400 C 359.333 322.400,359.600 322.044,359.600 321.600 C 359.600 321.156,359.867 320.800,360.200 320.800 C 360.600 320.800,360.800 320.400,360.800 319.600 C 360.800 318.667,360.978 318.400,361.600 318.400 C 362.133 318.400,362.400 318.133,362.400 317.600 C 362.400 317.156,362.667 316.800,363.000 316.800 C 363.395 316.800,363.600 316.405,363.600 315.647 C 363.600 314.830,363.833 314.432,364.400 314.284 C 364.840 314.169,365.200 313.788,365.200 313.437 C 365.200 313.087,365.470 312.800,365.800 312.800 C 366.219 312.800,366.400 312.378,366.400 311.400 C 366.400 310.267,366.552 310.000,367.200 310.000 C 367.640 310.000,368.000 309.749,368.000 309.443 C 368.000 309.136,368.270 308.782,368.600 308.655 C 368.951 308.521,369.200 307.921,369.200 307.213 C 369.200 306.401,369.399 306.000,369.800 306.000 C 370.130 306.000,370.400 305.736,370.400 305.414 C 370.400 305.092,370.760 304.635,371.200 304.400 C 371.668 304.150,372.000 303.562,372.000 302.986 C 372.000 302.376,372.229 302.000,372.600 302.000 C 373.015 302.000,373.200 301.583,373.200 300.647 C 373.200 299.630,373.399 299.241,374.000 299.084 C 374.583 298.932,374.800 298.538,374.800 297.637 C 374.800 296.804,374.996 296.400,375.400 296.400 C 375.733 296.400,376.000 296.044,376.000 295.600 C 376.000 295.156,376.267 294.800,376.600 294.800 C 376.995 294.800,377.200 294.405,377.200 293.647 C 377.200 292.830,377.433 292.432,378.000 292.284 C 378.583 292.132,378.800 291.738,378.800 290.837 C 378.800 290.004,378.996 289.600,379.400 289.600 C 379.815 289.600,380.000 289.183,380.000 288.247 C 380.000 287.230,380.199 286.841,380.800 286.684 C 381.383 286.532,381.600 286.138,381.600 285.237 C 381.600 284.404,381.796 284.000,382.200 284.000 C 382.619 284.000,382.800 283.578,382.800 282.600 C 382.800 281.675,382.988 281.200,383.353 281.200 C 383.960 281.200,384.386 280.013,384.395 278.300 C 384.398 277.591,384.613 277.200,385.000 277.200 C 385.419 277.200,385.600 276.778,385.600 275.800 C 385.600 274.822,385.781 274.400,386.200 274.400 C 386.653 274.400,386.800 273.911,386.800 272.400 C 386.800 270.667,386.907 270.400,387.600 270.400 C 388.248 270.400,388.400 270.133,388.400 269.000 C 388.400 268.022,388.581 267.600,389.000 267.600 C 389.451 267.600,389.600 267.116,389.600 265.647 C 389.600 264.030,389.738 263.657,390.400 263.484 C 391.068 263.309,391.200 262.938,391.200 261.237 C 391.200 259.693,391.345 259.200,391.800 259.200 C 392.271 259.200,392.400 258.650,392.400 256.647 C 392.400 254.430,392.505 254.066,393.200 253.884 C 393.868 253.709,394.000 253.338,394.000 251.637 C 394.000 250.093,394.145 249.600,394.600 249.600 C 395.083 249.600,395.200 248.978,395.200 246.400 C 395.200 243.822,395.317 243.200,395.800 243.200 C 396.289 243.200,396.400 242.533,396.400 239.600 C 396.400 236.267,396.459 236.000,397.200 236.000 C 397.947 236.000,398.000 235.733,398.000 232.000 C 398.000 228.711,398.107 228.000,398.600 228.000 C 399.112 228.000,399.200 226.889,399.200 220.400 C 399.200 215.600,399.347 212.800,399.600 212.800 C 399.857 212.800,400.000 208.667,400.000 201.200 C 400.000 193.733,399.857 189.600,399.600 189.600 C 399.346 189.600,399.200 186.600,399.200 181.400 C 399.200 174.378,399.114 173.200,398.600 173.200 C 398.107 173.200,398.000 172.492,398.000 169.227 C 398.000 165.605,397.929 165.231,397.200 165.000 C 396.471 164.769,396.400 164.395,396.400 160.773 C 396.400 157.508,396.293 156.800,395.800 156.800 C 395.324 156.800,395.200 156.222,395.200 154.000 C 395.200 151.778,395.076 151.200,394.600 151.200 C 394.128 151.200,394.000 150.644,394.000 148.600 C 394.000 146.267,393.918 146.000,393.200 146.000 C 392.476 146.000,392.400 145.733,392.400 143.200 C 392.400 140.978,392.276 140.400,391.800 140.400 C 391.347 140.400,391.200 139.911,391.200 138.400 C 391.200 136.667,391.093 136.400,390.400 136.400 C 389.697 136.400,389.600 136.133,389.600 134.200 C 389.600 132.511,389.461 132.000,389.000 132.000 C 388.547 132.000,388.400 131.511,388.400 130.000 C 388.400 128.267,388.293 128.000,387.600 128.000 C 386.952 128.000,386.800 127.733,386.800 126.600 C 386.800 125.622,386.619 125.200,386.200 125.200 C 385.747 125.200,385.600 124.711,385.600 123.200 C 385.600 121.689,385.453 121.200,385.000 121.200 C 384.596 121.200,384.400 120.796,384.400 119.963 C 384.400 119.062,384.183 118.668,383.600 118.516 C 382.938 118.343,382.800 117.970,382.800 116.353 C 382.800 114.884,382.651 114.400,382.200 114.400 C 381.796 114.400,381.600 113.996,381.600 113.163 C 381.600 112.262,381.383 111.868,380.800 111.716 C 380.231 111.567,380.000 111.170,380.000 110.341 C 380.000 109.673,379.743 109.076,379.400 108.945 C 379.063 108.815,378.800 108.220,378.800 107.584 C 378.800 106.805,378.551 106.375,378.000 106.200 C 377.440 106.022,377.200 105.595,377.200 104.773 C 377.200 103.997,376.997 103.600,376.600 103.600 C 376.267 103.600,376.000 103.244,376.000 102.800 C 376.000 102.356,375.733 102.000,375.400 102.000 C 374.996 102.000,374.800 101.596,374.800 100.763 C 374.800 99.862,374.583 99.468,374.000 99.316 C 373.431 99.167,373.200 98.770,373.200 97.941 C 373.200 97.273,372.943 96.676,372.600 96.545 C 372.270 96.418,372.000 96.064,372.000 95.757 C 372.000 95.451,371.640 95.200,371.200 95.200 C 370.552 95.200,370.400 94.933,370.400 93.800 C 370.400 92.822,370.219 92.400,369.800 92.400 C 369.414 92.400,369.198 92.008,369.193 91.300 C 369.186 90.209,367.721 88.400,366.844 88.400 C 366.600 88.400,366.400 87.854,366.400 87.187 C 366.400 86.479,366.151 85.879,365.800 85.745 C 365.470 85.618,365.200 85.264,365.200 84.957 C 365.200 84.651,364.840 84.400,364.400 84.400 C 363.867 84.400,363.600 84.133,363.600 83.600 C 363.600 83.156,363.333 82.800,363.000 82.800 C 362.603 82.800,362.400 82.403,362.400 81.627 C 362.400 80.805,362.160 80.378,361.600 80.200 C 361.160 80.060,360.800 79.688,360.800 79.373 C 360.800 79.058,360.530 78.800,360.200 78.800 C 359.867 78.800,359.600 78.444,359.600 78.000 C 359.600 77.560,359.344 77.200,359.032 77.200 C 358.719 77.200,358.345 76.660,358.200 76.000 C 358.055 75.340,357.681 74.800,357.368 74.800 C 357.056 74.800,356.800 74.440,356.800 74.000 C 356.800 73.556,356.533 73.200,356.200 73.200 C 355.870 73.200,355.600 72.930,355.600 72.600 C 355.600 72.267,355.244 72.000,354.800 72.000 C 354.267 72.000,354.000 71.733,354.000 71.200 C 354.000 70.756,353.733 70.400,353.400 70.400 C 353.070 70.400,352.800 70.130,352.800 69.800 C 352.800 69.467,352.444 69.200,352.000 69.200 C 351.352 69.200,351.200 68.933,351.200 67.800 C 351.200 66.822,351.019 66.400,350.600 66.400 C 350.270 66.400,350.000 66.130,350.000 65.800 C 350.000 65.470,349.751 65.200,349.447 65.200 C 349.142 65.200,348.799 64.840,348.684 64.400 C 348.569 63.960,348.188 63.600,347.837 63.600 C 347.487 63.600,347.200 63.330,347.200 63.000 C 347.200 62.670,346.951 62.400,346.647 62.400 C 346.342 62.400,345.999 62.040,345.884 61.600 C 345.769 61.160,345.388 60.800,345.037 60.800 C 344.687 60.800,344.400 60.530,344.400 60.200 C 344.400 59.870,344.130 59.600,343.800 59.600 C 343.470 59.600,343.200 59.342,343.200 59.027 C 343.200 58.712,342.840 58.340,342.400 58.200 C 341.960 58.060,341.600 57.688,341.600 57.373 C 341.600 57.058,341.330 56.800,341.000 56.800 C 340.670 56.800,340.400 56.530,340.400 56.200 C 340.400 55.870,340.151 55.600,339.847 55.600 C 339.542 55.600,339.199 55.240,339.084 54.800 C 338.969 54.360,338.588 54.000,338.237 54.000 C 337.887 54.000,337.600 53.730,337.600 53.400 C 337.600 53.070,337.351 52.800,337.047 52.800 C 336.742 52.800,336.399 52.440,336.284 52.000 C 336.169 51.560,335.788 51.200,335.437 51.200 C 335.087 51.200,334.800 50.930,334.800 50.600 C 334.800 50.270,334.530 50.000,334.200 50.000 C 333.870 50.000,333.600 49.730,333.600 49.400 C 333.600 49.067,333.244 48.800,332.800 48.800 C 332.267 48.800,332.000 48.533,332.000 48.000 C 332.000 47.378,331.733 47.200,330.800 47.200 C 330.000 47.200,329.600 47.000,329.600 46.600 C 329.600 46.267,329.244 46.000,328.800 46.000 C 328.267 46.000,328.000 45.733,328.000 45.200 C 328.000 44.756,327.733 44.400,327.400 44.400 C 327.070 44.400,326.800 44.130,326.800 43.800 C 326.800 43.467,326.444 43.200,326.000 43.200 C 325.560 43.200,325.200 42.944,325.200 42.632 C 325.200 42.319,324.660 41.945,324.000 41.800 C 323.340 41.655,322.800 41.281,322.800 40.968 C 322.800 40.656,322.440 40.400,322.000 40.400 C 321.556 40.400,321.200 40.133,321.200 39.800 C 321.200 39.470,320.951 39.200,320.647 39.200 C 320.342 39.200,319.999 38.840,319.884 38.400 C 319.732 37.817,319.338 37.600,318.437 37.600 C 317.604 37.600,317.200 37.404,317.200 37.000 C 317.200 36.667,316.844 36.400,316.400 36.400 C 315.867 36.400,315.600 36.133,315.600 35.600 C 315.600 35.160,315.349 34.800,315.043 34.800 C 314.736 34.800,314.382 34.530,314.255 34.200 C 314.121 33.849,313.521 33.600,312.813 33.600 C 312.146 33.600,311.600 33.396,311.600 33.146 C 311.600 32.355,309.598 30.800,308.579 30.800 C 307.975 30.800,307.600 30.570,307.600 30.200 C 307.600 29.870,307.261 29.600,306.847 29.600 C 306.430 29.600,306.000 29.243,305.884 28.800 C 305.746 28.271,305.338 28.000,304.680 28.000 C 304.133 28.000,303.582 27.730,303.455 27.400 C 303.324 27.057,302.727 26.800,302.059 26.800 C 301.207 26.800,300.834 26.571,300.671 25.950 C 300.490 25.259,300.253 25.150,299.391 25.366 C 298.540 25.580,298.292 25.473,298.120 24.816 C 298.001 24.359,297.575 24.000,297.153 24.000 C 296.739 24.000,296.400 23.750,296.400 23.445 C 296.400 23.126,295.802 22.777,295.000 22.626 C 294.162 22.469,293.600 22.130,293.600 21.782 C 293.600 21.402,293.183 21.200,292.400 21.200 C 291.600 21.200,291.200 21.000,291.200 20.600 C 291.200 20.185,290.783 20.000,289.847 20.000 C 288.830 20.000,288.441 19.801,288.284 19.200 C 288.132 18.617,287.738 18.400,286.837 18.400 C 286.004 18.400,285.600 18.204,285.600 17.800 C 285.600 17.349,285.116 17.200,283.647 17.200 C 281.988 17.200,281.660 17.071,281.470 16.345 C 281.283 15.632,281.044 15.531,280.023 15.735 C 278.989 15.942,278.800 15.858,278.800 15.190 C 278.800 14.554,278.527 14.400,277.400 14.400 C 276.422 14.400,276.000 14.219,276.000 13.800 C 276.000 13.349,275.516 13.200,274.047 13.200 C 272.430 13.200,272.057 13.062,271.884 12.400 C 271.714 11.750,271.338 11.600,269.880 11.600 C 268.654 11.600,268.013 11.410,267.855 11.000 C 267.693 10.577,267.032 10.400,265.613 10.400 C 263.867 10.400,263.600 10.294,263.600 9.600 C 263.600 8.907,263.333 8.800,261.600 8.800 C 260.089 8.800,259.600 8.653,259.600 8.200 C 259.600 7.747,259.111 7.600,257.600 7.600 C 256.100 7.600,255.600 7.452,255.600 7.008 C 255.600 6.217,253.948 5.844,251.772 6.142 C 250.191 6.359,250.000 6.299,250.000 5.592 C 250.000 4.878,249.724 4.800,247.200 4.800 C 244.978 4.800,244.400 4.676,244.400 4.200 C 244.400 3.714,243.756 3.600,241.000 3.600 C 237.867 3.600,237.600 3.537,237.600 2.800 C 237.600 2.063,237.333 2.000,234.200 2.000 C 231.444 2.000,230.800 1.886,230.800 1.400 C 230.800 0.896,229.933 0.800,225.400 0.800 C 222.067 0.800,220.000 0.647,220.000 0.400 C 220.000 0.139,213.067 0.000,200.000 0.000 C 186.933 0.000,180.000 0.139,180.000 0.400 M206.116 68.400 C 206.315 69.161,206.662 69.200,213.163 69.200 C 218.974 69.200,220.000 69.290,220.000 69.800 C 220.000 70.286,220.644 70.400,223.400 70.400 C 226.533 70.400,226.800 70.463,226.800 71.200 C 226.800 71.924,227.067 72.000,229.600 72.000 C 231.822 72.000,232.400 72.124,232.400 72.600 C 232.400 73.071,232.950 73.200,234.953 73.200 C 237.170 73.200,237.534 73.305,237.716 74.000 C 237.886 74.650,238.262 74.800,239.720 74.800 C 240.946 74.800,241.587 74.990,241.745 75.400 C 241.907 75.823,242.568 76.000,243.987 76.000 C 245.510 76.000,246.000 76.146,246.000 76.600 C 246.000 77.019,246.422 77.200,247.400 77.200 C 248.533 77.200,248.800 77.352,248.800 78.000 C 248.800 78.648,249.067 78.800,250.200 78.800 C 251.178 78.800,251.600 78.981,251.600 79.400 C 251.600 79.853,252.089 80.000,253.600 80.000 C 255.333 80.000,255.600 80.107,255.600 80.800 C 255.600 81.448,255.867 81.600,257.000 81.600 C 257.978 81.600,258.400 81.781,258.400 82.200 C 258.400 82.600,258.800 82.800,259.600 82.800 C 260.400 82.800,260.800 83.000,260.800 83.400 C 260.800 83.730,261.139 84.000,261.553 84.000 C 261.970 84.000,262.400 84.357,262.516 84.800 C 262.668 85.383,263.062 85.600,263.963 85.600 C 264.796 85.600,265.200 85.796,265.200 86.200 C 265.200 86.619,265.622 86.800,266.600 86.800 C 267.733 86.800,268.000 86.952,268.000 87.600 C 268.000 88.044,268.267 88.400,268.600 88.400 C 268.930 88.400,269.200 88.670,269.200 89.000 C 269.200 89.419,269.622 89.600,270.600 89.600 C 271.370 89.600,272.000 89.800,272.000 90.044 C 272.000 90.921,273.809 92.386,274.900 92.393 C 275.608 92.398,276.000 92.614,276.000 93.000 C 276.000 93.333,276.356 93.600,276.800 93.600 C 277.333 93.600,277.600 93.867,277.600 94.400 C 277.600 94.844,277.867 95.200,278.200 95.200 C 278.530 95.200,278.800 95.470,278.800 95.800 C 278.800 96.219,279.222 96.400,280.200 96.400 C 281.333 96.400,281.600 96.552,281.600 97.200 C 281.600 97.644,281.867 98.000,282.200 98.000 C 282.530 98.000,282.800 98.270,282.800 98.600 C 282.800 98.933,283.156 99.200,283.600 99.200 C 284.040 99.200,284.400 99.400,284.400 99.644 C 284.400 100.258,286.090 101.985,286.700 101.993 C 286.975 101.997,287.200 102.259,287.200 102.575 C 287.200 102.931,287.695 103.197,288.500 103.275 C 289.481 103.369,289.771 103.572,289.682 104.100 C 289.602 104.577,289.826 104.800,290.382 104.800 C 290.842 104.800,291.200 105.062,291.200 105.400 C 291.200 105.730,291.470 106.000,291.800 106.000 C 292.133 106.000,292.400 106.356,292.400 106.800 C 292.400 107.333,292.667 107.600,293.200 107.600 C 293.644 107.600,294.000 107.867,294.000 108.200 C 294.000 108.530,294.270 108.800,294.600 108.800 C 295.004 108.800,295.200 109.204,295.200 110.037 C 295.200 110.938,295.417 111.332,296.000 111.484 C 296.440 111.599,296.800 111.942,296.800 112.247 C 296.800 112.551,297.070 112.800,297.400 112.800 C 297.733 112.800,298.000 113.156,298.000 113.600 C 298.000 114.044,298.267 114.400,298.600 114.400 C 298.930 114.400,299.200 114.670,299.200 115.000 C 299.200 115.333,299.556 115.600,300.000 115.600 C 300.533 115.600,300.800 115.867,300.800 116.400 C 300.800 116.844,301.067 117.200,301.400 117.200 C 301.730 117.200,302.000 117.470,302.000 117.800 C 302.000 118.133,302.356 118.400,302.800 118.400 C 303.448 118.400,303.600 118.667,303.600 119.800 C 303.600 120.778,303.781 121.200,304.200 121.200 C 304.530 121.200,304.800 121.470,304.800 121.800 C 304.800 122.130,305.070 122.400,305.400 122.400 C 305.730 122.400,306.000 122.687,306.000 123.037 C 306.000 123.388,306.360 123.769,306.800 123.884 C 307.369 124.033,307.600 124.430,307.600 125.259 C 307.600 125.927,307.857 126.524,308.200 126.655 C 308.530 126.782,308.800 127.136,308.800 127.443 C 308.800 127.749,309.160 128.000,309.600 128.000 C 310.248 128.000,310.400 128.267,310.400 129.400 C 310.400 130.378,310.581 130.800,311.000 130.800 C 311.397 130.800,311.600 131.197,311.600 131.973 C 311.600 132.795,311.840 133.222,312.400 133.400 C 312.840 133.540,313.200 133.912,313.200 134.227 C 313.200 134.542,313.470 134.800,313.800 134.800 C 314.219 134.800,314.400 135.222,314.400 136.200 C 314.400 137.347,314.549 137.600,315.224 137.600 C 315.700 137.600,315.937 137.778,315.786 138.023 C 315.369 138.697,315.958 140.400,316.608 140.400 C 317.001 140.400,317.200 140.808,317.200 141.613 C 317.200 142.321,317.449 142.921,317.800 143.055 C 318.148 143.189,318.400 143.787,318.400 144.480 C 318.400 145.338,318.625 145.734,319.200 145.884 C 319.767 146.032,320.000 146.430,320.000 147.247 C 320.000 148.005,320.205 148.400,320.600 148.400 C 321.051 148.400,321.200 148.884,321.200 150.353 C 321.200 151.970,321.338 152.343,322.000 152.516 C 322.583 152.668,322.800 153.062,322.800 153.963 C 322.800 154.796,322.996 155.200,323.400 155.200 C 323.861 155.200,324.000 155.711,324.000 157.400 C 324.000 159.014,324.148 159.600,324.557 159.600 C 325.330 159.600,325.598 160.500,325.326 162.177 C 325.122 163.435,325.194 163.600,325.948 163.600 C 326.736 163.600,326.800 163.809,326.800 166.400 C 326.800 168.622,326.924 169.200,327.400 169.200 C 327.884 169.200,328.000 169.826,328.000 172.437 C 328.000 175.338,328.083 175.697,328.800 175.884 C 329.532 176.076,329.600 176.430,329.600 180.047 C 329.600 183.294,329.707 184.000,330.200 184.000 C 330.723 184.000,330.800 186.022,330.800 199.800 C 330.800 213.578,330.723 215.600,330.200 215.600 C 329.705 215.600,329.600 216.333,329.600 219.800 C 329.600 223.733,329.549 224.000,328.800 224.000 C 328.063 224.000,328.000 224.267,328.000 227.400 C 328.000 230.156,327.886 230.800,327.400 230.800 C 326.949 230.800,326.800 231.284,326.800 232.753 C 326.800 234.412,326.671 234.740,325.945 234.930 C 325.192 235.127,325.115 235.365,325.293 236.944 C 325.463 238.454,325.377 238.765,324.747 238.930 C 324.141 239.088,324.000 239.510,324.000 241.163 C 324.000 242.707,323.855 243.200,323.400 243.200 C 322.947 243.200,322.800 243.689,322.800 245.200 C 322.800 246.933,322.693 247.200,322.000 247.200 C 321.352 247.200,321.200 247.467,321.200 248.600 C 321.200 249.578,321.019 250.000,320.600 250.000 C 320.147 250.000,320.000 250.489,320.000 252.000 C 320.000 253.733,319.893 254.000,319.200 254.000 C 318.552 254.000,318.400 254.267,318.400 255.400 C 318.400 256.378,318.219 256.800,317.800 256.800 C 317.381 256.800,317.200 257.222,317.200 258.200 C 317.200 259.358,317.054 259.600,316.355 259.600 C 315.647 259.600,315.537 259.791,315.681 260.773 C 315.811 261.658,315.676 261.991,315.127 262.135 C 314.727 262.240,314.400 262.612,314.400 262.963 C 314.400 263.313,314.130 263.600,313.800 263.600 C 313.381 263.600,313.200 264.022,313.200 265.000 C 313.200 266.133,313.048 266.400,312.400 266.400 C 311.752 266.400,311.600 266.667,311.600 267.800 C 311.600 268.778,311.419 269.200,311.000 269.200 C 310.670 269.200,310.400 269.449,310.400 269.753 C 310.400 270.058,310.040 270.401,309.600 270.516 C 309.017 270.668,308.800 271.062,308.800 271.963 C 308.800 272.796,308.604 273.200,308.200 273.200 C 307.870 273.200,307.600 273.470,307.600 273.800 C 307.600 274.130,307.342 274.400,307.027 274.400 C 306.712 274.400,306.340 274.760,306.200 275.200 C 306.060 275.640,305.688 276.000,305.373 276.000 C 304.985 276.000,304.800 276.451,304.800 277.400 C 304.800 278.378,304.619 278.800,304.200 278.800 C 303.870 278.800,303.600 279.070,303.600 279.400 C 303.600 279.733,303.244 280.000,302.800 280.000 C 302.348 280.000,302.000 280.267,302.000 280.613 C 302.000 280.949,301.730 281.329,301.400 281.455 C 301.058 281.587,300.800 282.183,300.800 282.843 C 300.800 283.753,300.620 284.000,299.957 284.000 C 299.351 284.000,299.183 284.179,299.359 284.637 C 299.522 285.062,299.336 285.344,298.802 285.484 C 298.361 285.599,298.000 285.942,298.000 286.247 C 298.000 286.551,297.796 286.800,297.546 286.800 C 297.012 286.800,295.200 288.670,295.200 289.221 C 295.200 289.429,294.930 289.600,294.600 289.600 C 294.270 289.600,294.000 289.870,294.000 290.200 C 294.000 290.530,293.713 290.800,293.363 290.800 C 293.012 290.800,292.631 291.160,292.516 291.600 C 292.401 292.040,292.058 292.400,291.753 292.400 C 291.449 292.400,291.200 292.670,291.200 293.000 C 291.200 293.333,290.844 293.600,290.400 293.600 C 289.867 293.600,289.600 293.867,289.600 294.400 C 289.600 294.844,289.333 295.200,289.000 295.200 C 288.670 295.200,288.400 295.470,288.400 295.800 C 288.400 296.130,288.200 296.400,287.956 296.400 C 287.342 296.400,285.615 298.090,285.607 298.700 C 285.603 298.989,285.087 299.200,284.387 299.200 C 283.679 299.200,283.079 299.449,282.945 299.800 C 282.818 300.130,282.464 300.400,282.157 300.400 C 281.851 300.400,281.600 300.760,281.600 301.200 C 281.600 301.733,281.333 302.000,280.800 302.000 C 280.356 302.000,280.000 302.267,280.000 302.600 C 280.000 302.930,279.730 303.200,279.400 303.200 C 279.067 303.200,278.800 303.556,278.800 304.000 C 278.800 304.648,278.533 304.800,277.400 304.800 C 276.422 304.800,276.000 304.981,276.000 305.400 C 276.000 305.730,275.730 306.000,275.400 306.000 C 275.070 306.000,274.800 306.250,274.800 306.555 C 274.800 306.874,274.202 307.223,273.400 307.374 C 272.562 307.531,272.000 307.870,272.000 308.218 C 272.000 308.538,271.724 308.800,271.387 308.800 C 271.051 308.800,270.671 309.070,270.545 309.400 C 270.418 309.730,269.867 310.000,269.320 310.000 C 268.662 310.000,268.254 310.271,268.116 310.800 C 268.000 311.243,267.570 311.600,267.153 311.600 C 266.739 311.600,266.400 311.870,266.400 312.200 C 266.400 312.619,265.978 312.800,265.000 312.800 C 263.867 312.800,263.600 312.952,263.600 313.600 C 263.600 314.224,263.333 314.400,262.387 314.400 C 261.679 314.400,261.079 314.649,260.945 315.000 C 260.813 315.342,260.217 315.600,259.557 315.600 C 258.703 315.600,258.400 315.791,258.400 316.331 C 258.400 316.918,258.160 317.026,257.175 316.882 C 256.183 316.736,255.909 316.863,255.729 317.551 C 255.558 318.205,255.196 318.400,254.153 318.400 C 253.217 318.400,252.800 318.585,252.800 319.000 C 252.800 319.419,252.378 319.600,251.400 319.600 C 250.267 319.600,250.000 319.752,250.000 320.400 C 250.000 321.093,249.733 321.200,248.000 321.200 C 246.489 321.200,246.000 321.347,246.000 321.800 C 246.000 322.253,245.511 322.400,244.000 322.400 C 242.572 322.400,242.000 322.557,242.000 322.948 C 242.000 323.305,241.295 323.591,239.981 323.765 C 238.779 323.924,237.872 324.269,237.738 324.616 C 237.584 325.018,236.904 325.200,235.557 325.200 C 234.084 325.200,233.600 325.348,233.600 325.800 C 233.600 326.449,232.785 326.595,230.072 326.432 C 228.609 326.344,228.310 326.457,228.125 327.164 C 227.927 327.923,227.615 328.000,224.741 328.000 C 222.296 328.000,221.522 328.137,221.345 328.600 C 221.158 329.085,220.235 329.200,216.520 329.200 C 212.262 329.200,211.910 329.259,211.716 330.000 C 211.512 330.778,211.170 330.800,199.153 330.800 C 187.067 330.800,186.800 330.783,186.800 330.000 C 186.800 329.244,186.533 329.200,182.000 329.200 C 178.000 329.200,177.200 329.100,177.200 328.600 C 177.200 328.114,176.556 328.000,173.800 328.000 C 170.597 328.000,170.400 327.951,170.400 327.148 C 170.400 326.392,170.236 326.322,168.958 326.529 C 167.078 326.834,165.200 326.445,165.200 325.750 C 165.200 325.350,164.600 325.200,163.000 325.200 C 161.394 325.200,160.800 325.051,160.800 324.647 C 160.800 324.040,159.613 323.614,157.900 323.605 C 157.191 323.602,156.800 323.387,156.800 323.000 C 156.800 322.547,156.311 322.400,154.800 322.400 C 153.289 322.400,152.800 322.253,152.800 321.800 C 152.800 321.385,152.383 321.200,151.447 321.200 C 150.430 321.200,150.041 321.001,149.884 320.400 C 149.732 319.817,149.338 319.600,148.437 319.600 C 147.604 319.600,147.200 319.404,147.200 319.000 C 147.200 318.581,146.778 318.400,145.800 318.400 C 144.830 318.400,144.400 318.218,144.400 317.808 C 144.400 317.158,142.697 316.569,142.023 316.986 C 141.778 317.137,141.600 316.900,141.600 316.424 C 141.600 315.749,141.347 315.600,140.200 315.600 C 139.222 315.600,138.800 315.419,138.800 315.000 C 138.800 314.605,138.405 314.400,137.647 314.400 C 136.830 314.400,136.432 314.167,136.284 313.600 C 136.132 313.017,135.738 312.800,134.837 312.800 C 134.004 312.800,133.600 312.604,133.600 312.200 C 133.600 311.781,133.178 311.600,132.200 311.600 C 131.067 311.600,130.800 311.448,130.800 310.800 C 130.800 310.360,130.549 310.000,130.243 310.000 C 129.936 310.000,129.582 309.730,129.455 309.400 C 129.324 309.057,128.727 308.800,128.059 308.800 C 127.230 308.800,126.833 308.569,126.684 308.000 C 126.569 307.560,126.188 307.200,125.837 307.200 C 125.487 307.200,125.200 306.930,125.200 306.600 C 125.200 306.270,124.930 306.000,124.600 306.000 C 124.270 306.000,124.000 305.730,124.000 305.400 C 124.000 304.981,123.578 304.800,122.600 304.800 C 121.467 304.800,121.200 304.648,121.200 304.000 C 121.200 303.556,120.933 303.200,120.600 303.200 C 120.270 303.200,120.000 302.930,120.000 302.600 C 120.000 302.270,119.661 302.000,119.247 302.000 C 118.830 302.000,118.400 301.643,118.284 301.200 C 118.132 300.617,117.738 300.400,116.837 300.400 C 116.004 300.400,115.600 300.204,115.600 299.800 C 115.600 299.470,115.330 299.200,115.000 299.200 C 114.670 299.200,114.397 298.975,114.393 298.700 C 114.385 298.090,112.658 296.400,112.044 296.400 C 111.800 296.400,111.600 296.130,111.600 295.800 C 111.600 295.470,111.351 295.200,111.047 295.200 C 110.742 295.200,110.399 294.840,110.284 294.400 C 110.169 293.960,109.788 293.600,109.437 293.600 C 109.087 293.600,108.800 293.330,108.800 293.000 C 108.800 292.670,108.551 292.400,108.247 292.400 C 107.942 292.400,107.599 292.040,107.484 291.600 C 107.369 291.160,106.988 290.800,106.637 290.800 C 106.287 290.800,106.000 290.530,106.000 290.200 C 106.000 289.870,105.730 289.600,105.400 289.600 C 105.070 289.600,104.800 289.429,104.800 289.221 C 104.800 288.670,102.988 286.800,102.454 286.800 C 102.204 286.800,102.000 286.530,102.000 286.200 C 102.000 285.870,101.730 285.600,101.400 285.600 C 101.067 285.600,100.800 285.244,100.800 284.800 C 100.800 284.267,100.533 284.000,100.000 284.000 C 99.384 284.000,99.200 283.733,99.200 282.843 C 99.200 282.183,98.942 281.587,98.600 281.455 C 98.270 281.329,98.000 280.949,98.000 280.613 C 98.000 280.267,97.652 280.000,97.200 280.000 C 96.756 280.000,96.400 279.733,96.400 279.400 C 96.400 279.070,96.130 278.800,95.800 278.800 C 95.381 278.800,95.200 278.378,95.200 277.400 C 95.200 276.451,95.015 276.000,94.627 276.000 C 94.312 276.000,93.940 275.640,93.800 275.200 C 93.660 274.760,93.288 274.400,92.973 274.400 C 92.658 274.400,92.400 274.130,92.400 273.800 C 92.400 273.470,92.130 273.200,91.800 273.200 C 91.396 273.200,91.200 272.796,91.200 271.963 C 91.200 271.062,90.983 270.668,90.400 270.516 C 89.960 270.401,89.600 270.058,89.600 269.753 C 89.600 269.449,89.330 269.200,89.000 269.200 C 88.581 269.200,88.400 268.778,88.400 267.800 C 88.400 266.667,88.248 266.400,87.600 266.400 C 86.952 266.400,86.800 266.133,86.800 265.000 C 86.800 264.022,86.619 263.600,86.200 263.600 C 85.799 263.600,85.600 263.199,85.600 262.387 C 85.600 261.679,85.351 261.079,85.000 260.945 C 84.670 260.818,84.400 260.464,84.400 260.157 C 84.400 259.851,84.040 259.600,83.600 259.600 C 82.952 259.600,82.800 259.333,82.800 258.200 C 82.800 257.222,82.619 256.800,82.200 256.800 C 81.754 256.800,81.600 256.329,81.600 254.963 C 81.600 253.462,81.454 253.087,80.800 252.916 C 80.199 252.759,80.000 252.370,80.000 251.353 C 80.000 250.417,79.815 250.000,79.400 250.000 C 78.981 250.000,78.800 249.578,78.800 248.600 C 78.800 247.467,78.648 247.200,78.000 247.200 C 77.307 247.200,77.200 246.933,77.200 245.200 C 77.200 243.689,77.053 243.200,76.600 243.200 C 76.146 243.200,76.000 242.710,76.000 241.187 C 76.000 239.768,75.823 239.107,75.400 238.945 C 74.990 238.787,74.800 238.146,74.800 236.920 C 74.800 235.462,74.650 235.086,74.000 234.916 C 73.307 234.735,73.200 234.370,73.200 232.196 C 73.200 230.334,73.045 229.626,72.600 229.455 C 72.151 229.283,72.000 228.566,72.000 226.613 C 72.000 224.267,71.918 224.000,71.200 224.000 C 70.451 224.000,70.400 223.733,70.400 219.800 C 70.400 216.333,70.295 215.600,69.800 215.600 C 69.276 215.600,69.200 213.511,69.200 199.200 C 69.200 184.889,69.276 182.800,69.800 182.800 C 70.295 182.800,70.400 182.067,70.400 178.600 C 70.400 174.667,70.451 174.400,71.200 174.400 C 71.918 174.400,72.000 174.133,72.000 171.787 C 72.000 169.834,72.151 169.117,72.600 168.945 C 73.045 168.774,73.200 168.066,73.200 166.204 C 73.200 164.030,73.307 163.665,74.000 163.484 C 74.650 163.314,74.800 162.938,74.800 161.480 C 74.800 160.254,74.990 159.613,75.400 159.455 C 75.823 159.293,76.000 158.632,76.000 157.213 C 76.000 155.690,76.146 155.200,76.600 155.200 C 77.053 155.200,77.200 154.711,77.200 153.200 C 77.200 151.467,77.307 151.200,78.000 151.200 C 78.648 151.200,78.800 150.933,78.800 149.800 C 78.800 148.822,78.981 148.400,79.400 148.400 C 79.798 148.400,80.000 148.002,80.000 147.214 C 80.000 146.438,80.276 145.880,80.800 145.600 C 81.272 145.347,81.600 144.762,81.600 144.173 C 81.600 143.624,81.870 143.071,82.200 142.945 C 82.530 142.818,82.800 142.284,82.800 141.757 C 82.800 141.231,83.160 140.440,83.600 140.000 C 84.040 139.560,84.400 138.859,84.400 138.443 C 84.400 138.026,84.670 137.582,85.000 137.455 C 85.351 137.321,85.600 136.721,85.600 136.013 C 85.600 135.201,85.799 134.800,86.200 134.800 C 86.619 134.800,86.800 134.378,86.800 133.400 C 86.800 132.267,86.952 132.000,87.600 132.000 C 88.040 132.000,88.400 131.749,88.400 131.443 C 88.400 131.136,88.670 130.782,89.000 130.655 C 89.351 130.521,89.600 129.921,89.600 129.213 C 89.600 128.267,89.776 128.000,90.400 128.000 C 90.933 128.000,91.200 127.733,91.200 127.200 C 91.200 126.756,91.467 126.400,91.800 126.400 C 92.200 126.400,92.400 126.000,92.400 125.200 C 92.400 124.369,92.596 124.000,93.037 124.000 C 93.388 124.000,93.769 123.640,93.884 123.200 C 93.999 122.760,94.342 122.400,94.647 122.400 C 94.951 122.400,95.200 122.130,95.200 121.800 C 95.200 121.470,95.470 121.200,95.800 121.200 C 96.219 121.200,96.400 120.778,96.400 119.800 C 96.400 118.667,96.552 118.400,97.200 118.400 C 97.640 118.400,98.000 118.149,98.000 117.843 C 98.000 117.536,98.270 117.182,98.600 117.055 C 98.930 116.929,99.200 116.549,99.200 116.213 C 99.200 115.867,99.548 115.600,100.000 115.600 C 100.440 115.600,100.800 115.349,100.800 115.043 C 100.800 114.736,101.070 114.382,101.400 114.255 C 101.730 114.129,102.000 113.749,102.000 113.413 C 102.000 113.076,102.256 112.800,102.568 112.800 C 102.881 112.800,103.255 112.260,103.400 111.600 C 103.545 110.940,103.919 110.400,104.232 110.400 C 104.544 110.400,104.800 110.040,104.800 109.600 C 104.800 109.156,105.067 108.800,105.400 108.800 C 105.730 108.800,106.000 108.530,106.000 108.200 C 106.000 107.867,106.356 107.600,106.800 107.600 C 107.333 107.600,107.600 107.333,107.600 106.800 C 107.600 106.356,107.867 106.000,108.200 106.000 C 108.530 106.000,108.800 105.730,108.800 105.400 C 108.800 105.067,109.156 104.800,109.600 104.800 C 110.133 104.800,110.400 104.533,110.400 104.000 C 110.400 103.378,110.667 103.200,111.600 103.200 C 112.400 103.200,112.800 103.000,112.800 102.600 C 112.800 102.270,113.025 101.997,113.300 101.993 C 113.910 101.985,115.600 100.258,115.600 99.644 C 115.600 99.400,115.960 99.200,116.400 99.200 C 116.844 99.200,117.200 98.933,117.200 98.600 C 117.200 98.270,117.470 98.000,117.800 98.000 C 118.133 98.000,118.400 97.644,118.400 97.200 C 118.400 96.552,118.667 96.400,119.800 96.400 C 120.778 96.400,121.200 96.219,121.200 95.800 C 121.200 95.470,121.487 95.200,121.837 95.200 C 122.188 95.200,122.569 94.840,122.684 94.400 C 122.799 93.960,123.142 93.600,123.447 93.600 C 123.751 93.600,124.000 93.330,124.000 93.000 C 124.000 92.599,124.401 92.400,125.213 92.400 C 125.921 92.400,126.521 92.151,126.655 91.800 C 126.782 91.470,127.136 91.200,127.443 91.200 C 127.749 91.200,128.000 90.840,128.000 90.400 C 128.000 89.752,128.267 89.600,129.400 89.600 C 130.378 89.600,130.800 89.419,130.800 89.000 C 130.800 88.670,131.070 88.400,131.400 88.400 C 131.733 88.400,132.000 88.044,132.000 87.600 C 132.000 86.952,132.267 86.800,133.400 86.800 C 134.378 86.800,134.800 86.619,134.800 86.200 C 134.800 85.796,135.204 85.600,136.037 85.600 C 136.938 85.600,137.332 85.383,137.484 84.800 C 137.641 84.199,138.030 84.000,139.047 84.000 C 139.983 84.000,140.400 83.815,140.400 83.400 C 140.400 82.999,140.801 82.800,141.613 82.800 C 142.321 82.800,142.921 82.551,143.055 82.200 C 143.182 81.870,143.626 81.600,144.043 81.600 C 144.459 81.600,145.160 81.240,145.600 80.800 C 146.040 80.360,146.856 80.000,147.413 80.000 C 147.969 80.000,148.529 79.730,148.655 79.400 C 148.787 79.058,149.383 78.800,150.043 78.800 C 150.933 78.800,151.200 78.616,151.200 78.000 C 151.200 77.306,151.467 77.200,153.213 77.200 C 154.632 77.200,155.293 77.023,155.455 76.600 C 155.612 76.192,156.251 76.000,157.455 76.000 C 158.659 76.000,159.299 75.808,159.455 75.400 C 159.582 75.070,160.161 74.798,160.743 74.795 C 162.416 74.786,163.600 74.354,163.600 73.753 C 163.600 73.356,164.166 73.200,165.613 73.200 C 167.032 73.200,167.693 73.023,167.855 72.600 C 168.031 72.142,168.782 72.000,171.029 72.000 C 173.562 72.000,174.031 71.889,174.400 71.200 C 174.776 70.497,175.238 70.400,178.214 70.400 C 180.957 70.400,181.600 70.286,181.600 69.800 C 181.600 69.291,182.604 69.200,188.237 69.200 C 194.538 69.200,194.885 69.159,195.084 68.400 C 195.280 67.651,195.630 67.600,200.600 67.600 C 205.570 67.600,205.920 67.651,206.116 68.400 M154.000 138.200 C 154.000 138.530,153.730 138.800,153.400 138.800 C 152.994 138.800,152.800 139.206,152.800 140.056 C 152.800 140.790,152.509 141.524,152.100 141.824 C 151.518 142.249,151.400 142.980,151.400 146.168 C 151.400 149.551,151.318 150.000,150.700 150.000 C 150.088 150.000,150.000 150.429,150.000 153.400 L 150.000 156.800 148.600 156.800 C 147.682 156.800,147.200 156.988,147.200 157.347 C 147.200 158.049,144.629 158.407,141.739 158.109 C 139.748 157.903,139.536 157.959,139.331 158.742 C 139.124 159.533,138.846 159.600,135.753 159.600 C 133.039 159.600,132.400 159.714,132.400 160.200 C 132.400 160.533,132.044 160.800,131.600 160.800 C 131.067 160.800,130.800 161.067,130.800 161.600 C 130.800 162.044,130.533 162.400,130.200 162.400 C 129.728 162.400,129.600 162.956,129.600 165.000 C 129.600 167.044,129.728 167.600,130.200 167.600 C 130.533 167.600,130.800 167.956,130.800 168.400 C 130.800 168.850,131.067 169.200,131.410 169.200 C 131.768 169.200,132.119 169.696,132.260 170.400 C 132.392 171.060,132.748 171.600,133.050 171.600 C 133.353 171.600,133.600 171.960,133.600 172.400 C 133.600 172.941,133.867 173.200,134.424 173.200 C 134.900 173.200,135.137 173.378,134.986 173.623 C 134.569 174.297,135.158 176.000,135.808 176.000 C 136.133 176.000,136.400 176.270,136.400 176.600 C 136.400 176.930,136.670 177.200,137.000 177.200 C 137.333 177.200,137.600 177.556,137.600 178.000 C 137.600 178.533,137.867 178.800,138.400 178.800 C 139.042 178.800,139.200 179.067,139.200 180.153 C 139.200 181.170,139.001 181.559,138.400 181.716 C 137.859 181.857,137.600 182.262,137.600 182.963 C 137.600 183.618,137.379 184.000,137.000 184.000 C 136.670 184.000,136.400 184.339,136.400 184.753 C 136.400 185.185,136.037 185.602,135.549 185.729 C 134.873 185.906,134.740 186.174,134.903 187.025 C 135.059 187.844,134.929 188.146,134.354 188.296 C 133.939 188.405,133.600 188.742,133.600 189.047 C 133.600 189.351,133.351 189.600,133.047 189.600 C 132.742 189.600,132.399 189.960,132.284 190.400 C 132.169 190.840,131.788 191.200,131.437 191.200 C 130.996 191.200,130.800 191.569,130.800 192.400 C 130.800 193.200,130.600 193.600,130.200 193.600 C 129.724 193.600,129.600 194.178,129.600 196.400 C 129.600 198.622,129.724 199.200,130.200 199.200 C 130.530 199.200,130.800 199.470,130.800 199.800 C 130.800 200.215,131.217 200.400,132.153 200.400 C 133.170 200.400,133.559 200.599,133.716 201.200 C 133.907 201.930,134.262 202.000,137.775 202.000 C 140.828 202.000,141.673 202.124,141.855 202.600 C 142.035 203.067,142.828 203.200,145.443 203.200 C 148.046 203.200,148.800 203.325,148.800 203.757 C 148.800 204.064,149.070 204.418,149.400 204.545 C 149.865 204.723,150.000 205.505,150.000 208.025 C 150.000 210.784,150.106 211.302,150.700 211.457 C 151.308 211.615,151.383 212.062,151.269 214.849 C 151.147 217.819,151.199 218.075,151.969 218.276 C 152.667 218.459,152.800 218.805,152.800 220.447 C 152.800 221.843,152.958 222.400,153.353 222.400 C 153.658 222.400,154.001 222.760,154.116 223.200 C 154.297 223.891,154.662 224.000,156.800 224.000 C 158.938 224.000,159.303 223.891,159.484 223.200 C 159.633 222.631,160.030 222.400,160.859 222.400 C 161.527 222.400,162.124 222.143,162.255 221.800 C 162.382 221.470,162.736 221.200,163.043 221.200 C 163.475 221.200,163.600 220.439,163.600 217.800 C 163.600 215.044,163.486 214.400,163.000 214.400 C 162.524 214.400,162.400 213.822,162.400 211.600 C 162.400 209.378,162.524 208.800,163.000 208.800 C 163.476 208.800,163.600 208.222,163.600 206.000 C 163.600 203.467,163.676 203.200,164.400 203.200 C 165.118 203.200,165.200 202.933,165.200 200.600 C 165.200 198.267,165.118 198.000,164.400 198.000 C 163.867 198.000,163.600 197.733,163.600 197.200 C 163.600 196.552,163.333 196.400,162.200 196.400 C 161.222 196.400,160.800 196.219,160.800 195.800 C 160.800 195.470,160.530 195.200,160.200 195.200 C 159.867 195.200,159.600 194.844,159.600 194.400 C 159.600 193.960,159.349 193.600,159.043 193.600 C 158.736 193.600,158.382 193.330,158.255 193.000 C 158.129 192.670,157.749 192.400,157.413 192.400 C 156.979 192.400,156.800 191.991,156.800 191.000 C 156.800 190.022,156.619 189.600,156.200 189.600 C 155.870 189.600,155.600 189.255,155.600 188.833 C 155.600 187.641,155.169 186.800,154.557 186.800 C 154.155 186.800,154.000 186.243,154.000 184.800 C 154.000 183.289,153.853 182.800,153.400 182.800 C 152.946 182.800,152.800 182.310,152.800 180.787 C 152.800 179.368,152.977 178.707,153.400 178.545 C 153.847 178.373,154.000 177.661,154.000 175.757 C 154.000 173.467,154.083 173.200,154.800 173.200 C 155.448 173.200,155.600 172.933,155.600 171.800 C 155.600 170.822,155.781 170.400,156.200 170.400 C 156.530 170.400,156.800 170.130,156.800 169.800 C 156.800 169.470,157.076 169.200,157.413 169.200 C 157.749 169.200,158.141 168.899,158.282 168.531 C 158.610 167.676,159.879 166.400,160.400 166.400 C 160.620 166.400,160.800 166.040,160.800 165.600 C 160.800 165.067,161.067 164.800,161.600 164.800 C 162.044 164.800,162.400 164.533,162.400 164.200 C 162.400 163.799,162.801 163.600,163.613 163.600 C 164.321 163.600,164.921 163.351,165.055 163.000 C 165.182 162.670,165.761 162.398,166.343 162.395 C 168.016 162.386,169.200 161.954,169.200 161.353 C 169.200 160.917,170.091 160.800,173.400 160.800 C 177.333 160.800,177.600 160.851,177.600 161.600 C 177.600 162.224,177.867 162.400,178.813 162.400 C 179.521 162.400,180.121 162.649,180.255 163.000 C 180.387 163.342,180.983 163.600,181.643 163.600 C 182.405 163.600,182.800 163.805,182.800 164.200 C 182.800 164.530,183.139 164.800,183.553 164.800 C 183.970 164.800,184.400 165.157,184.516 165.600 C 184.653 166.125,185.062 166.400,185.705 166.400 C 186.467 166.400,186.766 166.688,187.055 167.700 C 187.530 169.365,190.683 169.933,191.078 168.425 C 191.233 167.832,191.618 167.600,192.447 167.600 C 193.205 167.600,193.600 167.395,193.600 167.000 C 193.600 166.667,193.956 166.400,194.400 166.400 C 194.933 166.400,195.200 166.133,195.200 165.600 C 195.200 164.907,195.467 164.800,197.200 164.800 C 198.711 164.800,199.200 164.653,199.200 164.200 C 199.200 163.724,199.778 163.600,202.000 163.600 C 204.175 163.600,204.800 163.471,204.800 163.022 C 204.800 162.616,205.366 162.408,206.700 162.322 C 208.522 162.205,208.605 162.146,208.725 160.900 L 208.851 159.600 206.272 159.600 C 203.998 159.600,203.668 159.502,203.476 158.770 C 203.298 158.087,202.987 157.957,201.730 158.040 C 199.050 158.215,198.000 158.035,198.000 157.400 C 198.000 157.067,197.644 156.800,197.200 156.800 C 196.552 156.800,196.400 156.533,196.400 155.400 C 196.400 154.422,196.219 154.000,195.800 154.000 C 195.314 154.000,195.200 153.356,195.200 150.600 C 195.200 147.844,195.086 147.200,194.600 147.200 C 194.109 147.200,194.000 146.511,194.000 143.403 C 194.000 140.040,193.909 139.550,193.200 139.107 C 192.760 138.832,192.400 138.381,192.400 138.104 C 192.400 137.738,191.467 137.600,189.000 137.600 C 186.329 137.600,185.600 137.722,185.600 138.168 C 185.600 138.481,185.048 138.858,184.373 139.006 C 183.698 139.154,183.049 139.528,182.930 139.838 C 182.812 140.147,182.464 140.400,182.157 140.400 C 181.851 140.400,181.600 140.670,181.600 141.000 C 181.600 141.404,181.196 141.600,180.363 141.600 C 179.462 141.600,179.068 141.817,178.916 142.400 C 178.801 142.840,178.458 143.200,178.153 143.200 C 177.849 143.200,177.600 143.470,177.600 143.800 C 177.600 144.133,177.244 144.400,176.800 144.400 C 176.267 144.400,176.000 144.667,176.000 145.200 C 176.000 145.848,175.733 146.000,174.600 146.000 C 173.622 146.000,173.200 146.181,173.200 146.600 C 173.200 146.930,172.930 147.200,172.600 147.200 C 172.270 147.200,172.000 146.930,172.000 146.600 C 172.000 146.267,171.644 146.000,171.200 146.000 C 170.667 146.000,170.400 145.733,170.400 145.200 C 170.400 144.578,170.133 144.400,169.200 144.400 C 168.400 144.400,168.000 144.200,168.000 143.800 C 168.000 143.467,167.644 143.200,167.200 143.200 C 166.667 143.200,166.400 142.933,166.400 142.400 C 166.400 141.948,166.133 141.600,165.787 141.600 C 165.451 141.600,165.071 141.330,164.945 141.000 C 164.816 140.666,164.222 140.400,163.604 140.400 C 162.830 140.400,162.430 140.158,162.284 139.600 C 162.169 139.160,161.788 138.800,161.437 138.800 C 161.087 138.800,160.800 138.530,160.800 138.200 C 160.800 137.714,160.156 137.600,157.400 137.600 C 154.644 137.600,154.000 137.714,154.000 138.200 M167.100 165.076 C 166.715 165.176,166.400 165.515,166.400 165.829 C 166.400 166.215,165.946 166.400,165.000 166.400 C 164.022 166.400,163.600 166.581,163.600 167.000 C 163.600 167.330,163.330 167.600,163.000 167.600 C 162.667 167.600,162.400 167.956,162.400 168.400 C 162.400 168.933,162.133 169.200,161.600 169.200 C 161.156 169.200,160.800 169.467,160.800 169.800 C 160.800 170.130,160.530 170.400,160.200 170.400 C 159.867 170.400,159.600 170.756,159.600 171.200 C 159.600 171.644,159.333 172.000,159.000 172.000 C 158.547 172.000,158.400 172.489,158.400 174.000 C 158.400 175.733,158.293 176.000,157.600 176.000 C 156.846 176.000,156.800 176.267,156.800 180.637 C 156.800 184.938,156.858 185.290,157.600 185.484 C 158.201 185.641,158.400 186.030,158.400 187.047 C 158.400 187.983,158.585 188.400,159.000 188.400 C 159.400 188.400,159.600 188.800,159.600 189.600 C 159.600 190.355,159.805 190.800,160.153 190.800 C 160.458 190.800,160.801 191.160,160.916 191.600 C 161.031 192.040,161.412 192.400,161.763 192.400 C 162.113 192.400,162.400 192.670,162.400 193.000 C 162.400 193.419,162.822 193.600,163.800 193.600 C 164.933 193.600,165.200 193.752,165.200 194.400 C 165.200 195.093,165.467 195.200,167.200 195.200 C 168.933 195.200,169.200 195.093,169.200 194.400 C 169.200 193.956,169.467 193.600,169.800 193.600 C 170.130 193.600,170.400 193.330,170.400 193.000 C 170.400 192.596,170.804 192.400,171.637 192.400 C 172.538 192.400,172.932 192.183,173.084 191.600 C 173.200 191.157,173.630 190.800,174.047 190.800 C 174.461 190.800,174.800 190.530,174.800 190.200 C 174.800 189.870,175.070 189.600,175.400 189.600 C 175.730 189.600,176.000 189.341,176.000 189.025 C 176.000 188.669,176.495 188.403,177.300 188.325 C 178.568 188.203,178.603 188.148,178.721 186.100 C 178.808 184.589,179.004 184.000,179.421 184.000 C 179.849 184.000,180.000 183.479,180.000 182.000 C 180.000 180.267,180.107 180.000,180.800 180.000 C 181.448 180.000,181.600 179.733,181.600 178.600 C 181.600 177.622,181.781 177.200,182.200 177.200 C 182.530 177.200,182.800 176.951,182.800 176.647 C 182.800 176.342,183.160 175.999,183.600 175.884 C 184.040 175.769,184.400 175.388,184.400 175.037 C 184.400 174.687,184.670 174.400,185.000 174.400 C 185.472 174.400,185.600 173.844,185.600 171.800 C 185.600 169.783,185.469 169.200,185.014 169.200 C 184.692 169.200,184.235 168.840,184.000 168.400 C 183.750 167.932,183.162 167.600,182.586 167.600 C 181.976 167.600,181.600 167.371,181.600 167.000 C 181.600 166.585,181.183 166.400,180.247 166.400 C 179.230 166.400,178.841 166.201,178.684 165.600 C 178.481 164.823,169.606 164.421,167.100 165.076 M200.800 168.400 C 200.800 169.094,200.533 169.200,198.787 169.200 C 197.368 169.200,196.707 169.377,196.545 169.800 C 196.413 170.142,195.817 170.400,195.157 170.400 C 194.267 170.400,194.000 170.584,194.000 171.200 C 194.000 171.733,193.733 172.000,193.200 172.000 C 192.756 172.000,192.400 172.267,192.400 172.600 C 192.400 172.997,192.003 173.200,191.227 173.200 C 190.405 173.200,189.978 173.440,189.800 174.000 C 189.660 174.440,189.288 174.800,188.973 174.800 C 188.608 174.800,188.400 175.219,188.400 175.953 C 188.400 176.770,188.167 177.168,187.600 177.316 C 187.160 177.431,186.800 177.812,186.800 178.163 C 186.800 178.513,186.530 178.800,186.200 178.800 C 185.781 178.800,185.600 179.222,185.600 180.200 C 185.600 181.178,185.419 181.600,185.000 181.600 C 184.547 181.600,184.400 182.089,184.400 183.600 C 184.400 185.333,184.293 185.600,183.600 185.600 C 182.882 185.600,182.800 185.867,182.800 188.210 C 182.800 190.777,182.781 190.824,181.626 191.055 C 180.980 191.184,180.355 191.540,180.238 191.845 C 180.121 192.150,179.479 192.400,178.813 192.400 C 177.853 192.400,177.600 192.573,177.600 193.227 C 177.600 193.851,177.418 193.996,176.856 193.818 C 175.880 193.508,174.800 193.941,174.800 194.643 C 174.800 194.949,174.440 195.200,174.000 195.200 C 173.556 195.200,173.200 195.467,173.200 195.800 C 173.200 196.130,172.930 196.400,172.600 196.400 C 172.267 196.400,172.000 196.756,172.000 197.200 C 172.000 197.640,171.733 198.000,171.408 198.000 C 170.780 198.000,170.163 199.694,170.558 200.332 C 170.686 200.540,170.478 200.685,170.096 200.655 C 169.589 200.615,169.366 200.953,169.275 201.900 C 169.197 202.705,168.931 203.200,168.575 203.200 C 168.095 203.200,168.000 204.460,168.000 210.800 C 168.000 217.289,168.088 218.400,168.600 218.400 C 169.019 218.400,169.200 218.822,169.200 219.800 C 169.200 220.889,169.362 221.200,169.931 221.200 C 170.510 221.200,170.626 221.441,170.491 222.360 C 170.357 223.272,170.501 223.578,171.160 223.787 C 171.622 223.934,172.000 224.312,172.000 224.627 C 172.000 224.942,172.270 225.200,172.600 225.200 C 172.930 225.200,173.200 225.470,173.200 225.800 C 173.200 226.133,173.556 226.400,174.000 226.400 C 174.533 226.400,174.800 226.667,174.800 227.200 C 174.800 227.640,175.051 228.000,175.357 228.000 C 175.664 228.000,176.018 228.270,176.145 228.600 C 176.279 228.951,176.879 229.200,177.587 229.200 C 178.357 229.200,178.800 229.403,178.800 229.757 C 178.800 230.527,179.698 230.800,182.233 230.800 C 183.893 230.800,184.400 230.940,184.400 231.400 C 184.400 231.929,188.467 232.000,218.600 232.000 C 248.733 232.000,252.800 231.929,252.800 231.400 C 252.800 230.927,253.360 230.800,255.437 230.800 C 257.738 230.800,258.102 230.698,258.284 230.000 C 258.432 229.433,258.830 229.200,259.647 229.200 C 260.405 229.200,260.800 228.995,260.800 228.600 C 260.800 228.196,261.204 228.000,262.037 228.000 C 262.938 228.000,263.332 227.783,263.484 227.200 C 263.599 226.760,263.843 226.400,264.026 226.400 C 264.818 226.400,266.400 224.436,266.400 223.454 C 266.400 222.667,266.602 222.400,267.200 222.400 C 267.848 222.400,268.000 222.133,268.000 221.000 C 268.000 220.022,268.181 219.600,268.600 219.600 C 269.053 219.600,269.200 219.111,269.200 217.600 C 269.200 216.089,269.347 215.600,269.800 215.600 C 270.299 215.600,270.400 214.821,270.400 210.987 C 270.400 207.256,270.285 206.331,269.800 206.145 C 269.380 205.983,269.200 205.328,269.200 203.957 C 269.200 202.484,269.052 202.000,268.600 202.000 C 268.270 202.000,268.000 201.655,268.000 201.233 C 268.000 200.041,267.569 199.200,266.957 199.200 C 266.651 199.200,266.400 198.930,266.400 198.600 C 266.400 198.270,266.130 198.000,265.800 198.000 C 265.470 198.000,265.200 197.713,265.200 197.363 C 265.200 197.012,264.840 196.631,264.400 196.516 C 263.960 196.401,263.600 196.058,263.600 195.753 C 263.600 195.449,263.351 195.200,263.047 195.200 C 262.742 195.200,262.393 194.818,262.271 194.350 C 262.090 193.659,261.853 193.550,260.991 193.766 C 260.140 193.980,259.892 193.873,259.720 193.216 C 259.558 192.598,259.179 192.400,258.153 192.400 C 257.236 192.400,256.800 192.213,256.800 191.818 C 256.800 191.470,256.238 191.131,255.400 190.974 C 254.051 190.720,254.000 190.647,254.000 188.943 C 254.000 187.740,253.808 187.101,253.400 186.945 C 253.058 186.813,252.800 186.217,252.800 185.557 C 252.800 184.765,252.599 184.400,252.163 184.400 C 251.812 184.400,251.431 184.040,251.316 183.600 C 251.201 183.160,250.858 182.800,250.553 182.800 C 250.249 182.800,250.000 182.530,250.000 182.200 C 250.000 181.870,249.751 181.600,249.447 181.600 C 249.142 181.600,248.799 181.240,248.684 180.800 C 248.569 180.360,248.188 180.000,247.837 180.000 C 247.487 180.000,247.200 179.730,247.200 179.400 C 247.200 179.070,246.973 178.800,246.696 178.800 C 246.419 178.800,245.968 178.440,245.693 178.000 C 245.418 177.560,244.764 177.200,244.239 177.200 C 243.715 177.200,243.182 176.930,243.055 176.600 C 242.860 176.092,241.477 176.000,234.013 176.000 C 225.467 176.000,225.200 175.976,225.200 175.200 C 225.200 174.756,224.933 174.400,224.600 174.400 C 224.270 174.400,224.000 174.130,224.000 173.800 C 224.000 173.470,223.730 173.200,223.400 173.200 C 223.070 173.200,222.800 172.930,222.800 172.600 C 222.800 172.270,222.461 172.000,222.047 172.000 C 221.630 172.000,221.200 171.643,221.084 171.200 C 220.932 170.617,220.538 170.400,219.637 170.400 C 218.804 170.400,218.400 170.204,218.400 169.800 C 218.400 169.349,217.916 169.200,216.447 169.200 C 214.830 169.200,214.457 169.062,214.284 168.400 C 214.085 167.641,213.738 167.600,207.437 167.600 C 201.067 167.600,200.800 167.632,200.800 168.400 M182.916 236.800 C 182.770 237.358,182.370 237.600,181.596 237.600 C 180.390 237.600,179.830 238.435,180.218 239.656 C 180.396 240.218,180.251 240.400,179.627 240.400 C 179.159 240.400,178.800 240.660,178.800 241.000 C 178.800 241.330,178.530 241.600,178.200 241.600 C 177.796 241.600,177.600 242.004,177.600 242.837 C 177.600 243.738,177.383 244.132,176.800 244.284 C 176.360 244.399,176.000 244.748,176.000 245.059 C 176.000 245.370,175.730 245.729,175.400 245.855 C 175.058 245.987,174.800 246.583,174.800 247.243 C 174.800 248.133,174.616 248.400,174.000 248.400 C 173.467 248.400,173.200 248.667,173.200 249.200 C 173.200 249.644,172.933 250.000,172.600 250.000 C 172.100 250.000,172.000 250.800,172.000 254.800 C 172.000 258.800,172.100 259.600,172.600 259.600 C 172.930 259.600,173.200 259.870,173.200 260.200 C 173.200 260.533,173.556 260.800,174.000 260.800 C 174.444 260.800,174.800 261.067,174.800 261.400 C 174.800 261.893,175.511 262.000,178.800 262.000 C 182.089 262.000,182.800 261.893,182.800 261.400 C 182.800 261.067,183.156 260.800,183.600 260.800 C 184.040 260.800,184.400 260.549,184.400 260.243 C 184.400 259.936,184.670 259.582,185.000 259.455 C 185.351 259.321,185.600 258.721,185.600 258.013 C 185.600 257.201,185.799 256.800,186.200 256.800 C 186.533 256.800,186.800 256.444,186.800 256.000 C 186.800 255.467,187.067 255.200,187.600 255.200 C 188.248 255.200,188.400 254.933,188.400 253.800 C 188.400 252.822,188.581 252.400,189.000 252.400 C 189.330 252.400,189.600 252.130,189.600 251.800 C 189.600 251.467,189.956 251.200,190.400 251.200 C 191.048 251.200,191.200 250.933,191.200 249.800 C 191.200 248.822,191.381 248.400,191.800 248.400 C 192.219 248.400,192.400 247.978,192.400 247.000 C 192.400 246.075,192.588 245.600,192.953 245.600 C 194.158 245.600,194.385 242.026,193.200 241.716 C 192.599 241.559,192.400 241.170,192.400 240.153 C 192.400 239.217,192.215 238.800,191.800 238.800 C 191.470 238.800,191.200 238.530,191.200 238.200 C 191.200 237.870,190.861 237.600,190.447 237.600 C 190.030 237.600,189.600 237.243,189.484 236.800 C 189.298 236.088,188.938 236.000,186.200 236.000 C 183.462 236.000,183.102 236.088,182.916 236.800 M206.116 236.800 C 205.968 237.367,205.570 237.600,204.753 237.600 C 203.702 237.600,203.600 237.724,203.600 239.000 C 203.600 240.133,203.448 240.400,202.800 240.400 C 202.356 240.400,202.000 240.667,202.000 241.000 C 202.000 241.330,201.730 241.600,201.400 241.600 C 200.981 241.600,200.800 242.022,200.800 243.000 C 200.800 244.157,200.654 244.400,199.957 244.400 C 199.399 244.400,199.187 244.589,199.330 244.961 C 199.457 245.294,199.232 245.603,198.772 245.723 C 198.219 245.868,198.000 246.276,198.000 247.163 C 198.000 248.028,197.808 248.400,197.363 248.400 C 197.012 248.400,196.631 248.760,196.516 249.200 C 196.401 249.640,196.058 250.000,195.753 250.000 C 195.356 250.000,195.200 250.564,195.200 252.000 C 195.200 253.511,195.053 254.000,194.600 254.000 C 194.199 254.000,194.000 254.401,194.000 255.213 C 194.000 255.921,194.249 256.521,194.600 256.655 C 195.010 256.813,195.200 257.454,195.200 258.680 C 195.200 260.138,195.350 260.514,196.000 260.684 C 196.440 260.799,196.800 261.142,196.800 261.447 C 196.800 261.886,197.750 262.000,201.400 262.000 C 205.222 262.000,206.000 261.899,206.000 261.400 C 206.000 261.067,206.356 260.800,206.800 260.800 C 207.333 260.800,207.600 260.533,207.600 260.000 C 207.600 259.556,207.867 259.200,208.200 259.200 C 208.595 259.200,208.800 258.805,208.800 258.047 C 208.800 257.230,209.033 256.832,209.600 256.684 C 210.040 256.569,210.400 256.188,210.400 255.837 C 210.400 255.487,210.670 255.200,211.000 255.200 C 211.419 255.200,211.600 254.778,211.600 253.800 C 211.600 252.667,211.752 252.400,212.400 252.400 C 212.840 252.400,213.200 252.149,213.200 251.843 C 213.200 251.536,213.470 251.182,213.800 251.055 C 214.151 250.921,214.400 250.321,214.400 249.613 C 214.400 248.801,214.599 248.400,215.000 248.400 C 215.500 248.400,215.600 247.600,215.600 243.600 C 215.600 239.600,215.500 238.800,215.000 238.800 C 214.670 238.800,214.400 238.530,214.400 238.200 C 214.400 237.870,214.173 237.600,213.896 237.600 C 213.619 237.600,213.168 237.240,212.893 236.800 C 212.465 236.114,211.960 236.000,209.359 236.000 C 206.662 236.000,206.302 236.089,206.116 236.800 M229.600 236.756 C 229.600 237.454,229.358 237.600,228.200 237.600 C 227.222 237.600,226.800 237.781,226.800 238.200 C 226.800 238.530,226.533 238.800,226.208 238.800 C 225.558 238.800,224.969 240.503,225.386 241.177 C 225.537 241.422,225.300 241.600,224.824 241.600 C 224.267 241.600,224.000 241.859,224.000 242.400 C 224.000 242.844,223.733 243.200,223.400 243.200 C 223.000 243.200,222.800 243.600,222.800 244.400 C 222.800 245.333,222.622 245.600,222.000 245.600 C 221.467 245.600,221.200 245.867,221.200 246.400 C 221.200 246.844,220.933 247.200,220.600 247.200 C 220.181 247.200,220.000 247.622,220.000 248.600 C 220.000 249.733,219.848 250.000,219.200 250.000 C 218.552 250.000,218.400 250.267,218.400 251.400 C 218.400 252.378,218.219 252.800,217.800 252.800 C 217.328 252.800,217.200 253.356,217.200 255.400 C 217.200 257.444,217.328 258.000,217.800 258.000 C 218.219 258.000,218.400 258.422,218.400 259.400 C 218.400 260.533,218.552 260.800,219.200 260.800 C 219.644 260.800,220.000 261.067,220.000 261.400 C 220.000 261.897,220.753 262.000,224.379 262.000 C 229.278 262.000,230.800 261.302,230.800 259.054 C 230.800 258.384,231.018 258.000,231.400 258.000 C 231.730 258.000,232.000 257.751,232.000 257.447 C 232.000 257.142,232.360 256.799,232.800 256.684 C 233.383 256.532,233.600 256.138,233.600 255.237 C 233.600 254.404,233.796 254.000,234.200 254.000 C 234.533 254.000,234.800 253.644,234.800 253.200 C 234.800 252.667,235.067 252.400,235.600 252.400 C 236.222 252.400,236.400 252.133,236.400 251.200 C 236.400 250.400,236.600 250.000,237.000 250.000 C 237.333 250.000,237.600 249.644,237.600 249.200 C 237.600 248.760,237.849 248.400,238.153 248.400 C 238.926 248.400,239.188 247.122,239.195 243.333 C 239.201 239.724,238.989 238.800,238.157 238.800 C 237.851 238.800,237.600 238.530,237.600 238.200 C 237.600 237.870,237.395 237.600,237.144 237.600 C 236.893 237.600,236.461 237.289,236.183 236.910 C 235.335 235.750,229.600 235.616,229.600 236.756 M252.300 236.276 C 251.915 236.376,251.600 236.715,251.600 237.029 C 251.600 237.343,251.240 237.600,250.800 237.600 C 250.356 237.600,250.000 237.867,250.000 238.200 C 250.000 238.530,249.730 238.800,249.400 238.800 C 249.070 238.800,248.800 239.139,248.800 239.553 C 248.800 239.970,248.443 240.400,248.000 240.516 C 247.417 240.668,247.200 241.062,247.200 241.963 C 247.200 242.796,247.004 243.200,246.600 243.200 C 246.270 243.200,246.000 243.470,246.000 243.800 C 246.000 244.130,245.742 244.400,245.427 244.400 C 244.739 244.400,244.283 245.631,244.634 246.544 C 244.818 247.024,244.660 247.200,244.043 247.200 C 243.579 247.200,243.200 247.451,243.200 247.757 C 243.200 248.064,242.947 248.412,242.638 248.530 C 242.328 248.649,241.957 249.283,241.813 249.940 C 241.669 250.596,241.292 251.233,240.976 251.354 C 240.113 251.685,240.136 259.200,241.000 259.200 C 241.330 259.200,241.600 259.487,241.600 259.837 C 241.600 260.188,241.960 260.569,242.400 260.684 C 242.840 260.799,243.200 261.142,243.200 261.447 C 243.200 262.295,252.329 262.250,252.655 261.400 C 252.782 261.070,253.136 260.800,253.443 260.800 C 253.813 260.800,254.000 260.330,254.000 259.400 C 254.000 258.267,254.152 258.000,254.800 258.000 C 255.240 258.000,255.600 257.749,255.600 257.443 C 255.600 257.136,255.870 256.782,256.200 256.655 C 256.551 256.521,256.800 255.921,256.800 255.213 C 256.800 254.370,256.994 254.000,257.437 254.000 C 257.788 254.000,258.169 253.640,258.284 253.200 C 258.399 252.760,258.742 252.400,259.047 252.400 C 259.395 252.400,259.600 251.955,259.600 251.200 C 259.600 250.400,259.800 250.000,260.200 250.000 C 260.530 250.000,260.800 249.661,260.800 249.247 C 260.800 248.830,261.157 248.400,261.600 248.284 C 262.339 248.091,262.400 247.738,262.400 243.664 C 262.400 239.605,262.336 239.234,261.600 239.000 C 261.160 238.860,260.800 238.488,260.800 238.173 C 260.800 237.808,260.381 237.600,259.647 237.600 C 258.830 237.600,258.432 237.367,258.284 236.800 C 258.077 236.009,254.515 235.697,252.300 236.276 " stroke="none" fill="#1c248c" fill-rule="evenodd"></path><path id="path1" d="" stroke="none" fill="#20248c" fill-rule="evenodd"></path><path id="path2" d="" stroke="none" fill="#20248c" fill-rule="evenodd"></path><path id="path3" d="" stroke="none" fill="#20248c" fill-rule="evenodd"></path><path id="path4" d="" stroke="none" fill="#20248c" fill-rule="evenodd"></path></g></svg>