<svg id="Layer_1" data-name="Layer 1" xmlns="http://www.w3.org/2000/svg" viewBox="0 0 151.49 205.27"><defs><style>.cls-1,.cls-2{fill:#192a18;}.cls-1,.cls-11,.cls-6,.cls-9{fill-rule:evenodd;}.cls-3{fill:#1482bf;}.cls-4{fill:#166286;}.cls-5,.cls-6{fill:#fff;}.cls-7,.cls-9{fill:#733724;}.cls-8{fill:#f9b038;}.cls-10,.cls-11{fill:#25ab4a;}</style></defs><title>logo</title><path class="cls-1" d="M79.25,193.88l3.59,2.65-16,3.74a3.07,3.07,0,0,1-2.77-.33C63,199,61.83,198.23,62,197.1,62,197.1,74.89,196.15,79.25,193.88Z" transform="translate(-8.8 -4.9)"/><path class="cls-1" d="M91.91,193.88l-3.6,2.65,16,3.74a3.07,3.07,0,0,0,2.77-.33c1.14-.95,2.27-1.71,2.08-2.84C109.14,197.1,96.27,196.15,91.91,193.88Z" transform="translate(-8.8 -4.9)"/><path class="cls-2" d="M135.7,37.49h0a72.66,72.66,0,0,0-22-20.57,55.74,55.74,0,0,0-57.71,0,72.66,72.66,0,0,0-22,20.57c-12.26,17.07-19,39.52-19,63.22s6.76,46.16,19,63.22A72.66,72.66,0,0,0,56,184.5a55.74,55.74,0,0,0,57.71,0,72.66,72.66,0,0,0,22-20.57c12.27-17.06,19-39.51,19-63.22S148,54.56,135.7,37.49Zm-1.9,125.07a70.58,70.58,0,0,1-21.33,19.92,53.43,53.43,0,0,1-55.33,0,70.44,70.44,0,0,1-21.32-19.92c-12-16.67-18.58-38.63-18.58-61.85s6.6-45.18,18.58-61.85A70.27,70.27,0,0,1,57.14,19a53.4,53.4,0,0,1,55.33,0A70.58,70.58,0,0,1,133.8,38.86h0c12,16.67,18.57,38.64,18.57,61.85S145.78,145.89,133.8,162.56Z" transform="translate(-8.8 -4.9)"/><path class="cls-2" d="M130,42.07a65.84,65.84,0,0,0-19.93-18.64,48.65,48.65,0,0,0-50.55,0A65.84,65.84,0,0,0,39.6,42.07C28.15,58,21.85,79.07,21.85,101.4s6.3,43.4,17.75,59.33a66,66,0,0,0,19.93,18.64,48.71,48.71,0,0,0,50.55,0A66,66,0,0,0,130,160.73c11.45-15.93,17.75-37,17.75-59.33S141.46,58,130,42.07ZM84.81,183.35c-33,0-59.87-36.76-59.87-81.95s26.86-82,59.87-82,59.86,36.77,59.86,82S117.82,183.35,84.81,183.35Z" transform="translate(-8.8 -4.9)"/><path class="cls-1" d="M158.78,113s-3.41,0-4.36,1a14.76,14.76,0,0,0,3.41-5.5c.76-2.84,2.46-7,2.46-7s-3.79.38-4.54,1.32a9.12,9.12,0,0,0,1.51-5.11,20.71,20.71,0,0,1,1-6.25l-2.27.76s1.7-1.14,1.32-5.3S158,82,158,82s-2.46-.18-3.41.76c0,0,1.89-3,1.33-4.92s-.76-4.55-.38-5.49a2.73,2.73,0,0,0-3,1.13s1.13-1.89.38-5.68a13.82,13.82,0,0,1,0-6.25s-2.14.62-2.85,1.84a4.37,4.37,0,0,1-.18.44,1.7,1.7,0,0,1,.18-.44,7.2,7.2,0,0,0,0-5.06,26.73,26.73,0,0,1-1.52-5.49A9.6,9.6,0,0,0,146,55.61c-.08.26-.14.41-.14.41a2.49,2.49,0,0,1,.14-.41c.35-1,1.11-3.94.05-6.22a10.66,10.66,0,0,1-1-5.49s-2.21,1-2.6,2.91c0,.2,0,.31,0,.31s0-.21,0-.31a9.39,9.39,0,0,0-.81-5.18c-1.32-2.65-2.65-6.06-2.65-6.06a12.94,12.94,0,0,0-2.46,4.36s.57-5.49-.57-7-4-6.44-4-6.44-1.71,1.52-1.71,2.84a9.78,9.78,0,0,0-2.08-5.87c-2.08-2.27-3.6-4.35-3.6-4.35a23.08,23.08,0,0,0-.57,4,10.3,10.3,0,0,0-2.65-4.16c-1.89-1.71-4.92-4.93-4.92-4.93l-.38,2.66a13.24,13.24,0,0,0-3.79-3.6c-2.08-1.14-4-2.46-4-2.46l-.19,2.08s-1.71-3.41-4-4.17a60.86,60.86,0,0,1-6.06-2.65s-.38,1.9,0,2.46c0,0-4.35-1.51-6.06-2.08S88,4.9,88,4.9l.94,2.65a5.94,5.94,0,0,0-8.71,0l1-2.65S78.68,5.65,77,6.22,70.91,8.3,70.91,8.3c.38-.56,0-2.46,0-2.46a59.75,59.75,0,0,1-6.06,2.65c-2.27.76-4,4.17-4,4.17l-.19-2.08s-1.89,1.32-4,2.46a13.29,13.29,0,0,0-3.78,3.6L52.55,14s-3,3.22-4.93,4.93A10.43,10.43,0,0,0,45,23.07a23.08,23.08,0,0,0-.57-4,55.46,55.46,0,0,1-3.59,4.35,9.75,9.75,0,0,0-2.09,5.87c0-1.32-1.7-2.84-1.7-2.84s-2.84,4.93-4,6.44-.57,7-.57,7C32.1,38,30,35.57,30,35.57S28.69,39,27.36,41.63a9.35,9.35,0,0,0-.8,5.18c0,.1,0,.21,0,.31s0-.11,0-.31C26.17,44.93,24,43.9,24,43.9A10.71,10.71,0,0,1,23,49.39c-1.07,2.28-.3,5.17,0,6.22a4.14,4.14,0,0,1,.15.41s-.06-.15-.15-.41a9.46,9.46,0,0,0-2.51-2.81A26.31,26.31,0,0,1,19,58.29a7.2,7.2,0,0,0,0,5.06,1.7,1.7,0,0,1,.18.44,4.37,4.37,0,0,1-.18-.44c-.71-1.22-2.85-1.84-2.85-1.84a13.82,13.82,0,0,1,0,6.25c-.76,3.79.38,5.68.38,5.68a2.73,2.73,0,0,0-3-1.13c.38.94.19,3.6-.38,5.49s1.33,4.92,1.33,4.92c-1-.94-3.41-.76-3.41-.76s1.13.76.75,4.93,1.33,5.3,1.33,5.3l-2.27-.76a20.85,20.85,0,0,1,.94,6.25,9.09,9.09,0,0,0,1.52,5.11c-.76-.94-4.55-1.32-4.55-1.32a73.44,73.44,0,0,1,2.47,7,14.66,14.66,0,0,0,3.4,5.5c-.94-1-4.35-1-4.35-1a10.07,10.07,0,0,1,1.7,4.54,11.09,11.09,0,0,0,1.52,4.55c-1.14-.76-2.84.19-2.84.19A28.09,28.09,0,0,1,13.16,127a18.57,18.57,0,0,0,3.6,5.11,6.8,6.8,0,0,0-2.09.19s.57,1.33,1.33,3.6a14.58,14.58,0,0,0,2.65,4.36,3.29,3.29,0,0,0-1.89,1.51A8,8,0,0,1,20,145.4a8.56,8.56,0,0,0,3.78,3.79c-.94-.38-2.84.38-2.84.38a38.86,38.86,0,0,1,2.65,3.78A12.94,12.94,0,0,0,27,156.76a5.71,5.71,0,0,0-2.84.57,15.57,15.57,0,0,1,3.6,4,8.84,8.84,0,0,0,3.6,3.22,13,13,0,0,0-2.46.75c.94.19,2.27,1.9,3.22,4s4.35,3.41,4.35,3.41c-.57-.19-1.7,1.32-1.7,1.32a46.32,46.32,0,0,1,5.3,3.79c4.77,3.69,6.49,2,9.28,2.65,3.22.76,4-.38,4-.38a5.73,5.73,0,0,1-1.13-5.87,12,12,0,0,0,0-2.65l1-.59c-16.93-14.49-28.22-40.25-28.22-69.54,0-45.19,26.86-82,59.87-82s59.86,36.77,59.86,82c0,29.42-11.38,55.26-28.43,69.72l.69.41a8.56,8.56,0,0,1,1.13,4.74c-.11,1.6-2.84,4.54-2.84,4.54s1.14,1.33,4,.19c0,0,7,.76,11.17-3.6s5.49-4.54,5.49-4.54-.94-1-1.51-.76a5.92,5.92,0,0,0,2.65-2.84c.95-2.08,2.27-3.79,3.22-4a13,13,0,0,0-2.46-.75,8.84,8.84,0,0,0,3.6-3.22,15.42,15.42,0,0,1,3.59-4,5.68,5.68,0,0,0-2.84-.57,12.78,12.78,0,0,0,3.41-3.41,40.93,40.93,0,0,1,2.65-3.78s-1.89-.76-2.84-.38a8.6,8.6,0,0,0,3.79-3.79,8,8,0,0,1,3.22-3.6,3.29,3.29,0,0,0-1.89-1.51,14.58,14.58,0,0,0,2.65-4.36c.75-2.27,1.32-3.6,1.32-3.6a6.73,6.73,0,0,0-2.08-.19,18.57,18.57,0,0,0,3.6-5.11,27.28,27.28,0,0,1,2.46-4.73s-1.71-1-2.84-.19a11.15,11.15,0,0,0,1.51-4.55A10,10,0,0,1,158.78,113Z" transform="translate(-8.8 -4.9)"/><ellipse class="cls-3" cx="76" cy="96.5" rx="56.42" ry="78.51"/><path class="cls-4" d="M84.8,156l-15.5-29.3-32.9,2L56.13,101l-19-28.54,32.23,2.63L84.8,47.66l15.43,27.46,32.23-2.63-19,28.54,19.72,27.64-32.89-2ZM70.7,124.13l14.1,26.66,14.11-26.66,29.34,1.79-17.72-24.84,17.12-25.74L98.9,77.69,84.8,52.61,70.71,77.69,42,75.34l17.12,25.74L41.35,125.92Z" transform="translate(-8.8 -4.9)"/><polygon class="cls-5" points="76 145.9 90.1 119.24 119.45 121.02 101.73 96.19 118.85 70.45 90.09 72.79 76 47.71 61.9 72.79 33.14 70.45 50.27 96.19 32.55 121.02 61.89 119.24 76 145.9"/><path class="cls-6" d="M67,96.09Z" transform="translate(-8.8 -4.9)"/><path class="cls-7" d="M107.8,101l-.26,0c-.91-.25-8.17-1.53-8.17-1.53l.47-.24a2,2,0,0,1,1.18-.36,4,4,0,0,0,1.18-.12,2.69,2.69,0,0,0,1.3-.71,2.9,2.9,0,0,1,1.06-1,4.06,4.06,0,0,1,2.6-.48,4,4,0,0,0-2.24-.72,8.23,8.23,0,0,0-2.13.6,2.77,2.77,0,0,1-1.65.36A6,6,0,0,0,99,96.64s6.85-4.3,6.85-4.42l-8.38,1.91a5.12,5.12,0,0,1,2.12-1.67,3,3,0,0,0,1.66-1.92,2.8,2.8,0,0,1,.82-1.07,6.79,6.79,0,0,1,1.66-1.2,3.87,3.87,0,0,0-2.25.36,8.43,8.43,0,0,0-2.36,1.91,14.76,14.76,0,0,1-1.54.6c-.59.12-1.18.36-1.65.48l5-6.82-7,4.55A2.47,2.47,0,0,1,95,87.67a3.58,3.58,0,0,0,1-1.91,7.82,7.82,0,0,1,.12-1.55,5.56,5.56,0,0,1,1.3-2.28,4,4,0,0,0-2,1.32,6.18,6.18,0,0,0-1.3,2.51,3.6,3.6,0,0,1-1.18,1.08,15.19,15.19,0,0,0-1.42,1.31c.07-.18,2-8.25,2-8.25l-5.08,7.29a2.07,2.07,0,0,1,.12-.59c.12-.24.12-.72.23-1.08.24-.72.36-1.2.48-1.55v-1.2A6.06,6.06,0,0,1,88.62,81a5,5,0,0,1,.59-2.4,3.56,3.56,0,0,0-1.78,2.64,8.77,8.77,0,0,1-.35,2.63,11.22,11.22,0,0,1-.47,1.43c-.24.6-.48,1.08-.59,1.44l-1.3-8.61-1.66,8.61a3.3,3.3,0,0,1-.59-1.92A4.83,4.83,0,0,0,82.24,83a5.81,5.81,0,0,0-1.3-1.56,4.61,4.61,0,0,1-.71-2.87,4,4,0,0,0-.59,1.8,8.37,8.37,0,0,0,.82,3.35,2.61,2.61,0,0,1,0,1.43v2L76,79.9l1.89,8.37c-.59,0-1-.6-1.3-1.31a10.22,10.22,0,0,0-1.07-1.68,7,7,0,0,0-1.89-1A4.82,4.82,0,0,1,72,81.93a3.47,3.47,0,0,0,.24,2.28A7.12,7.12,0,0,0,74,86.36a8.51,8.51,0,0,1,.82,1.79A12.1,12.1,0,0,1,75.5,90L68.42,84.8s5,7.06,5.08,7.06c-.83.12-1.3-.48-2-1a3.73,3.73,0,0,0-3-1.07A3.86,3.86,0,0,1,66.29,89c-.47-.36-.71-.84-.59-.6A3.57,3.57,0,0,0,67.83,91c.82.36,1.65.48,2,1.2.24.12.59.48,1.07.83a12.87,12.87,0,0,1,.82,1.08l-8.15-1.91,7.33,4.42c-.59.36-1.42,0-2.25-.24a4,4,0,0,0-2.36,0,4.81,4.81,0,0,1-3,.48,5,5,0,0,1-1.07-.48,3.16,3.16,0,0,0,2,1.56,12,12,0,0,0,2.13.12,5.8,5.8,0,0,1,1.89.36c.59.23,1.3.59,2,.83L61.8,101l8.51,1.55c-.36.24-.48.48-1,.48a5.23,5.23,0,0,0-1.3.12,1.87,1.87,0,0,0-1.18.6,3.28,3.28,0,0,1-1.18.83,4.3,4.3,0,0,1-2.6.36,4,4,0,0,0,2.24.84,7.66,7.66,0,0,0,2.13-.48,2,2,0,0,1,1.65-.24,15.58,15.58,0,0,1,1.89.24h.12l-.07,0-7.32,4.42,8.15-1.91c-.12.24-.47.6-.82,1.08s-.83.71-1.07.83c-.35.72-1.18.84-2,1.2a3.58,3.58,0,0,0-2.12,2.63c-.12.24.12-.24.59-.6a3.86,3.86,0,0,1,2.24-.83,3.74,3.74,0,0,0,3-1.08c.7-.48,1.18-1.08,2-1-.11,0-5.08,7.06-5.08,7.06L75.67,112a13.87,13.87,0,0,1-.71,1.79,8.51,8.51,0,0,1-.82,1.79,7.22,7.22,0,0,0-1.78,2.16,3.5,3.5,0,0,0-.23,2.27,4.82,4.82,0,0,1,1.65-2.39,7,7,0,0,0,1.89-1A10.53,10.53,0,0,0,76.74,115c.35-.72.7-1.32,1.29-1.32L76.14,122l4.49-7.29v2a2.61,2.61,0,0,1,0,1.43,8.23,8.23,0,0,0-.82,3.35,4,4,0,0,0,.59,1.8,4.61,4.61,0,0,1,.71-2.87,5.81,5.81,0,0,0,1.3-1.56,4.8,4.8,0,0,0,.23-1.79,3.3,3.3,0,0,1,.59-1.92l1.66,8.61,1.3-8.61c.11.36.35.84.59,1.44a11.76,11.76,0,0,1,.47,1.43,9.13,9.13,0,0,1,.35,2.64,3.58,3.58,0,0,0,1.77,2.63,5.12,5.12,0,0,1-.59-2.4,6.71,6.71,0,0,1,.59-1.79V118c-.11-.36-.23-.84-.47-1.56-.12-.36-.12-.84-.23-1.08a2,2,0,0,1-.12-.59L93.63,122s-1.94-8.07-2-8.25A16.73,16.73,0,0,0,93,115.08a3.48,3.48,0,0,1,1.18,1.07,6.18,6.18,0,0,0,1.3,2.51,4,4,0,0,0,2,1.32,5.59,5.59,0,0,1-1.3-2.27,8,8,0,0,1-.12-1.56,3.58,3.58,0,0,0-1-1.91,2.47,2.47,0,0,1-1.06-1.68l7,4.55-5-6.82c.47.12,1.06.36,1.65.48a14.76,14.76,0,0,1,1.54.6,8.13,8.13,0,0,0,2.36,1.91,3.85,3.85,0,0,0,2.24.36,6.71,6.71,0,0,1-1.65-1.2,2.88,2.88,0,0,1-.83-1.07,3,3,0,0,0-1.65-1.92,5.12,5.12,0,0,1-2.13-1.67l8.39,1.91c0-.12-6.85-4.42-6.85-4.42a6,6,0,0,0,2.13-.12,2.77,2.77,0,0,1,1.65.36,8.23,8.23,0,0,0,2.13.6,4,4,0,0,0,2.24-.72,4.06,4.06,0,0,1-2.6-.48,2.9,2.9,0,0,1-1.06-1,2.83,2.83,0,0,0-1.3-.71,4,4,0,0,0-1.18-.12,1.94,1.94,0,0,1-1.18-.36l-.48-.24a.88.88,0,0,1-.16,0Z" transform="translate(-8.8 -4.9)"/><path class="cls-8" d="M97.39,99.59c.27-.26.75-.66,1.23-1,1.44-.51,3.18-1.06,3.58-1.2a63,63,0,0,1-6.62.12c.12-.12,5-3.23,5-3.23l-6,1.32A39.94,39.94,0,0,1,99.37,91c-.36.24-5.2,2.51-5.56,2.63s-.35,0-.35,0L97,88.51,91.69,92.1C92,91,94.05,87,94.4,86.36L90,90.9l1.42-6.34L87.79,90c-.12-.12.12-5,.23-6.22,0,0-2,5.26-2.36,5.86,0-.24-.94-6.1-.94-6.1l-1.18,6.1a51.72,51.72,0,0,1-2.25-6A38.62,38.62,0,0,1,81.41,90L78.1,84.68l1.18,6.1c-1.06-.6-3.42-3.47-4.13-4.54.24.48,2.13,5.14,2.24,5.74L72.2,88.51s2.83,3.95,3.54,5c-.35.12-4.61-2.39-5.32-2.63.12.24,4.14,4.43,4.14,4.55-1.3-.36-5.91-1.56-5.91-1.56a43.77,43.77,0,0,1,4.16,3.41c-.83.12-5.07,0-5.3,0l4.92,2.09-5.49,1.51,6,1.24c0,.08-5.45,2.45-5.65,2.45.24,0,5.44-.35,6.26-.23,0,0-3.89,2.75-5,3.34,0,0,4.61-1.19,5.91-1.55,0,.12-4,4.3-4.14,4.54.71-.24,5-2.75,5.32-2.63-.71,1.08-3.54,5-3.54,5l5.19-3.46c-.11.59-2,5.26-2.24,5.74.71-1.08,3.07-4,4.13-4.55L78,116.91l3.31-5.26a38.63,38.63,0,0,1-.12,6.34,51,51,0,0,1,2.25-6l1.18,6.1s.94-5.86.94-6.1c.36.6,2.37,5.86,2.37,5.86-.12-1.2-.36-6.1-.24-6.22L91.39,117,90,110.69l4.37,4.55c-.35-.6-2.36-4.67-2.71-5.74l5.31,3.58-3.54-5.14s0-.12.35,0,5.2,2.39,5.56,2.63A39.77,39.77,0,0,1,94.46,106l6,1.31s-4.85-3.1-5-3.22a62.85,62.85,0,0,1,6.61.12c-.38-.13-2-.65-3.37-1.13-.52-.4-1.07-.86-1.35-1.12l5.5-.9Z" transform="translate(-8.8 -4.9)"/><path class="cls-8" d="M66,100.79" transform="translate(-8.8 -4.9)"/><path class="cls-9" d="M93,99.15H92c-.12-.59-1-.83-1.18-.83a1.23,1.23,0,0,1,.12.35,1.71,1.71,0,0,1-.24.72c-.24.12-.36.36-.59.48h-1a2.77,2.77,0,0,1-.59-.48,1.69,1.69,0,0,1-.23-.72v-.23c0-.12.11-.12.11-.24h-.11l-.71.83c-.12.12-1.07,0-1.07,0l1.19-1.79c2.36-.36,3.66.12,4.37.72A2.24,2.24,0,0,1,93,99.15Z" transform="translate(-8.8 -4.9)"/><path class="cls-9" d="M93.6,97.24,93,97.12a2.62,2.62,0,0,0-1.77-1,8.71,8.71,0,0,0-1.3-.12l-3.43.24.6-1.55h1.18c2.48-.12,3.78.48,4.49,1.07a3,3,0,0,1,.82,1.44Z" transform="translate(-8.8 -4.9)"/><path class="cls-9" d="M83.33,98.91a3.93,3.93,0,0,1-1.19,0l-.59-.59c-.11,0-.11.12-.11.24a1.71,1.71,0,0,1-.24.71c-.24.12-.36.36-.59.36s-1,0-1,0c-.23,0-.35-.24-.59-.36a3.58,3.58,0,0,1-.23-1c.11,0,.11-.12.11-.12a.91.91,0,0,0-.59.24,1.46,1.46,0,0,0-.59.59H76.71a3.51,3.51,0,0,1,.94-1.19c.71-.6,2.13-1.08,4.49-.72l1.19,1.79Z" transform="translate(-8.8 -4.9)"/><path class="cls-9" d="M76,97.12a2.27,2.27,0,0,1,1-1.32c.7-.59,2.12-1.19,4.84-1.07h.94l.36,1.55-1.77-.12a19.08,19.08,0,0,0-3-.12,2.64,2.64,0,0,0-1.77,1l-.59.12Z" transform="translate(-8.8 -4.9)"/><path class="cls-9" d="M87,101.73l-.33,1.2-1.07-.13a1.69,1.69,0,0,1-.16.31.62.62,0,0,1-.61.33h0a.62.62,0,0,1-.61-.33,1.82,1.82,0,0,1-.15-.31l-1.07.13-.34-1.2H82l.58,1.68h1.17a1.37,1.37,0,0,0,1.08.71h0a1.35,1.35,0,0,0,1.08-.72h1.18l.57-1.68Z" transform="translate(-8.8 -4.9)"/><path class="cls-9" d="M87,106.08,85.48,106s-.23.63-.68.63-.68-.63-.68-.63l-1.52.12-2.2.67v.61h8.81v-.61Z" transform="translate(-8.8 -4.9)"/><polygon class="cls-9" points="73.55 102.72 78.45 102.72 78.45 103.06 76.12 103.55 73.55 103.14 73.55 102.72"/><path class="cls-3" d="M89.57,200.22l.38-1.89c2.37,5,9.57,7.16,13.2,7.94l3-2.17s-12-.82-15.68-7.46c0,0-.14-1.53.62-1.91l.1-.06c.72-.09,6.17-.9,7.12-5.88,1-5.33-2.39-7.79-12.8-6.09-10.42-1.7-13.83.76-12.81,6.09,1,5,6.4,5.79,7.12,5.88l.1.06c.76.38.62,1.91.62,1.91-3.73,6.64-15.68,7.46-15.68,7.46L68,206.37c3.45-.7,11.17-2.81,13.64-8l.38,1.89s0,5.49-10.76,8.52l2,1.42c8.9-1.14,10.41-8.33,10.41-8.33.38.95,1.9.95,1.9.95s1.51,0,1.89-.95c0,0,1.51,7.19,10.41,8.33l2.12-1.54C89.57,205.57,89.57,200.22,89.57,200.22Zm6.06-12.48s.07,1.75-2.8,3.34a13,13,0,0,0,.24-2.51,4,4,0,0,0-2.13-3.46C91.68,184.87,95,184,95.63,187.74Zm-17.71.83a13,13,0,0,0,.24,2.51c-2.87-1.59-2.8-3.34-2.8-3.34.59-3.77,4-2.87,4.69-2.63A4,4,0,0,0,77.92,188.57Zm7.58,11.76c-1.52,0-2-2.48-2-4.45a2,2,0,0,1,4,0C87.47,197.85,87,200.35,85.5,200.33Zm0-9s-2.37-.17-2.75,1.16a5.27,5.27,0,0,1-1.52-3.6c.19-1.9,2.51-2.42,2.51-2.42a13.08,13.08,0,0,1,1.76-.25,13.13,13.13,0,0,1,1.75.25s2.32.52,2.51,2.42a5.23,5.23,0,0,1-1.52,3.6C87.86,191.13,85.5,191.3,85.5,191.3Z" transform="translate(-8.8 -4.9)"/><path class="cls-5" d="M95.63,187.74s.07,1.75-2.8,3.34a13,13,0,0,0,.24-2.51,4,4,0,0,0-2.13-3.46C91.68,184.87,95,184,95.63,187.74Z" transform="translate(-8.8 -4.9)"/><path class="cls-5" d="M77.92,188.57a13,13,0,0,0,.24,2.51c-2.87-1.59-2.8-3.34-2.8-3.34.59-3.77,4-2.87,4.69-2.63A4,4,0,0,0,77.92,188.57Z" transform="translate(-8.8 -4.9)"/><path class="cls-5" d="M85.5,191.3s-2.37-.17-2.75,1.16a5.27,5.27,0,0,1-1.52-3.6c.19-1.9,2.51-2.42,2.51-2.42a13.08,13.08,0,0,1,1.76-.25,13.13,13.13,0,0,1,1.75.25s2.32.52,2.51,2.42a5.23,5.23,0,0,1-1.52,3.6C87.86,191.13,85.5,191.3,85.5,191.3Z" transform="translate(-8.8 -4.9)"/><path class="cls-10" d="M47.43,177a4.14,4.14,0,0,1,2.68,1.16c0-4.55-.89-5.58-1.92-6.61s-2.08-2.27-2.08-2.27a14,14,0,0,1,0,3.22,8.64,8.64,0,0,0,.19,3.22A10,10,0,0,0,37.59,174s3.22,3.41,6.25,4.17l5.28,1.29A3.36,3.36,0,0,0,47.43,177Z" transform="translate(-8.8 -4.9)"/><path class="cls-10" d="M36,161.36a4.21,4.21,0,0,1,2.4,1.1c.29-1.5.67-4.08.14-5.13-.84-1.69-2.08-3.6-2.08-3.6-1,1.52.19,3.41-.57,4.17s-.19,2.84-.19,2.84c-3-3-8.52-2.84-8.52-2.84a17.31,17.31,0,0,1,4,3.78c1.48,1.92,4.91,2,6.35,1.94A3.32,3.32,0,0,0,36,161.36Z" transform="translate(-8.8 -4.9)"/><path class="cls-10" d="M32,154.84a3.63,3.63,0,0,1,1.67,1.78,5.57,5.57,0,0,0,1.42-4.78c-.76-2.84-1-1.14-1.52-4.36,0,0-2.37,4.07-2,6.73,0,0-4-3.6-7.86-3.51A44.45,44.45,0,0,0,27,154.87c.89.88,4.19,1.77,5.6,2.12A2.87,2.87,0,0,0,32,154.84Z" transform="translate(-8.8 -4.9)"/><path class="cls-10" d="M27.69,146.13A3.52,3.52,0,0,1,29.37,148c.75-1.09,2.21-3.55,1.49-5.13a45.5,45.5,0,0,1-1.7-4.54s-2.08,5.11-1.7,6.82c0,0-3.41-3.41-7.77-2.66a4,4,0,0,1,1.9,1.9,8.31,8.31,0,0,0,6.6,4.13A2.91,2.91,0,0,0,27.69,146.13Z" transform="translate(-8.8 -4.9)"/><path class="cls-10" d="M23.74,138.58A3.41,3.41,0,0,1,25.57,141c2.38-2.67,2.5-6.43,2-7.48a5.13,5.13,0,0,1-.57-2.08,20.84,20.84,0,0,0-2.84,6.44c-1.32-3.22-6.81-4-6.81-4s2.08,4.92,3.4,5.87a17.21,17.21,0,0,0,3.39,1.62A2.9,2.9,0,0,0,23.74,138.58Z" transform="translate(-8.8 -4.9)"/><path class="cls-10" d="M40.91,169.5a4.13,4.13,0,0,1,2.54,1.24c2.26-4.79-1.89-9.43-1.89-9.43s.57,1.13-.56,3a6.59,6.59,0,0,0-.57,4.35c-2.27-3.22-8.52-3.41-8.52-3.41a26.83,26.83,0,0,1,2.46,4c1.27,2.39,6.45,2.5,8.05,2.48A3.32,3.32,0,0,0,40.91,169.5Z" transform="translate(-8.8 -4.9)"/><path class="cls-10" d="M24.33,125.33c-.94-3.79-.76-4.74-.76-4.74s-3.12,5.59-2.93,7.29a11.9,11.9,0,0,0-7.29-4.45,15,15,0,0,1,1.7,2.66c.71,1.4,2.06,4.27,5.28,5.13a1.76,1.76,0,0,0,.21-1.92,1.65,1.65,0,0,1,1,1.85C22.5,130.48,25.1,128.4,24.33,125.33Z" transform="translate(-8.8 -4.9)"/><path class="cls-10" d="M22.36,112.93s-3.06,3-3.44,6.63c0,0-1.76-4.64-5.74-4.62a8.58,8.58,0,0,1,1.15,3.73c.33,2.64,3.6,3.6,3.6,3.6a.83.83,0,0,1,.5.22,3.38,3.38,0,0,0,.64-2.08,5.4,5.4,0,0,1,.14,2.86c.53-.46,3.37-3.09,3.37-6.18A19.08,19.08,0,0,0,22.36,112.93Z" transform="translate(-8.8 -4.9)"/><path class="cls-10" d="M22.15,104.78c-1.89.76-4.35,4.55-4.35,4.55-1.14-3.22-6.06-5.68-6.06-5.68a18.84,18.84,0,0,0,1.33,4,13.82,13.82,0,0,0,4.65,5.63,4.28,4.28,0,0,0,0-2.69,5.08,5.08,0,0,1,1,2.46C24.39,111,22.15,104.78,22.15,104.78Z" transform="translate(-8.8 -4.9)"/><path class="cls-10" d="M22.15,96.26a7.08,7.08,0,0,0-4,4.55c.19-3-5.3-7.2-5.3-7.2a11.8,11.8,0,0,1,.56,4.17c0,2.23,2.69,5.39,3.84,6.64a4,4,0,0,0,.8-2.19,5.22,5.22,0,0,1,.4,2.42c4-2,3.87-4.46,4.05-5.36a24.67,24.67,0,0,0,.19-3.22Z" transform="translate(-8.8 -4.9)"/><path class="cls-10" d="M18.37,89.82s-1.71-4.92-5.21-6.15a28.73,28.73,0,0,1,.57,3.6,6.8,6.8,0,0,0,2.65,4.54A7.22,7.22,0,0,1,17.85,93a2.68,2.68,0,0,0,1-2c-.16-.93.46.71.15,2.06,1.2-1.06,3.5-3.32,3.64-5.28l.28-2.74S18.37,87.55,18.37,89.82Z" transform="translate(-8.8 -4.9)"/><path class="cls-10" d="M18.75,81.3a9.4,9.4,0,0,0-3.6-7.38A10.37,10.37,0,0,1,15,77.14c-.38,1.13-.57,3.59.95,5.11a13.3,13.3,0,0,1,1.85,2.26A4.13,4.13,0,0,0,18.84,82c-.16-.94.6,1.12,0,2.6,1.43-.62,4.18-2.06,4.46-4,.38-2.65.95-3.21.95-3.21S19.69,78.84,18.75,81.3Z" transform="translate(-8.8 -4.9)"/><path class="cls-10" d="M27.08,67.1s-1.9,2.27-3.22,2.65a4.79,4.79,0,0,0-2.27,1.89s-.76-5.3-3.6-7.38a31.19,31.19,0,0,1-.38,5.11c-.35,1.4.27,4.59,2.47,5.66-.08-.71-.09-1.94.84-2.34a4.46,4.46,0,0,0,.19,2.44c1.29-.34,4.78-1.54,5.4-4.62C27.27,66.72,27.08,67.1,27.08,67.1Z" transform="translate(-8.8 -4.9)"/><path class="cls-10" d="M23.48,63.31s.57-4.92-2.08-7.38a11.63,11.63,0,0,1-.95,2.84c-.57.94-.95,4,.38,5.49A5.39,5.39,0,0,1,22,66.37a3.57,3.57,0,0,0,1.23-1.83,11.19,11.19,0,0,1-.32,2.62c1.37-.64,4.28-2.17,5.14-4a12.41,12.41,0,0,1,1.71-3S24.43,61.61,23.48,63.31Z" transform="translate(-8.8 -4.9)"/><path class="cls-10" d="M27.65,54.6A9.49,9.49,0,0,0,25.18,47a5.27,5.27,0,0,1-.37,2.65c-.57,1-1.33,4.54.18,5.87a3.34,3.34,0,0,1,1.11,1.68c.67-.35,1.64-1,1.64-1.59A4.58,4.58,0,0,1,27,58c1.4-.33,4.08-1.24,5.17-3.43a20,20,0,0,0,1.7-4S28.78,53.09,27.65,54.6Z" transform="translate(-8.8 -4.9)"/><path class="cls-10" d="M31.43,45.89a9.51,9.51,0,0,0-.94-7.76,10.91,10.91,0,0,1-.57,2.46c-.57,1.89-2.65,4.54-1.71,6.06a8.86,8.86,0,0,1,1,2.13c.38-.15,1.59-.7,1.59-1.66a7.45,7.45,0,0,1-.35,2.24c1.77-.25,5.19-.89,5.75-2.14A23,23,0,0,1,39,43.05Z" transform="translate(-8.8 -4.9)"/><path class="cls-10" d="M41,37.28a7.16,7.16,0,0,0-3.79.56c1.51-3.4,0-8.9,0-8.9s-2.84,4.74-3,6.44a40.78,40.78,0,0,0,0,4.72A3.2,3.2,0,0,0,36.45,39a18.61,18.61,0,0,1-1,2.44,8.72,8.72,0,0,0,8.22-4.52A3.28,3.28,0,0,1,41,37.28Z" transform="translate(-8.8 -4.9)"/><path class="cls-10" d="M43.08,30.84c1.89-1.9.57-7.77.57-7.77s-1.9,2.28-3,3.79c-.86,1.14-1,4.21-1,5.66.8,0,2.2-.2,2.47-.74a5.82,5.82,0,0,1-1.72,1.92C44.58,35.58,49.14,31,49.14,31,47.24,30.46,43.08,30.84,43.08,30.84Z" transform="translate(-8.8 -4.9)"/><path class="cls-10" d="M53.68,25.35a8.61,8.61,0,0,0-3.78-.19C52,22.51,52,17,52,17a23.1,23.1,0,0,1-2.84,3c-1.71,1.52-2.27,1.9-2.08,4a10.31,10.31,0,0,1,0,1.95c.63.08,1.85.17,2.27-.25a7.11,7.11,0,0,1-2,1.74c.35.32.87.39,2.6.92,2.46.75,6.43-2.66,6.43-2.66A5.84,5.84,0,0,1,53.68,25.35Z" transform="translate(-8.8 -4.9)"/><path class="cls-10" d="M60.12,21.75A22.16,22.16,0,0,0,56,20.42c4.54-3.59,3-7.76,3-7.76s-2.08,2.08-2.65,2.46-2.46,1.52-2.65,3.22a10.37,10.37,0,0,1-.6,2.35,1.43,1.43,0,0,0,1.55.11A4.34,4.34,0,0,1,52.58,22c1,1.86,5.66,2.59,6.59,1.84a14.54,14.54,0,0,1,3.6-1.51A4.71,4.71,0,0,1,60.12,21.75Z" transform="translate(-8.8 -4.9)"/><path class="cls-10" d="M66.56,17a5.27,5.27,0,0,0-2.46-.94l2.46-1.52c3.41-2.08,3-6.44,3-6.44a5.57,5.57,0,0,1-3.22,2.09c-2.46.75-4,2.27-4.17,3.41A17.94,17.94,0,0,1,61.53,16a1.46,1.46,0,0,0,1.62,0,2.89,2.89,0,0,1-1.87.83,4.64,4.64,0,0,0,5.09,2.77c1.33-.38,3.41-1.14,3.41-1.14A17,17,0,0,1,66.56,17Z" transform="translate(-8.8 -4.9)"/><path class="cls-10" d="M73.57,13.42c3.59-1.9,5.68-6.82,5.68-6.82a55.84,55.84,0,0,0-6.06,2.46,6.11,6.11,0,0,0-3,4.22,5,5,0,0,1,2.41,0s-1.14.57-2.08.94c1.9,5.35,8.52,2.28,8.52,2.28a11.2,11.2,0,0,1-2.46-1.52A10.11,10.11,0,0,0,73.57,13.42Z" transform="translate(-8.8 -4.9)"/><path class="cls-10" d="M122.14,177a4.14,4.14,0,0,0-2.68,1.16c0-4.55.89-5.58,1.92-6.61s2.08-2.27,2.08-2.27a14,14,0,0,0,0,3.22,8.64,8.64,0,0,1-.19,3.22A10,10,0,0,1,132,174s-3.22,3.41-6.25,4.17l-5.28,1.29A3.36,3.36,0,0,1,122.14,177Z" transform="translate(-8.8 -4.9)"/><path class="cls-10" d="M133.58,161.36a4.21,4.21,0,0,0-2.4,1.1c-.29-1.5-.67-4.08-.14-5.13.84-1.69,2.08-3.6,2.08-3.6.95,1.52-.19,3.41.57,4.17s.19,2.84.19,2.84c3-3,8.52-2.84,8.52-2.84a17.31,17.31,0,0,0-4,3.78c-1.48,1.92-4.91,2-6.35,1.94A3.32,3.32,0,0,1,133.58,161.36Z" transform="translate(-8.8 -4.9)"/><path class="cls-10" d="M137.53,154.84a3.63,3.63,0,0,0-1.67,1.78,5.57,5.57,0,0,1-1.42-4.78c.76-2.84.95-1.14,1.52-4.36,0,0,2.37,4.07,2,6.73,0,0,4-3.6,7.86-3.51a44.45,44.45,0,0,1-3.22,4.17c-.89.88-4.19,1.77-5.6,2.12A2.87,2.87,0,0,1,137.53,154.84Z" transform="translate(-8.8 -4.9)"/><path class="cls-10" d="M141.88,146.13A3.52,3.52,0,0,0,140.2,148c-.75-1.09-2.21-3.55-1.49-5.13a45.5,45.5,0,0,0,1.7-4.54s2.08,5.11,1.7,6.82c0,0,3.41-3.41,7.77-2.66a4,4,0,0,0-1.9,1.9,8.31,8.31,0,0,1-6.6,4.13A2.91,2.91,0,0,1,141.88,146.13Z" transform="translate(-8.8 -4.9)"/><path class="cls-10" d="M145.83,138.58A3.41,3.41,0,0,0,144,141c-2.38-2.67-2.5-6.43-2-7.48a5.13,5.13,0,0,0,.57-2.08,20.84,20.84,0,0,1,2.84,6.44c1.32-3.22,6.81-4,6.81-4s-2.08,4.92-3.4,5.87a17.21,17.21,0,0,1-3.39,1.62A2.9,2.9,0,0,1,145.83,138.58Z" transform="translate(-8.8 -4.9)"/><path class="cls-10" d="M128.66,169.5a4.13,4.13,0,0,0-2.54,1.24c-2.26-4.79,1.89-9.43,1.89-9.43s-.57,1.13.56,3a6.59,6.59,0,0,1,.57,4.35c2.27-3.22,8.52-3.41,8.52-3.41a26.83,26.83,0,0,0-2.46,4c-1.27,2.39-6.45,2.5-8,2.48A3.32,3.32,0,0,1,128.66,169.5Z" transform="translate(-8.8 -4.9)"/><path class="cls-10" d="M145.24,125.33c.94-3.79.76-4.74.76-4.74s3.12,5.59,2.93,7.29a11.9,11.9,0,0,1,7.29-4.45,15,15,0,0,0-1.7,2.66c-.71,1.4-2.06,4.27-5.28,5.13a1.76,1.76,0,0,1-.21-1.92,1.65,1.65,0,0,0-1,1.85C147.07,130.48,144.47,128.4,145.24,125.33Z" transform="translate(-8.8 -4.9)"/><path class="cls-10" d="M147.21,112.93s3.06,3,3.44,6.63c0,0,1.76-4.64,5.74-4.62a8.58,8.58,0,0,0-1.15,3.73c-.33,2.64-3.6,3.6-3.6,3.6a.83.83,0,0,0-.5.22,3.38,3.38,0,0,1-.64-2.08,5.4,5.4,0,0,0-.14,2.86c-.53-.46-3.37-3.09-3.37-6.18A19.08,19.08,0,0,1,147.21,112.93Z" transform="translate(-8.8 -4.9)"/><path class="cls-10" d="M147.42,104.78c1.89.76,4.35,4.55,4.35,4.55,1.14-3.22,6.06-5.68,6.06-5.68a18.84,18.84,0,0,1-1.33,4,13.82,13.82,0,0,1-4.65,5.63,4.28,4.28,0,0,1,0-2.69,5.08,5.08,0,0,0-1,2.46C145.18,111,147.42,104.78,147.42,104.78Z" transform="translate(-8.8 -4.9)"/><path class="cls-10" d="M147.42,96.26a7.08,7.08,0,0,1,4,4.55c-.19-3,5.3-7.2,5.3-7.2a11.8,11.8,0,0,0-.56,4.17c0,2.23-2.69,5.39-3.84,6.64a4,4,0,0,1-.8-2.19,5.22,5.22,0,0,0-.4,2.42c-4-2-3.87-4.46-4.05-5.36a24.67,24.67,0,0,1-.19-3.22Z" transform="translate(-8.8 -4.9)"/><path class="cls-10" d="M151.2,89.82s1.71-4.92,5.21-6.15a28.73,28.73,0,0,0-.57,3.6,6.8,6.8,0,0,1-2.65,4.54A7.22,7.22,0,0,0,151.72,93a2.68,2.68,0,0,1-1-2c.16-.93-.46.71-.15,2.06-1.2-1.06-3.5-3.32-3.64-5.28l-.28-2.74S151.2,87.55,151.2,89.82Z" transform="translate(-8.8 -4.9)"/><path class="cls-10" d="M150.82,81.3a9.4,9.4,0,0,1,3.6-7.38,10.37,10.37,0,0,0,.19,3.22c.38,1.13.57,3.59-1,5.11a13.3,13.3,0,0,0-1.85,2.26A4.13,4.13,0,0,1,150.73,82c.16-.94-.6,1.12,0,2.6-1.43-.62-4.18-2.06-4.46-4-.38-2.65-.95-3.21-.95-3.21S149.88,78.84,150.82,81.3Z" transform="translate(-8.8 -4.9)"/><path class="cls-10" d="M142.49,67.1s1.9,2.27,3.22,2.65A4.79,4.79,0,0,1,148,71.64s.76-5.3,3.6-7.38a31.19,31.19,0,0,0,.38,5.11c.35,1.4-.27,4.59-2.47,5.66.08-.71.09-1.94-.84-2.34a4.46,4.46,0,0,1-.19,2.44c-1.29-.34-4.78-1.54-5.4-4.62C142.3,66.72,142.49,67.1,142.49,67.1Z" transform="translate(-8.8 -4.9)"/><path class="cls-10" d="M146.09,63.31s-.57-4.92,2.08-7.38a11.63,11.63,0,0,0,1,2.84c.57.94.95,4-.38,5.49a5.39,5.39,0,0,0-1.14,2.11,3.57,3.57,0,0,1-1.23-1.83,11.19,11.19,0,0,0,.32,2.62c-1.37-.64-4.28-2.17-5.14-4a12.41,12.41,0,0,0-1.71-3S145.14,61.61,146.09,63.31Z" transform="translate(-8.8 -4.9)"/><path class="cls-10" d="M141.92,54.6A9.49,9.49,0,0,1,144.39,47a5.27,5.27,0,0,0,.37,2.65c.57,1,1.33,4.54-.18,5.87a3.34,3.34,0,0,0-1.11,1.68c-.67-.35-1.64-1-1.64-1.59a4.58,4.58,0,0,0,.72,2.39c-1.4-.33-4.08-1.24-5.17-3.43a20,20,0,0,1-1.7-4S140.79,53.09,141.92,54.6Z" transform="translate(-8.8 -4.9)"/><path class="cls-10" d="M138.14,45.89a9.51,9.51,0,0,1,.94-7.76,10.91,10.91,0,0,0,.57,2.46c.57,1.89,2.65,4.54,1.71,6.06a8.86,8.86,0,0,0-1,2.13c-.38-.15-1.59-.7-1.59-1.66a7.45,7.45,0,0,0,.35,2.24c-1.78-.25-5.19-.89-5.75-2.14a23,23,0,0,0-2.84-4.17Z" transform="translate(-8.8 -4.9)"/><path class="cls-10" d="M128.57,37.28a7.16,7.16,0,0,1,3.79.56c-1.51-3.4,0-8.9,0-8.9s2.84,4.74,3,6.44a40.78,40.78,0,0,1,0,4.72A3.2,3.2,0,0,1,133.12,39a18.61,18.61,0,0,0,1,2.44,8.72,8.72,0,0,1-8.22-4.52A3.28,3.28,0,0,0,128.57,37.28Z" transform="translate(-8.8 -4.9)"/><path class="cls-10" d="M126.49,30.84c-1.89-1.9-.57-7.77-.57-7.77s1.9,2.28,3,3.79c.86,1.14,1,4.21,1,5.66-.8,0-2.2-.2-2.47-.74a5.82,5.82,0,0,0,1.72,1.92C125,35.58,120.43,31,120.43,31,122.33,30.46,126.49,30.84,126.49,30.84Z" transform="translate(-8.8 -4.9)"/><path class="cls-10" d="M115.89,25.35a8.61,8.61,0,0,1,3.78-.19c-2.08-2.65-2.08-8.15-2.08-8.15a23.1,23.1,0,0,0,2.84,3c1.71,1.52,2.27,1.9,2.08,4a10.31,10.31,0,0,0,0,1.95c-.63.08-1.85.17-2.27-.25a7.11,7.11,0,0,0,2,1.74c-.35.32-.87.39-2.6.92-2.46.75-6.43-2.66-6.43-2.66A5.84,5.84,0,0,0,115.89,25.35Z" transform="translate(-8.8 -4.9)"/><path class="cls-10" d="M109.45,21.75a22.16,22.16,0,0,1,4.16-1.33c-4.54-3.59-3-7.76-3-7.76s2.08,2.08,2.65,2.46,2.46,1.52,2.65,3.22a10.37,10.37,0,0,0,.6,2.35,1.43,1.43,0,0,1-1.55.11A4.34,4.34,0,0,0,117,22c-1,1.86-5.66,2.59-6.59,1.84a14.54,14.54,0,0,0-3.6-1.51A4.71,4.71,0,0,0,109.45,21.75Z" transform="translate(-8.8 -4.9)"/><path class="cls-10" d="M103,17a5.27,5.27,0,0,1,2.46-.94L103,14.55c-3.41-2.08-3-6.44-3-6.44a5.57,5.57,0,0,0,3.22,2.09c2.46.75,4,2.27,4.17,3.41A17.94,17.94,0,0,0,108,16a1.46,1.46,0,0,1-1.62,0,2.89,2.89,0,0,0,1.87.83,4.64,4.64,0,0,1-5.09,2.77c-1.33-.38-3.41-1.14-3.41-1.14A17,17,0,0,0,103,17Z" transform="translate(-8.8 -4.9)"/><path class="cls-10" d="M96,13.42c-3.59-1.9-5.68-6.82-5.68-6.82a55.84,55.84,0,0,1,6.06,2.46,6.11,6.11,0,0,1,3,4.22,5,5,0,0,0-2.41,0s1.14.57,2.08.94c-1.9,5.35-8.52,2.28-8.52,2.28A11.2,11.2,0,0,0,93,14.93,10.11,10.11,0,0,1,96,13.42Z" transform="translate(-8.8 -4.9)"/><path class="cls-11" d="M84.17,6.79c-2,0-4.38,2.74-5.47,4.13a6.24,6.24,0,0,0,3.77-.48A3.41,3.41,0,0,1,80.25,12c8.38.68,9-3.87,9-3.87C87.2,8.68,86.82,6.79,84.17,6.79Z" transform="translate(-8.8 -4.9)"/><path class="cls-11" d="M87,13.91a7.94,7.94,0,0,1,4.91-1.31A7.89,7.89,0,0,0,89.09,11S86.63,13,84.17,13a52.82,52.82,0,0,1-5.49-.38l.38.95s2.08,2.84,5.3,2.84c2.51,0,5.25-2,6.79-2.83C90.59,13.38,89.38,13.18,87,13.91Z" transform="translate(-8.8 -4.9)"/></svg>